<?xml version="1.0"?>
<svg width="400" height="400" xmlns="http://www.w3.org/2000/svg" xmlns:svg="http://www.w3.org/2000/svg" version="1.1">
 <g class="layer">
  <title>Layer 1</title>
  <g id="svgg">
   <path d="m202.2,34.8c-12.56,1.71 -12.73,1.74 -18.8,3.05c-4.78,1.03 -6.37,1.41 -7.2,1.73c-0.44,0.16 -1.7,0.58 -2.8,0.93c-7.04,2.22 -16.38,5.64 -20.4,7.48c-3.7,1.69 -13.34,6.5 -15.06,7.51c-20.26,11.96 -35.49,25.14 -49.57,42.9c-2.22,2.81 -8.37,11.6 -8.37,11.97c0,0.18 -0.28,0.56 -0.61,0.84c-0.34,0.28 -1.27,1.7 -2.07,3.15c-0.8,1.45 -2.2,3.9 -3.11,5.44c-4.93,8.32 -11.49,23.7 -14.03,32.9c-4.35,15.76 -4.8,17.93 -6.17,30.1c-0.98,8.66 -1.21,26.8 -0.44,34.4c0.6,6 1.6,13.43 2.04,15.2c0.19,0.77 0.65,2.84 1.02,4.6c1.37,6.53 5.63,21 7.2,24.46c0.31,0.69 0.57,1.37 0.57,1.5c0,0.13 0.6,1.54 1.32,3.14c0.73,1.59 1.58,3.53 1.89,4.3c0.9,2.26 4.35,9.19 5.98,12c0.82,1.43 2,3.5 2.62,4.6c0.61,1.1 1.32,2.36 1.57,2.8c0.39,0.69 3.12,4.8 5.02,7.55c1.45,2.11 4.66,6.52 5.26,7.25c0.37,0.44 1.78,2.15 3.15,3.8c2.43,2.96 8.41,9.59 10.43,11.58c4.98,4.91 10.12,9.58 12.8,11.62c0.72,0.55 2.31,1.83 3.54,2.85c3.52,2.93 13.95,9.98 18.62,12.58c1.54,0.86 3.52,1.97 4.4,2.46c3.29,1.85 11.38,5.7 14.45,6.87c1.13,0.44 2.84,1.14 3.8,1.57c3.16,1.43 10.9,4.08 15.75,5.41c7.22,1.98 12.1,3.04 19.6,4.25c1.54,0.25 3.57,0.62 4.51,0.83c0.93,0.21 2.73,0.38 4,0.38c1.26,0 3.82,0.18 5.69,0.4c5.88,0.69 10.47,0.59 11.08,-0.25c0.42,-0.57 0.5,-7.46 0.42,-35.73l-0.1,-35.02l-2.4,-0.26c-1.32,-0.14 -3.93,-0.38 -5.8,-0.53c-3.39,-0.27 -8.55,-1.1 -11.2,-1.8c-0.77,-0.2 -2.66,-0.65 -4.2,-1c-27.31,-6.25 -55.41,-30.75 -64.92,-56.61c-1.89,-5.13 -4.38,-13.39 -5.25,-17.4c-1.28,-5.88 -1.71,-10.75 -1.72,-19.2c0,-11.46 0.62,-15.71 4.1,-28c0.44,-1.56 1.98,-6.06 2.59,-7.6c0.26,-0.66 0.72,-1.83 1.02,-2.6c0.54,-1.41 2.23,-4.72 4.49,-8.8c9.31,-16.84 25.49,-31.99 42.53,-39.82c12.64,-5.81 20.99,-7.98 34.56,-9c3.19,-0.24 5.94,-0.57 6.1,-0.73c0.17,-0.16 0.26,-16.12 0.2,-35.47l-0.1,-35.18l-6.4,-0.05c-4.18,-0.04 -8.2,0.19 -11.6,0.65m19.1,166.7l0.1,95.5l5.8,-0.11c3.19,-0.06 6.61,-0.28 7.6,-0.48c0.99,-0.21 3.33,-0.67 5.2,-1.03c1.87,-0.36 3.71,-0.81 4.1,-1.02c0.38,-0.2 0.97,-0.36 1.3,-0.36c0.57,0 9.39,-2.82 11.2,-3.58c7.74,-3.25 15.6,-7.64 20.59,-11.49c5.73,-4.42 9.21,-7.42 12.2,-10.53c3.38,-3.5 10.15,-11.76 10.65,-13c0.09,-0.22 1.01,-1.68 2.05,-3.25c2.08,-3.15 5.97,-10.81 7.68,-15.15c0.61,-1.54 1.36,-3.39 1.67,-4.11c0.31,-0.73 0.56,-1.58 0.56,-1.91c0,-0.33 0.16,-0.9 0.35,-1.28c4.78,-9.46 5.26,-40.13 0.84,-53.9c-1.23,-3.84 -1.64,-5.05 -2.53,-7.4c-3.5,-9.26 -7.21,-16.08 -13.52,-24.86c-15.5,-21.52 -46.34,-37.54 -72.27,-37.54l-3.67,0l0.1,95.5" fill="#09d26d" fill-rule="evenodd" id="path0" transform="matrix(1 0 0 1 0 0)"/>
   <path d="m211.17,32.96c-0.1,0.09 -2.96,0.36 -6.37,0.61c-3.41,0.25 -7.73,0.72 -9.6,1.05c-1.87,0.32 -4.74,0.78 -6.37,1.01c-1.63,0.22 -3.16,0.52 -3.39,0.67c-0.22,0.14 -1.14,0.39 -2.03,0.55c-2.67,0.49 -5.56,1.18 -6.41,1.52c-1.19,0.48 -3.43,1.13 -4.9,1.43c-0.71,0.14 -1.39,0.43 -1.52,0.63c-0.12,0.2 -0.73,0.37 -1.34,0.37c-0.61,0 -1.22,0.11 -1.36,0.25c-0.34,0.35 -6.61,2.56 -7.98,2.83c-0.61,0.12 -1.21,0.37 -1.33,0.57c-0.12,0.19 -0.52,0.35 -0.89,0.35c-0.36,0 -2.56,0.92 -4.87,2.04c-2.32,1.13 -6.1,2.96 -8.41,4.08c-2.31,1.11 -5.28,2.68 -6.6,3.48c-1.94,1.18 -6.76,4.05 -11.04,6.6c-7.08,4.2 -25.71,20.71 -33.16,29.37c-1.21,1.4 -2.6,3 -3.1,3.55c-0.5,0.55 -0.9,1.11 -0.9,1.24c0,0.13 -0.73,1.05 -1.62,2.04c-0.89,0.99 -2.84,3.6 -4.33,5.8c-1.49,2.2 -3.66,5.4 -4.81,7.11c-2.23,3.28 -4.16,6.57 -4.94,8.39c-0.26,0.61 -0.62,1.1 -0.79,1.1c-0.17,0 -0.31,0.16 -0.31,0.35c0,0.19 -1.07,2.26 -2.37,4.6c-1.31,2.34 -2.5,4.66 -2.66,5.15c-0.15,0.5 -0.72,1.89 -1.25,3.1c-1.17,2.68 -1.43,3.3 -2.31,5.6c-0.38,0.99 -0.85,2.11 -1.05,2.5c-0.2,0.38 -0.36,0.87 -0.36,1.08c0,0.22 -0.43,1.35 -0.95,2.51c-0.53,1.16 -1.26,3.19 -1.64,4.51c-0.37,1.32 -0.82,2.85 -1,3.4c-0.18,0.55 -0.63,2.17 -1.01,3.6c-0.38,1.43 -0.84,3.05 -1.03,3.6c-0.18,0.55 -0.63,2.53 -0.98,4.4c-0.36,1.87 -0.81,4.03 -0.99,4.8c-1.68,6.88 -2.93,17.11 -3.37,27.6c-0.25,6.01 0.77,26.62 1.36,27.4c0.17,0.22 0.42,1.57 0.57,3c0.24,2.4 0.6,4.38 1.44,8c0.18,0.77 0.54,2.48 0.8,3.8c0.46,2.33 0.66,3.22 1.59,7c1.17,4.77 4.67,15.27 5.82,17.47c0.32,0.62 0.59,1.41 0.59,1.75c0,0.34 0.15,0.79 0.33,1c0.19,0.21 0.75,1.37 1.25,2.58c1.81,4.39 2.08,5.02 2.68,6.2c1.19,2.31 3.8,7.21 4.69,8.8c0.5,0.88 1.54,2.77 2.32,4.2c3.34,6.12 11.5,17.4 18.13,25.06c5.36,6.2 15.27,15.98 18.36,18.13c0.46,0.32 1.29,1 1.84,1.51c8.19,7.61 29.6,20.51 42.01,25.31c12.94,5.01 17.8,6.59 25.19,8.22c1.65,0.37 3.9,0.9 5,1.2c1.1,0.3 3.53,0.74 5.4,0.98c1.87,0.24 4.3,0.6 5.4,0.79c1.1,0.19 3.17,0.55 4.6,0.8c5.16,0.9 19.25,1.03 19.86,0.18c0.44,-0.6 0.54,-6.98 0.54,-35.16c0.01,-39.24 -0.2,-36.22 2.55,-36.23c4.89,-0.02 14.47,-1.62 24.05,-4.03c5.14,-1.29 13.66,-4.91 20.4,-8.68c1.76,-0.98 3.83,-2.13 4.61,-2.56c0.77,-0.42 2.03,-1.32 2.8,-1.99c0.76,-0.68 2.41,-1.92 3.66,-2.77c2.79,-1.91 10.87,-9.23 12.75,-11.57c0.76,-0.94 1.65,-2.01 1.98,-2.37c5.52,-6.05 16,-23.21 16,-26.2c0,-0.47 0.17,-1.03 0.37,-1.24c0.65,-0.67 4.35,-12.28 4.97,-15.58c1.43,-7.6 1.63,-9.9 1.64,-19c0.03,-15.2 -2.09,-26.64 -6.79,-36.66c-0.32,-0.69 -0.59,-1.46 -0.59,-1.71c0,-0.24 -0.18,-0.75 -0.39,-1.13c-0.22,-0.39 -0.82,-1.78 -1.33,-3.1c-0.52,-1.32 -1.88,-3.88 -3.01,-5.7c-1.14,-1.81 -2.07,-3.47 -2.07,-3.7c0,-0.22 -0.18,-0.4 -0.4,-0.4c-0.22,0 -0.4,-0.16 -0.4,-0.36c0,-0.49 -3.02,-5.01 -5.2,-7.79c-2.68,-3.41 -12.15,-13.09 -15.14,-15.46c-2.59,-2.06 -8.62,-6.37 -8.92,-6.38c-0.14,-0.01 -1.21,-0.65 -2.38,-1.44c-1.17,-0.78 -3.66,-2.15 -5.54,-3.04c-1.88,-0.89 -3.69,-1.84 -4.02,-2.1c-0.33,-0.25 -1.59,-0.8 -2.8,-1.2c-1.21,-0.41 -2.37,-0.9 -2.58,-1.09c-0.21,-0.18 -0.68,-0.34 -1.05,-0.34c-0.37,0 -1.19,-0.27 -1.82,-0.6c-0.63,-0.33 -1.45,-0.6 -1.83,-0.6c-0.37,0 -0.77,-0.16 -0.89,-0.35c-0.12,-0.2 -0.72,-0.45 -1.33,-0.57c-0.6,-0.11 -2.09,-0.49 -3.3,-0.85c-5.08,-1.48 -11.2,-2.37 -19.8,-2.9c-4.64,-0.28 -4.2,3.5 -4.2,-35.92c0,-40.64 0.7,-36.21 -5.76,-36.21c-2.48,0 -4.58,0.07 -4.67,0.16m9.24,36.43c-0.01,19.35 -0.15,35.31 -0.32,35.47c-0.16,0.16 -2.9,0.48 -6.09,0.72c-18.69,1.41 -33.31,6.63 -49.2,17.58c-8.78,6.05 -19.53,17.54 -25.68,27.44c-2.1,3.38 -5.89,10.52 -6.7,12.6c-0.3,0.77 -0.76,1.94 -1.02,2.6c-0.61,1.54 -2.15,6.04 -2.59,7.6c-3.48,12.29 -4.1,16.54 -4.1,28c0.01,8.45 0.44,13.32 1.72,19.2c0.87,4.01 3.36,12.27 5.25,17.4c9.5,25.85 37.62,50.36 64.92,56.61c1.54,0.35 3.43,0.8 4.2,1c2.65,0.7 7.81,1.53 11.2,1.8c1.87,0.15 4.48,0.39 5.8,0.53l2.4,0.26l0.2,35.6c0.11,19.58 0.18,35.65 0.15,35.72c-0.13,0.28 -8.62,0.06 -11.75,-0.31c-1.87,-0.22 -4.43,-0.41 -5.69,-0.41c-1.27,0 -3.07,-0.17 -4,-0.38c-0.94,-0.21 -2.97,-0.58 -4.51,-0.83c-7.5,-1.21 -12.38,-2.27 -19.6,-4.25c-4.85,-1.33 -12.59,-3.98 -15.75,-5.41c-0.96,-0.43 -2.67,-1.13 -3.8,-1.57c-3.07,-1.17 -11.16,-5.02 -14.45,-6.87c-0.88,-0.49 -2.86,-1.6 -4.4,-2.46c-4.67,-2.6 -15.1,-9.65 -18.62,-12.58c-1.23,-1.02 -2.82,-2.3 -3.54,-2.85c-2.68,-2.04 -7.82,-6.71 -12.8,-11.62c-2.02,-1.99 -8,-8.62 -10.43,-11.58c-1.37,-1.65 -2.78,-3.36 -3.15,-3.8c-0.6,-0.73 -3.81,-5.14 -5.26,-7.25c-1.9,-2.75 -4.63,-6.86 -5.02,-7.55c-0.25,-0.44 -0.96,-1.7 -1.57,-2.8c-0.62,-1.1 -1.8,-3.17 -2.62,-4.6c-1.63,-2.81 -5.08,-9.74 -5.98,-12c-0.31,-0.77 -1.16,-2.71 -1.89,-4.3c-0.72,-1.6 -1.32,-3.01 -1.32,-3.14c0,-0.13 -0.26,-0.81 -0.57,-1.5c-1.57,-3.46 -5.83,-17.93 -7.2,-24.46c-0.37,-1.76 -0.83,-3.83 -1.02,-4.6c-0.44,-1.77 -1.44,-9.2 -2.04,-15.2c-1.19,-11.77 0.09,-39.43 2.16,-47c0.12,-0.44 0.52,-2.15 0.89,-3.8c0.61,-2.73 1.88,-7.68 3.03,-11.8c0.75,-2.67 3.22,-10.32 3.74,-11.6c0.28,-0.66 1.28,-3.09 2.22,-5.4c2.38,-5.79 6.42,-14.2 8.51,-17.69c0.96,-1.6 2.4,-4.1 3.2,-5.55c0.8,-1.45 1.73,-2.87 2.07,-3.15c0.33,-0.28 0.61,-0.66 0.61,-0.84c0,-0.37 6.15,-9.16 8.37,-11.97c14.08,-17.76 29.31,-30.94 49.57,-42.9c1.72,-1.01 11.36,-5.82 15.06,-7.51c4.02,-1.84 13.36,-5.26 20.4,-7.48c1.1,-0.35 2.36,-0.77 2.8,-0.93c2.04,-0.77 12.49,-2.92 17.6,-3.63c12.53,-1.73 13.93,-1.85 20.11,-1.8l6.52,0.05l-0.02,35.19m12.76,37.22c25.32,3.36 50.09,17.65 63.97,36.93c6.31,8.78 10.02,15.6 13.52,24.86c0.89,2.35 1.3,3.56 2.53,7.4c4.42,13.77 3.94,44.44 -0.84,53.9c-0.19,0.38 -0.35,0.95 -0.35,1.28c0,0.33 -0.25,1.18 -0.56,1.91c-0.31,0.72 -1.06,2.57 -1.67,4.11c-1.71,4.34 -5.6,12 -7.68,15.15c-1.04,1.57 -1.96,3.03 -2.05,3.25c-0.5,1.24 -7.27,9.5 -10.65,13c-2.99,3.11 -6.47,6.11 -12.2,10.53c-4.99,3.85 -12.85,8.24 -20.59,11.49c-1.81,0.76 -10.63,3.58 -11.2,3.58c-0.33,0 -0.92,0.16 -1.3,0.36c-0.39,0.21 -2.14,0.65 -3.9,0.99c-1.76,0.35 -3.74,0.74 -4.4,0.88c-1.9,0.39 -13.38,1.06 -14.02,0.82c-0.5,-0.2 -0.58,-12.75 -0.58,-95.64l0,-95.41l3.67,0c2.01,0 5.75,0.28 8.3,0.61m-13.27,94.32c0.07,68.71 -0.02,94.55 -0.34,95.15c-0.58,1.08 -10.67,0.53 -16.36,-0.89c-0.77,-0.19 -2.93,-0.74 -4.8,-1.21c-1.87,-0.48 -3.94,-0.96 -4.6,-1.07c-0.66,-0.12 -1.38,-0.34 -1.6,-0.51c-0.22,-0.16 -1.39,-0.6 -2.6,-0.98c-1.21,-0.37 -2.56,-0.83 -3,-1.01c-0.44,-0.18 -1.79,-0.73 -3,-1.22c-2.57,-1.04 -7.51,-3.55 -9.8,-4.98c-0.88,-0.55 -1.96,-1.19 -2.4,-1.41c-1.72,-0.88 -3.66,-2.12 -5.04,-3.2c-0.79,-0.63 -2.68,-2.07 -4.2,-3.21c-4.94,-3.7 -14.03,-13.02 -17.67,-18.11c-0.51,-0.71 -1.22,-1.64 -1.59,-2.08c-2.48,-2.94 -8.6,-14.23 -10.31,-19c-1.59,-4.43 -3.64,-10.11 -3.91,-10.8c-0.12,-0.33 -0.53,-2.4 -0.91,-4.6c-0.37,-2.2 -0.81,-4.27 -0.98,-4.6c-2.12,-4.26 -0.63,-34.19 2.04,-41c0.17,-0.44 0.61,-1.79 0.97,-3c0.36,-1.21 0.8,-2.56 0.98,-3c0.18,-0.44 0.64,-1.61 1.02,-2.6c3.04,-7.86 10.35,-20.95 13.4,-24c0.33,-0.33 1.31,-1.5 2.18,-2.6c2.44,-3.1 12.23,-12.73 14.23,-14.01c0.98,-0.63 2.24,-1.54 2.79,-2.02c2.41,-2.12 9.4,-6.43 14,-8.64c7.72,-3.7 8.22,-3.93 8.71,-3.93c0.26,0 1.14,-0.29 1.98,-0.65c2.39,-1.04 2.87,-1.2 7.11,-2.29c2.2,-0.57 5.35,-1.24 7,-1.48c1.65,-0.24 4.17,-0.68 5.6,-0.98c1.43,-0.29 4.49,-0.5 6.8,-0.47l4.2,0.07l0.1,94.33" fill="#95f3c4" fill-rule="evenodd" id="path1"/>
   <path d="m0,0.4c0,0.27 66.93,0.4 200,0.4c133.07,0 200,-0.13 200,-0.4c0,-0.27 -66.93,-0.4 -200,-0.4c-133.07,0 -200,0.13 -200,0.4m219.85,368.6c-0.14,0.36 0,0.6 0.36,0.6c0.33,0 0.59,-0.27 0.59,-0.6c0,-0.33 -0.16,-0.6 -0.36,-0.6c-0.19,0 -0.46,0.27 -0.59,0.6" fill="#c4c4c4" fill-rule="evenodd" id="path3"/>
   <path d="m0,1.2c0,0.27 66.93,0.4 200,0.4c133.07,0 200,-0.13 200,-0.4c0,-0.27 -66.93,-0.4 -200,-0.4c-133.07,0 -200,0.13 -200,0.4m214.31,31.49c1.17,0.09 2.97,0.09 4,0c1.04,-0.08 0.09,-0.15 -2.11,-0.14c-2.2,0 -3.05,0.06 -1.89,0.14m-9.71,0.51l-2.4,0.27l2.2,0.02c1.21,0.01 3.28,-0.11 4.6,-0.27l2.4,-0.3l-2.2,0.01c-1.21,0 -3.28,0.12 -4.6,0.27m16.38,0.49c0.45,0.64 0.62,1.87 0.62,4.47c0,1.96 0.1,3.47 0.22,3.35c0.97,-0.97 -0.05,-8.71 -1.14,-8.71c-0.18,0 -0.05,0.4 0.3,0.89m-25.31,0.32c-1.17,0.17 -2.25,0.44 -2.4,0.6c-0.15,0.16 0.63,0.16 1.73,-0.01c1.1,-0.17 2.99,-0.44 4.2,-0.6c2.17,-0.29 2.18,-0.29 0.4,-0.3c-0.99,0 -2.76,0.14 -3.93,0.31m-5.87,1.19c-0.73,0.31 -0.71,0.34 0.2,0.34c0.55,0 1.36,-0.15 1.8,-0.34c0.73,-0.31 0.71,-0.34 -0.2,-0.34c-0.55,0 -1.36,0.15 -1.8,0.34m-6.6,0.54c0,0.33 -0.22,0.7 -0.5,0.82c-0.78,0.36 2.14,-0.05 3.7,-0.52c1.27,-0.38 1.29,-0.4 0.2,-0.27c-0.66,0.09 -1.63,0.29 -2.16,0.46c-0.66,0.2 -0.88,0.16 -0.7,-0.14c0.15,-0.24 0.09,-0.55 -0.13,-0.69c-0.23,-0.13 -0.41,0.02 -0.41,0.34m-2.8,1.46c-0.53,0.34 -0.53,0.39 0,0.39c0.33,0 0.87,-0.18 1.2,-0.39c0.53,-0.35 0.53,-0.39 0,-0.39c-0.33,0 -0.87,0.18 -1.2,0.39m-4.4,1.03c-0.9,0.51 -0.92,0.56 -0.18,0.56c0.45,0.01 0.99,-0.16 1.2,-0.36c0.21,-0.2 0.83,-0.44 1.38,-0.54c0.88,-0.16 0.85,-0.18 -0.2,-0.2c-0.66,0 -1.65,0.24 -2.2,0.54m-4.92,0.03c-0.38,0.37 0.07,0.94 0.74,0.94c0.32,0 0.58,-0.27 0.58,-0.6c0,-0.6 -0.84,-0.82 -1.32,-0.34m-0.48,1.74c-0.14,0.22 -0.73,0.42 -1.32,0.45c-0.82,0.05 -0.88,0.1 -0.26,0.22c0.45,0.09 1.35,-0.11 2,-0.45c0.73,-0.38 0.92,-0.62 0.5,-0.62c-0.37,0 -0.78,0.18 -0.92,0.4m-4.47,1.33c-1.9,0.7 -2.03,1.08 -0.19,0.53c0.88,-0.26 1.74,-0.61 1.9,-0.77c0.4,-0.4 -0.2,-0.32 -1.71,0.24m-12.93,1.67c0,0.92 0.72,1.34 1.31,0.76c0.28,-0.29 -0.56,-1.76 -1.01,-1.76c-0.16,0 -0.3,0.45 -0.3,1m4.8,1.2c-0.63,0.36 -0.77,0.58 -0.38,0.59c0.34,0 0.79,-0.16 1,-0.36c0.21,-0.2 0.83,-0.44 1.38,-0.54l1,-0.18l-1,-0.04c-0.55,-0.02 -1.45,0.22 -2,0.53m63.79,25.2c0,14.3 0.05,20.09 0.11,12.87c0.06,-7.22 0.06,-18.92 0,-26c-0.06,-7.08 -0.11,-1.17 -0.11,13.13m-66.77,-23.99c-0.42,0.33 -0.59,0.59 -0.37,0.59c0.22,0 0.75,-0.26 1.17,-0.59c0.43,-0.32 0.6,-0.58 0.38,-0.58c-0.22,0 -0.75,0.26 -1.18,0.58m-5.22,2.59c-0.14,0.22 -0.78,0.4 -1.42,0.4c-0.84,0 -1.18,0.19 -1.18,0.68c0,0.53 0.11,0.57 0.48,0.2c0.26,-0.26 0.76,-0.49 1.1,-0.49c0.71,-0.02 2.41,-1.19 1.72,-1.19c-0.25,0 -0.56,0.18 -0.7,0.4m-37.55,0.28c-0.34,0.34 0.21,1.32 0.75,1.32c0.85,0 1.02,-1.1 0.19,-1.32c-0.41,-0.11 -0.83,-0.11 -0.94,0m31.93,1.05c-0.34,0.87 0.23,1.56 0.92,1.13c0.39,-0.24 0.38,-0.48 -0.07,-1.08c-0.55,-0.74 -0.59,-0.75 -0.85,-0.05m-2.75,1.02c-0.12,0.2 0.18,0.47 0.67,0.62c0.84,0.23 0.81,0.29 -0.46,0.85c-0.75,0.32 -1.27,0.68 -1.16,0.8c0.12,0.11 0.96,-0.2 1.87,-0.69c1.65,-0.88 1.66,-0.9 0.76,-1.4c-1.1,-0.61 -1.4,-0.64 -1.68,-0.18m-2.23,1.44c0,0.36 0.23,0.49 0.6,0.36c0.33,-0.13 0.6,-0.4 0.6,-0.59c0,-0.2 -0.27,-0.36 -0.6,-0.36c-0.33,0 -0.6,0.26 -0.6,0.59m-1.99,1.43c0.36,0.67 0.28,0.95 -0.49,1.61c-0.51,0.43 0.03,0.21 1.19,-0.49c2.21,-1.33 2.21,-1.92 -0.02,-1.93c-1,-0.01 -1.07,0.08 -0.68,0.81m-9.15,3.16c0.09,0.26 0.29,0.47 0.45,0.45c0.48,-0.05 0.39,-0.6 -0.13,-0.77c-0.26,-0.09 -0.41,0.06 -0.32,0.32m-0.8,1.97c-0.4,0.25 -0.26,0.41 0.52,0.61c0.6,0.15 0.94,0.44 0.79,0.69c-0.15,0.24 0.15,0.2 0.68,-0.09c0.81,-0.45 0.84,-0.55 0.25,-0.67c-0.38,-0.08 -0.7,-0.31 -0.7,-0.52c0,-0.46 -0.82,-0.47 -1.54,-0.02m-3.14,4.29l-1.12,1.03l1.3,-0.86c1.19,-0.79 1.58,-1.21 1.12,-1.21c-0.1,0 -0.68,0.47 -1.3,1.04m-1.93,1.38c-0.14,0.23 -0.65,0.37 -1.12,0.3c-0.59,-0.08 -0.84,0.08 -0.78,0.48c0.15,1.09 -2.95,2.98 -3.22,1.96c-0.13,-0.52 -0.47,-0.78 -0.91,-0.69c-0.95,0.18 -1.12,0.91 -0.39,1.65c0.55,0.54 0.46,0.72 -0.82,1.74c-0.79,0.63 -1.96,1.64 -2.6,2.26c-0.65,0.61 -1.35,1 -1.56,0.87c-0.22,-0.13 -0.39,0.02 -0.39,0.34c0,0.75 -0.98,1.13 -1.51,0.6c-0.28,-0.28 -0.67,-0.15 -1.24,0.41c-0.46,0.47 -0.65,0.94 -0.43,1.07c0.21,0.13 0.49,-0.04 0.63,-0.38c0.13,-0.34 0.41,-0.52 0.62,-0.38c0.71,0.43 -1.74,2.58 -2.65,2.33c-0.63,-0.18 -0.68,-0.14 -0.24,0.17c0.46,0.32 0.25,0.69 -1.14,1.98c-2.75,2.55 -3.25,2.91 -3.65,2.66c-0.43,-0.26 -0.54,0.33 -0.13,0.73c0.28,0.29 1.84,-0.98 5.74,-4.7c2.91,-2.77 11.09,-9.61 14.3,-11.95c1.16,-0.85 2.1,-1.61 2.1,-1.7c0,-0.32 -0.35,-0.17 -0.61,0.25m-17.92,3.05c-0.39,0.38 -0.33,1.73 0.07,1.73c0.53,0 1.69,-1.44 1.39,-1.73c-0.34,-0.35 -1.12,-0.35 -1.46,0m8.73,1.33c-0.31,0.49 0.79,0.97 1.39,0.61c0.23,-0.15 0.32,-0.43 0.19,-0.64c-0.3,-0.49 -1.27,-0.47 -1.58,0.03m-14,4c-0.14,0.23 0.2,0.4 0.78,0.4c0.56,0 1.02,-0.18 1.02,-0.4c0,-0.22 -0.35,-0.4 -0.78,-0.4c-0.42,0 -0.88,0.18 -1.02,0.4m-3,12.23c0,0.71 0.86,0.59 1.11,-0.16c0.08,-0.26 -0.13,-0.47 -0.48,-0.47c-0.34,0 -0.63,0.29 -0.63,0.63m-1.12,3.87c-1.36,1.36 -1.77,1.58 -2.06,1.13c-0.3,-0.48 -0.46,-0.49 -1,-0.05c-0.53,0.45 -0.75,0.42 -1.36,-0.12c-0.9,-0.82 -1.26,-0.83 -1.26,-0.06c0,0.33 0.17,0.6 0.37,0.6c0.21,0 0.49,0.36 0.63,0.79c0.21,0.66 0.37,0.71 1,0.32c0.41,-0.26 0.66,-0.61 0.55,-0.79c-0.11,-0.18 -0.02,-0.32 0.2,-0.32c0.86,0 0.79,0.75 -0.16,1.85c-0.56,0.63 -1.5,1.71 -2.1,2.39c-0.6,0.68 -1.27,1.52 -1.49,1.86c-0.22,0.34 -0.82,1.22 -1.35,1.96c-0.59,0.84 -0.25,0.59 0.9,-0.66c1.02,-1.1 1.85,-2.11 1.85,-2.24c0,-0.13 0.4,-0.69 0.9,-1.24c0.5,-0.55 1.42,-1.61 2.06,-2.36c0.63,-0.75 1.88,-2.13 2.78,-3.06c0.89,-0.93 1.54,-1.7 1.44,-1.7c-0.11,0 -0.96,0.77 -1.9,1.7m-9.5,11.41c-0.23,0.16 -0.85,1.01 -1.37,1.89c-1.05,1.8 -0.7,1.53 0.93,-0.7c1.12,-1.53 1.19,-1.72 0.44,-1.19m136.26,1.62c-0.07,2.78 0.4,3.28 3.07,3.22l2.29,-0.04l-1.96,-0.33c-2.35,-0.4 -2.47,-0.5 -2.96,-2.78l-0.39,-1.8l-0.05,1.73m-139.54,3.14c-0.28,0.11 -0.5,0.37 -0.5,0.59c0,0.22 -0.49,1.05 -1.1,1.85c-0.61,0.8 -0.92,1.34 -0.69,1.2c0.39,-0.23 3.18,-3.95 2.91,-3.88c-0.06,0.02 -0.34,0.12 -0.62,0.24m147.3,0.51c1.21,0.33 5.28,0.55 4.97,0.27c-0.1,-0.08 -1.52,-0.25 -3.17,-0.37c-1.83,-0.13 -2.53,-0.09 -1.8,0.1m6.7,0.7c0.39,0.1 1.02,0.1 1.4,0c0.38,-0.1 0.07,-0.19 -0.7,-0.19c-0.77,0 -1.09,0.09 -0.7,0.19m13.3,0.52c-0.14,0.22 0.12,0.4 0.58,0.4c0.45,0 0.82,-0.18 0.82,-0.4c0,-0.22 -0.26,-0.4 -0.58,-0.4c-0.31,0 -0.68,0.18 -0.82,0.4m-40.4,0.61l-2.4,0.52l2.9,-0.22c2.84,-0.21 2.9,-0.19 2.93,0.74c0.02,0.6 0.11,0.73 0.25,0.35c0.12,-0.33 0.5,-0.91 0.83,-1.3c0.77,-0.88 -0.75,-0.91 -4.51,-0.09m10.49,93.73c0.06,59.66 -0.04,94.48 -0.28,94.86c-0.31,0.48 -1.31,0.59 -5.1,0.56c-3.96,-0.04 -4.3,0 -2.11,0.25c5.06,0.58 7.13,0.47 7.59,-0.38c0.48,-0.91 0.59,-189.07 0.11,-189.37c-0.16,-0.1 -0.26,42.23 -0.21,94.08m-3.29,-93.54c-0.32,0.52 0.8,0.96 1.62,0.65c0.81,-0.31 0.36,-1.05 -0.62,-1.05c-0.41,0 -0.86,0.18 -1,0.4m-13.7,1.08c0.38,0.1 1.01,0.1 1.4,0c0.39,-0.1 0.07,-0.19 -0.7,-0.19c-0.77,0 -1.08,0.09 -0.7,0.19m52.13,0.08c-0.13,0.2 0.03,0.45 0.33,0.57c0.59,0.23 1.04,-0.03 1.04,-0.6c0,-0.44 -1.1,-0.42 -1.37,0.03m-56.83,0.65c-2.11,0.7 -0.98,0.7 1.8,0.01c1.52,-0.38 1.83,-0.55 1,-0.54c-0.66,0 -1.92,0.24 -2.8,0.53m7.9,0.47c0.39,0.1 1.01,0.1 1.4,0c0.39,-0.1 0.07,-0.19 -0.7,-0.19c-0.77,0 -1.08,0.09 -0.7,0.19m47.25,0.72c0.63,0.33 1.45,0.6 1.82,0.6c0.37,0 0.92,0.23 1.23,0.5c0.48,0.42 0.48,0.4 0.03,-0.2c-0.29,-0.39 -0.85,-0.7 -1.26,-0.7c-0.39,0 -0.83,-0.18 -0.97,-0.4c-0.14,-0.22 -0.64,-0.4 -1.12,-0.4c-0.79,0.01 -0.76,0.07 0.27,0.6m-61.75,0.59c-0.33,0.19 -1.19,0.56 -1.9,0.82c-0.71,0.27 -1.3,0.64 -1.3,0.84c0,0.46 0.69,0.45 0.98,-0.02c0.13,-0.2 0.76,-0.48 1.4,-0.62c0.64,-0.15 1.38,-0.52 1.64,-0.84c0.52,-0.63 0.12,-0.72 -0.82,-0.18m67.4,1.42c0.88,0.36 1.87,0.81 2.2,1.01c1.73,1.06 2.89,1.62 3.04,1.48c0.09,-0.09 -0.34,-0.42 -0.94,-0.73c-0.6,-0.32 -1.28,-0.77 -1.5,-1.02c-0.22,-0.25 -0.85,-0.55 -1.4,-0.67c-0.55,-0.12 -1.45,-0.33 -2,-0.46c-0.55,-0.14 -0.28,0.04 0.6,0.39m-182.15,0.82c-0.49,0.57 -0.84,1.19 -0.77,1.38c0.06,0.2 0.53,-0.27 1.02,-1.03c1.08,-1.64 0.98,-1.77 -0.25,-0.35m190.62,1.23c-0.15,0.15 -0.06,0.51 0.18,0.8c0.35,0.43 0.25,0.54 -0.48,0.54c-0.9,0 -0.9,0.02 -0.15,0.59c0.9,0.68 1.54,0.79 1.18,0.21c-0.14,-0.22 0.03,-0.4 0.38,-0.4c0.4,0 0.62,-0.36 0.62,-1c0,-0.97 -1.05,-1.41 -1.73,-0.74m-83.72,1.02c-0.31,0.5 1.08,1.48 1.73,1.23c0.29,-0.11 0.52,-0.43 0.52,-0.71c0,-0.61 -1.92,-1.05 -2.25,-0.52m-8,2.48c-4.1,2.22 -4.17,2.29 -3.23,3.24c0.78,0.8 0.78,0.8 0.59,-0.27c-0.14,-0.8 0,-1.12 0.55,-1.26c0.41,-0.11 0.74,-0.02 0.74,0.19c0,0.21 0.17,0.28 0.38,0.15c0.21,-0.13 0.28,-0.5 0.16,-0.82c-0.32,-0.84 0.67,-0.72 1.86,0.21c1,0.78 2.4,1.07 2.4,0.5c0,-0.16 -0.54,-0.66 -1.2,-1.1l-1.19,-0.8l0.89,-0.69c1.31,-1.01 0.81,-0.84 -1.95,0.65m14.45,-0.56c0.72,0.8 1.8,1.09 1.8,0.48c0,-0.58 -0.95,-1.28 -1.74,-1.28c-0.76,0 -0.76,0.03 -0.06,0.8m78.6,-0.26c0,0.15 3.6,2.49 5.15,3.34c0.84,0.46 0.89,0.45 0.45,-0.08c-0.27,-0.33 -0.65,-0.6 -0.85,-0.6c-0.19,0 -1.23,-0.63 -2.3,-1.4c-1.79,-1.29 -2.45,-1.63 -2.45,-1.26m-198.4,3.71c0,0.45 -0.24,0.58 -0.8,0.43c-0.99,-0.26 -1.35,0.27 -1.03,1.53l0.24,0.97l1.42,-1.39c0.78,-0.76 1.31,-1.56 1.17,-1.78c-0.38,-0.63 -1,-0.48 -1,0.24m2.2,-0.09c-0.57,0.68 -2.62,4.76 -2.47,4.91c0.07,0.07 0.79,-1.08 1.6,-2.54c1.41,-2.54 1.73,-3.41 0.87,-2.37m203.14,-0.01c-0.36,0.41 0.12,0.93 2.2,2.44c1.47,1.06 2.31,1.53 1.89,1.05c-0.43,-0.48 -1.42,-1.26 -2.2,-1.75c-1.09,-0.67 -1.26,-0.91 -0.73,-1.01c0.39,-0.08 0.7,-0.39 0.7,-0.71c0,-0.71 -1.24,-0.72 -1.86,-0.02m2.44,0.68c-0.14,0.23 -0.2,0.47 -0.12,0.52c2.56,1.86 4.36,1.91 2.53,0.08c-1.09,-1.09 -1.97,-1.31 -2.41,-0.6m-107.78,1.17c0,0.22 0.27,0.4 0.6,0.4c0.33,0 0.6,-0.18 0.6,-0.4c0,-0.22 -0.27,-0.4 -0.6,-0.4c-0.33,0 -0.6,0.18 -0.6,0.4m-3.4,0.89c-1.96,1.41 -3.85,3.11 -3.48,3.11c0.2,0 0.7,-0.38 1.12,-0.84c0.42,-0.47 1.44,-1.19 2.26,-1.61c0.82,-0.42 1.5,-0.94 1.5,-1.16c0,-0.51 0,-0.51 -1.4,0.5m115,1.11c0,0.22 0.37,0.4 0.82,0.4c0.46,0 0.72,-0.18 0.58,-0.4c-0.14,-0.22 -0.51,-0.4 -0.82,-0.4c-0.32,0 -0.58,0.18 -0.58,0.4m-0.39,1.35c0.54,0.52 1.07,0.88 1.16,0.79c0.22,-0.19 -1.43,-1.74 -1.85,-1.74c-0.16,0 0.14,0.43 0.69,0.95m2.79,0.03c0,0.32 -0.28,0.74 -0.62,0.93c-0.57,0.32 -0.57,0.4 0,0.88c0.54,0.45 0.6,0.43 0.39,-0.13c-0.19,-0.48 -0.03,-0.66 0.55,-0.66c0.61,0 0.75,-0.2 0.6,-0.8c-0.25,-0.92 -0.92,-1.08 -0.92,-0.22m-123,1.63l-1.2,1l1.3,-0.71c0.71,-0.38 1.3,-0.84 1.3,-1c0,-0.44 -0.08,-0.4 -1.4,0.71m8.07,-0.34c-0.55,0.54 -0.24,0.93 0.73,0.93c0.62,0 1,-0.23 1,-0.6c0,-0.6 -1.23,-0.84 -1.73,-0.33m116.36,0.49c-0.12,0.19 0.14,0.44 0.57,0.56c0.52,0.13 0.8,0.01 0.8,-0.36c0,-0.62 -1.02,-0.77 -1.37,-0.2m-217.32,0.54c-0.21,0.28 -0.7,1.31 -1.08,2.3c-0.39,0.99 -1.11,2.7 -1.61,3.8c-1.07,2.36 -1.86,4.69 -1.67,4.89c0.08,0.07 0.36,-0.46 0.64,-1.18c0.58,-1.56 0.86,-2.21 2.13,-5.11c0.53,-1.21 1.11,-2.65 1.27,-3.2c0.17,-0.55 0.49,-1.22 0.71,-1.5c0.22,-0.28 0.31,-0.5 0.2,-0.5c-0.11,0 -0.38,0.22 -0.59,0.5m216.29,-0.05c0.02,0.32 10,10.35 10,10.04c0,-0.18 -1.62,-1.94 -3.6,-3.91c-2.77,-2.76 -3.54,-3.76 -3.37,-4.38c0.18,-0.65 0.14,-0.69 -0.21,-0.2c-0.39,0.53 -0.49,0.53 -0.93,0c-0.55,-0.68 -1.89,-1.78 -1.89,-1.55m-130.03,5.5c-2.76,2.78 -5.82,6.04 -6.8,7.25c-0.97,1.21 -2.11,2.51 -2.53,2.9c-0.42,0.39 -0.57,0.7 -0.33,0.7c0.23,0 1.17,-0.94 2.09,-2.1c1.92,-2.41 2.98,-3 3.58,-1.98c0.37,0.64 0.4,0.64 0.41,-0.02c0,-0.39 -0.18,-0.7 -0.42,-0.7c-0.24,0 -0.37,-0.31 -0.29,-0.7c0.07,-0.39 0.48,-0.7 0.9,-0.7c0.48,0 0.87,-0.38 1.04,-1.05c0.26,-0.95 5.77,-6.77 7.13,-7.53c0.3,-0.17 0.48,-0.49 0.4,-0.71c-0.08,-0.22 -2.41,1.87 -5.18,4.64m136.65,-1.18c-0.28,0.44 0.36,0.92 0.72,0.55c0.39,-0.38 0.31,-0.92 -0.12,-0.92c-0.2,0 -0.48,0.17 -0.6,0.37m-135.01,1.13c0.01,0.88 0.78,1.46 0.78,0.6c0.01,-0.5 -0.17,-0.9 -0.39,-0.9c-0.22,0 -0.4,0.14 -0.39,0.3m137.04,1.5c0.13,0.33 0.4,0.6 0.59,0.6c0.2,0 0.36,-0.27 0.36,-0.6c0,-0.33 -0.26,-0.6 -0.59,-0.6c-0.36,0 -0.49,0.23 -0.36,0.6m1.07,1.5c0.1,0.27 0.38,0.46 0.63,0.4c0.25,-0.05 0.45,0.17 0.45,0.5c0,0.33 0.18,0.6 0.4,0.6c0.62,0 0.47,-0.61 -0.33,-1.34c-0.87,-0.78 -1.41,-0.86 -1.15,-0.16m0.68,2.33c0,0.13 0.72,1.03 1.59,2c0.88,0.97 1.6,1.89 1.6,2.04c0.01,0.15 0.24,0.51 0.53,0.8c0.28,0.29 0.82,0.98 1.2,1.52c0.53,0.77 0.68,0.83 0.68,0.3c0,-0.38 -0.13,-0.69 -0.3,-0.69c-0.17,0 -0.75,-0.68 -1.3,-1.5c-1.04,-1.58 -3.99,-4.87 -4,-4.47m4.26,2.85c-0.28,1.09 0.34,1.88 0.98,1.24c0.52,-0.52 0.34,-1.79 -0.29,-2c-0.25,-0.08 -0.55,0.26 -0.69,0.76m-151.57,0.72c-1.17,1.36 -0.41,2.36 0.84,1.11c0.39,-0.39 0.66,-0.39 1.27,0c1.5,0.94 1.73,0.06 0.3,-1.13c-1.16,-0.97 -1.57,-0.96 -2.41,0.02m-85.43,0.62c-0.66,1.47 -0.54,1.78 0.19,0.44c0.34,-0.62 0.54,-1.21 0.45,-1.3c-0.1,-0.09 -0.38,0.3 -0.64,0.86m-1.61,3.85c-0.03,0.36 -0.15,0.99 -0.28,1.4c-0.22,0.69 -0.21,0.69 0.23,0.02c0.25,-0.39 0.37,-1.02 0.27,-1.4c-0.16,-0.62 -0.18,-0.62 -0.22,-0.02m240.69,0.64c0.99,1.39 1.27,1.57 1.25,0.79c-0.01,-0.28 -0.5,-0.85 -1.09,-1.29l-1.07,-0.78l0.91,1.28m-159.94,1.69c-0.9,1.26 -0.68,1.71 0.24,0.5c0.5,-0.65 0.54,-0.64 0.55,0.18c0,0.48 -0.17,0.98 -0.39,1.12c-0.6,0.37 -0.48,1 0.19,1c0.99,0 1.43,-1.34 0.83,-2.5c-0.3,-0.58 -0.44,-1.15 -0.32,-1.27c0.13,-0.13 0.13,-0.23 -0.01,-0.23c-0.13,0 -0.62,0.54 -1.09,1.2m161.2,0.38c0,0.23 0.14,0.42 0.3,0.42c0.17,0 0.55,0.55 0.85,1.22c0.29,0.68 0.61,1.16 0.69,1.07c0.22,-0.22 -1,-2.62 -1.47,-2.91c-0.2,-0.12 -0.37,-0.04 -0.37,0.2m-243.56,1.59c-0.38,0.24 -0.42,0.53 -0.13,1.05c0.36,0.65 0.42,0.64 0.68,-0.18c0.34,-1.07 0.18,-1.32 -0.55,-0.87m80.41,1.31c-0.51,0.89 -0.73,1.49 -0.49,1.34c0.5,-0.3 1.77,-2.62 1.56,-2.83c-0.07,-0.08 -0.55,0.59 -1.07,1.49m165.66,-0.03c-0.32,0.32 -0.06,1.03 0.98,2.66c0.78,1.23 1.85,3.32 2.38,4.66c0.53,1.33 1.12,2.79 1.32,3.23c0.19,0.44 0.44,1.07 0.55,1.4c0.13,0.38 0.21,0.29 0.23,-0.27c0.02,-0.47 0.15,-1.19 0.3,-1.6c0.24,-0.61 0.18,-0.65 -0.33,-0.24c-0.52,0.42 -0.67,0.28 -1.04,-0.89c-0.35,-1.16 -0.32,-1.4 0.17,-1.4c0.33,0 0.53,-0.29 0.46,-0.67c-0.16,-0.84 -1,-1.15 -1.25,-0.45c-0.1,0.28 -0.11,-0.01 -0.02,-0.65c0.08,-0.65 0.42,-1.47 0.74,-1.83c0.71,-0.78 0.8,-2.13 0.14,-1.91c-0.26,0.08 -0.78,0.73 -1.15,1.43l-0.69,1.29l-1.24,-1.9c-0.79,-1.22 -1.09,-2.04 -0.85,-2.29c0.47,-0.46 0.51,-1.02 0.07,-1.02c-0.18,0 -0.52,0.2 -0.77,0.45m-165.82,2.59c-0.36,0.36 0.14,1.39 0.55,1.13c0.2,-0.12 0.36,-0.48 0.36,-0.79c0,-0.59 -0.48,-0.77 -0.91,-0.34m2.98,3.81c0.07,0.53 0.31,0.91 0.53,0.85c0.59,-0.15 0.49,-1.41 -0.13,-1.61c-0.37,-0.12 -0.49,0.12 -0.4,0.76m-86.02,3.71c-0.25,0.99 -0.43,2.12 -0.42,2.52c0.02,0.4 0.29,-0.34 0.61,-1.64c0.31,-1.3 0.5,-2.43 0.42,-2.52c-0.09,-0.08 -0.36,0.66 -0.61,1.64m76.82,2.06c-0.67,1.47 -0.55,1.78 0.18,0.45c0.34,-0.63 0.54,-1.22 0.45,-1.31c-0.1,-0.09 -0.38,0.3 -0.63,0.86m177.53,0.9c0,0.18 0.16,0.49 0.35,0.7c0.2,0.21 0.58,1.1 0.87,1.98c0.28,0.88 0.58,1.39 0.67,1.12c0.09,-0.26 0.42,-0.38 0.74,-0.25c0.31,0.12 0.57,0.04 0.57,-0.18c0,-0.22 -0.35,-0.49 -0.78,-0.6c-0.42,-0.11 -1.04,-0.85 -1.38,-1.65c-0.56,-1.34 -1.04,-1.86 -1.04,-1.12m-255.52,2.91c-0.29,1.41 -0.72,3.32 -0.95,4.24c-0.23,0.92 -0.35,1.88 -0.26,2.13c0.08,0.25 0.38,-0.68 0.66,-2.07c0.28,-1.39 0.7,-3.18 0.93,-3.96c0.23,-0.79 0.36,-1.77 0.28,-2.18c-0.08,-0.41 -0.38,0.42 -0.66,1.84m76.74,-0.34c-0.27,0.72 -0.65,1.62 -0.85,2.01c-0.48,0.89 -0.47,1.37 0,0.88c0.42,-0.43 1.66,-3.88 1.47,-4.08c-0.08,-0.07 -0.35,0.47 -0.62,1.19m-1.57,4.18c-0.03,0.25 -0.17,0.79 -0.31,1.2c-0.2,0.57 -0.15,0.63 0.24,0.27c0.27,-0.25 0.41,-0.79 0.3,-1.2c-0.1,-0.41 -0.21,-0.53 -0.23,-0.27m1.24,2.13c0,0.77 0.09,1.09 0.19,0.7c0.1,-0.39 0.1,-1.01 0,-1.4c-0.1,-0.38 -0.19,-0.07 -0.19,0.7m-2.04,0.68c-0.03,0.48 -0.23,0.98 -0.45,1.12c-0.22,0.14 -0.4,0.46 -0.4,0.71c0,0.26 0.28,0.07 0.63,-0.43c0.34,-0.49 0.54,-1.21 0.44,-1.59c-0.13,-0.52 -0.19,-0.48 -0.22,0.19m187.95,0.3c0,0.31 0.18,0.68 0.4,0.82c0.22,0.14 0.4,-0.12 0.4,-0.58c0,-0.45 -0.18,-0.82 -0.4,-0.82c-0.22,0 -0.4,0.26 -0.4,0.58m-2.63,1.22c0.16,0.44 0.46,1.7 0.66,2.8c0.2,1.1 0.54,2.63 0.75,3.4l0.4,1.4l-0.19,-1.4c-0.52,-3.99 -0.99,-6.16 -1.43,-6.56c-0.36,-0.34 -0.41,-0.25 -0.19,0.36m-262.02,1.05c0.14,0.69 0.27,1.72 0.3,2.3c0.04,1.03 0.05,1.02 0.35,-0.15c0.55,-2.16 0.46,-3.4 -0.25,-3.4c-0.51,0 -0.6,0.26 -0.4,1.25m-0.02,5.95c0,1.43 0.07,2.02 0.16,1.3c0.09,-0.72 0.09,-1.89 0,-2.6c-0.09,-0.71 -0.16,-0.13 -0.16,1.3m74.29,2.08c-0.27,1.47 -0.42,2.91 -0.33,3.2c0.1,0.28 0.41,-0.68 0.69,-2.16c0.27,-1.47 0.42,-2.91 0.33,-3.2c-0.1,-0.28 -0.41,0.69 -0.69,2.16m189.82,1.79c0.12,0.92 0.38,2.9 0.57,4.4l0.35,2.73l-0.17,-3.2c-0.1,-1.76 -0.36,-3.74 -0.57,-4.4c-0.36,-1.08 -0.38,-1.04 -0.18,0.47m-264.54,0.33c0,0.88 0.09,1.19 0.18,0.69c0.1,-0.49 0.1,-1.21 0,-1.59c-0.11,-0.39 -0.18,0.02 -0.18,0.9m-0.35,6c0,2.42 0.07,3.36 0.15,2.08c0.08,-1.27 0.07,-3.25 -0.01,-4.39c-0.08,-1.15 -0.14,-0.11 -0.14,2.31m74.36,-1c0,0.99 0.08,1.4 0.17,0.9c0.1,-0.49 0.1,-1.3 0,-1.8c-0.09,-0.5 -0.17,-0.09 -0.17,0.9m191.65,7.8c0,3.08 0.06,4.29 0.14,2.68c0.07,-1.6 0.07,-4.12 0,-5.6c-0.08,-1.47 -0.14,-0.16 -0.14,2.92m-192.01,1.4c0,2.31 0.06,3.26 0.14,2.1c0.09,-1.15 0.09,-3.05 0,-4.2c-0.08,-1.16 -0.14,-0.21 -0.14,2.1m-73.99,6.6c0,2.86 0.06,3.98 0.14,2.48c0.07,-1.49 0.07,-3.83 0,-5.2c-0.08,-1.36 -0.14,-0.14 -0.14,2.72m265.68,-0.56c-0.1,0.31 -0.28,2.09 -0.41,3.96c-0.13,1.87 -0.32,4.03 -0.43,4.8l-0.19,1.4l0.4,-1.2c0.22,-0.66 0.55,-3 0.73,-5.2c0.32,-3.83 0.29,-4.96 -0.1,-3.76m-191.35,2.76c0,0.77 0.09,1.08 0.19,0.7c0.1,-0.38 0.1,-1.01 0,-1.4c-0.1,-0.39 -0.19,-0.07 -0.19,0.7m-73.81,7.2c0.12,2.31 0.29,4.27 0.37,4.37c0.27,0.3 0.09,-4.53 -0.25,-6.57c-0.23,-1.38 -0.27,-0.69 -0.12,2.2m74.3,-2.6c0.08,0.88 0.34,2.23 0.58,3l0.43,1.4l-0.2,-1.4c-0.11,-0.77 -0.36,-2.12 -0.57,-3l-0.38,-1.6l0.14,1.6m189.47,4.6c-0.03,0.55 -0.15,1.45 -0.27,2l-0.2,1l0.43,-0.99c0.23,-0.54 0.35,-1.44 0.27,-2l-0.16,-1.01l-0.07,1m-187.65,5.89c0,0.25 0.18,0.57 0.4,0.71c0.22,0.14 0.42,0.64 0.45,1.12c0.03,0.67 0.09,0.71 0.22,0.19c0.1,-0.38 -0.1,-1.1 -0.44,-1.59c-0.35,-0.5 -0.63,-0.69 -0.63,-0.43m-74.71,2.51c0,0.77 0.09,1.09 0.19,0.7c0.1,-0.39 0.1,-1.01 0,-1.4c-0.1,-0.38 -0.19,-0.07 -0.19,0.7m259.63,1.72c-0.48,1.36 -0.81,2.53 -0.73,2.6c0.08,0.08 0.37,-0.5 0.65,-1.29c0.29,-0.79 0.76,-1.43 1.05,-1.43c0.42,0 0.39,-1.64 -0.06,-2.27c-0.02,-0.05 -0.44,1.03 -0.91,2.39m-258.83,2.68c0,0.77 0.09,1.08 0.19,0.7c0.1,-0.38 0.1,-1.01 0,-1.4c-0.1,-0.39 -0.19,-0.07 -0.19,0.7m76.64,0.44c0.41,0.97 0.85,2.03 0.97,2.36c0.13,0.33 0.2,0.02 0.16,-0.7c-0.03,-0.71 -0.19,-1.3 -0.36,-1.3c-0.16,0 -0.3,-0.25 -0.3,-0.55c0,-0.3 -0.28,-0.78 -0.61,-1.06c-0.49,-0.4 -0.46,-0.15 0.14,1.25m1.98,-0.67c-0.11,0.57 -0.04,1.03 0.16,1.03c0.56,0 0.88,-1.21 0.44,-1.65c-0.27,-0.27 -0.47,-0.07 -0.6,0.62m-78.13,3.43c0.08,0.99 0.32,2.25 0.55,2.8c0.33,0.79 0.37,0.54 0.19,-1.2c-0.28,-2.73 -0.93,-4.13 -0.74,-1.6m255.92,0.68c-0.27,0.6 -0.5,1.38 -0.5,1.74c0,0.36 -0.46,1.53 -1.03,2.59c-0.63,1.2 -0.78,1.73 -0.4,1.41c0.35,-0.28 0.63,-0.74 0.63,-1.02c0,-0.28 0.27,-0.73 0.6,-1c0.33,-0.27 0.6,-0.98 0.6,-1.57c0,-0.59 0.2,-1.27 0.44,-1.51c0.24,-0.24 0.37,-0.72 0.3,-1.07c-0.1,-0.46 -0.28,-0.34 -0.64,0.43m-178.5,-0.2c0,0.39 1.61,4.46 1.85,4.67c0.15,0.14 0.17,-0.04 0.04,-0.4c-0.12,-0.36 -0.02,-0.88 0.24,-1.16c0.37,-0.4 0.33,-0.46 -0.19,-0.28c-0.5,0.18 -0.72,-0.09 -0.92,-1.12c-0.19,-1.04 -1.02,-2.42 -1.02,-1.71m2,5.28c0,0.09 0.46,0.94 1.03,1.9c1.09,1.84 1.1,1.81 0.19,-0.56c-0.47,-1.22 -1.22,-2.04 -1.22,-1.34m172.44,4.23c-0.71,1.33 -1.2,2.41 -1.1,2.41c0.29,0 2.73,-4.46 2.55,-4.65c-0.1,-0.09 -0.75,0.92 -1.45,2.24m-167.64,-0.31c-0.01,0.28 -0.12,0.92 -0.25,1.42c-0.18,0.66 -0.07,0.9 0.4,0.9c0.73,0 0.94,-2.17 0.25,-2.6c-0.22,-0.14 -0.4,-0.01 -0.4,0.28m-2.25,0.92c1.04,2.01 1.44,2.52 1.43,1.8c0,-0.33 -0.47,-1.14 -1.03,-1.8l-1.01,-1.2l0.61,1.2m-79.46,1.64c-0.36,0.36 0.14,1.39 0.55,1.13c0.2,-0.12 0.36,0.09 0.36,0.47c0,0.38 0.1,0.59 0.22,0.47c0.29,-0.29 -0.23,-2.31 -0.6,-2.31c-0.16,0 -0.39,0.11 -0.53,0.24m249.71,0.76c0,0.6 0.17,0.94 0.4,0.8c0.22,-0.14 0.4,-0.5 0.4,-0.8c0,-0.3 -0.18,-0.66 -0.4,-0.8c-0.23,-0.14 -0.4,0.2 -0.4,0.8m-167.52,2.2c0.68,1.11 1.32,1.93 1.42,1.83c0.18,-0.18 -2.2,-3.83 -2.5,-3.83c-0.09,0 0.39,0.9 1.08,2m162.98,2.06c-0.83,1.33 -1.33,2.31 -1.11,2.17c0.22,-0.13 0.52,-0.05 0.66,0.19c0.18,0.29 0.52,0.2 1.03,-0.26c0.91,-0.82 0.98,-1.36 0.16,-1.36c-0.33,0 -0.6,0.21 -0.6,0.47c0,0.25 -0.1,0.36 -0.23,0.23c-0.12,-0.12 0.25,-0.98 0.83,-1.9c0.58,-0.92 0.99,-1.74 0.92,-1.82c-0.08,-0.08 -0.83,0.95 -1.66,2.28m-160.91,1.44c0.37,0.71 0.82,1.3 0.99,1.3c0.18,0 0.57,0.46 0.88,1.03c0.49,0.93 0.58,0.96 0.84,0.3c0.45,-1.16 0.41,-1.25 -0.86,-1.53c-0.66,-0.15 -1.2,-0.5 -1.2,-0.78c0,-0.29 -0.3,-0.77 -0.66,-1.07c-0.61,-0.51 -0.61,-0.45 0.01,0.75m167.65,0.9c0.14,0.22 0.51,0.4 0.82,0.4c0.32,0 0.58,-0.18 0.58,-0.4c0,-0.22 -0.37,-0.4 -0.82,-0.4c-0.46,0 -0.72,0.18 -0.58,0.4m-250.35,1.4c0.13,0.33 0.39,0.5 0.59,0.37c0.57,-0.35 0.42,-0.97 -0.23,-0.97c-0.35,0 -0.49,0.24 -0.36,0.6m1.8,0.4c-0.01,0.44 0.24,1.25 0.55,1.8c0.71,1.25 0.71,0.65 0,-1.2c-0.35,-0.92 -0.55,-1.12 -0.55,-0.6m83.99,0.27c-0.35,0.9 1.73,3.89 2.31,3.31c0.11,-0.11 -0.2,-0.48 -0.7,-0.83c-0.7,-0.49 -0.84,-0.87 -0.65,-1.75c0.31,-1.4 -0.48,-1.99 -0.96,-0.73m153.43,2.01c-1.07,1.3 -1.61,2.16 -1.2,1.91c0.81,-0.52 3.53,-3.94 3.29,-4.14c-0.09,-0.07 -1.03,0.94 -2.09,2.23m-149.06,2.42c0,0.73 0.08,0.79 0.39,0.3c0.5,-0.78 0.5,-1.2 0,-1.2c-0.22,0 -0.4,0.41 -0.39,0.9m152.79,-0.1c0,0.44 0.18,0.8 0.4,0.8c0.22,0 0.4,-0.36 0.4,-0.8c0,-0.44 -0.18,-0.8 -0.4,-0.8c-0.22,0 -0.4,0.36 -0.4,0.8m-154.18,0.48c1.81,2.14 3.86,4.38 3.73,4.06c-0.36,-0.84 -3.4,-4.51 -3.93,-4.73c-0.37,-0.16 -0.3,0.08 0.2,0.67m2.18,1.12c0,0.22 0.28,0.4 0.62,0.4c0.35,0 0.52,0.18 0.38,0.4c-0.14,0.22 0.03,0.4 0.38,0.4c0.82,0 0.79,-0.38 -0.08,-1.04c-0.84,-0.64 -1.3,-0.7 -1.3,-0.16m8.03,1.15c-0.31,0.58 -0.22,0.91 0.38,1.46c0.44,0.39 0.79,0.97 0.79,1.28c0,0.3 0.18,0.45 0.4,0.31c0.57,-0.35 0.5,-0.85 -0.25,-1.6c-0.49,-0.49 -0.54,-0.77 -0.2,-1.11c0.62,-0.62 0.56,-1.09 -0.14,-1.09c-0.32,0 -0.76,0.34 -0.98,0.75m135.81,0.25c-0.36,0.55 -0.6,1 -0.52,1c0.07,0 0.53,-0.45 1.01,-1c0.47,-0.55 0.71,-1 0.51,-1c-0.19,0 -0.64,0.45 -1,1m-141.58,2.31c0.13,0.27 1.16,1.3 2.29,2.29l2.05,1.8l-1.6,-1.83c-1.71,-1.96 -3.16,-3.16 -2.74,-2.26m137.33,2.58c-1.42,1.47 -2.2,2.36 -1.73,1.97c0.56,-0.47 0.95,-0.56 1.12,-0.29c0.39,0.63 1.02,0.52 1.02,-0.17c0,-0.33 -0.21,-0.6 -0.48,-0.6c-0.26,0 0.13,-0.62 0.87,-1.39c1.23,-1.27 1.38,-1.33 1.86,-0.7c0.49,0.65 0.52,0.65 0.54,-0.01c0,-0.38 -0.18,-0.7 -0.41,-0.7c-0.24,0 -0.32,-0.18 -0.18,-0.4c0.54,-0.87 -0.14,-0.28 -2.61,2.29m3.45,0.58c-0.84,1.19 -0.81,1.63 0.06,1.16c0.38,-0.2 1.03,-0.48 1.43,-0.6c0.41,-0.13 0.66,-0.45 0.57,-0.73c-0.29,-0.87 -1.4,-0.78 -2.06,0.17m-134.87,2.63c0.87,0.93 1.67,1.6 1.78,1.49c0.11,-0.11 -0.01,-0.41 -0.27,-0.67c-0.35,-0.35 -0.34,-0.6 0.03,-1.05c0.41,-0.49 0.34,-0.54 -0.44,-0.29c-0.64,0.2 -1.2,0.07 -1.8,-0.43c-0.48,-0.4 -0.16,0.03 0.7,0.95m126.43,1.22c-1.1,1.05 -2.63,2.42 -3.4,3.04c-1.22,1 -1.24,1.05 -0.2,0.42c0.66,-0.4 1.4,-0.93 1.66,-1.18c0.25,-0.25 0.97,-0.9 1.6,-1.45c1.22,-1.06 2.77,-2.76 2.5,-2.74c-0.09,0 -1.06,0.86 -2.16,1.91m-216.99,0.16c-0.01,0.37 0.46,1.18 1.04,1.8l1.06,1.12l-0.64,-1.2c-1.13,-2.12 -1.46,-2.5 -1.46,-1.72m96.54,2.12c-0.13,0.33 -0.44,0.49 -0.69,0.37c-0.78,-0.38 2.25,2.23 4.01,3.46c0.92,0.65 1.85,1.17 2.05,1.17c0.21,0 0.61,0.27 0.88,0.6c0.27,0.33 0.67,0.6 0.88,0.6c0.6,0 -1.78,-1.86 -2.78,-2.17c-0.49,-0.16 -0.9,-0.45 -0.9,-0.66c0,-0.2 -0.18,-0.37 -0.4,-0.37c-0.22,0 -0.73,-0.31 -1.13,-0.7c-0.41,-0.38 -1.08,-0.92 -1.5,-1.18c-0.74,-0.47 -0.74,-0.49 0.13,-0.75c1.02,-0.3 1.22,-0.97 0.29,-0.97c-0.34,0 -0.72,0.27 -0.84,0.6m123.06,0.42c0.01,1.03 0.07,1.09 0.44,0.44c0.31,-0.53 0.31,-0.86 -0.01,-1.18c-0.32,-0.32 -0.44,-0.12 -0.43,0.74m-217.51,1.28c0.15,0.61 0.05,0.9 -0.34,0.9c-0.31,0 -0.56,-0.22 -0.57,-0.5c0,-0.33 -0.13,-0.3 -0.38,0.1c-0.53,0.83 0.15,1.36 1.09,0.85c0.44,-0.23 0.93,-0.29 1.1,-0.14c0.33,0.31 -0.57,-1.58 -0.91,-1.91c-0.12,-0.11 -0.11,0.2 0.01,0.7m208.29,1.21c-1.78,1.38 -3.57,3.09 -2.79,2.67c0.33,-0.18 1.41,-0.96 2.4,-1.74c0.99,-0.78 1.88,-1.46 1.97,-1.53c0.09,-0.06 0.08,-0.19 -0.02,-0.29c-0.09,-0.1 -0.8,0.3 -1.56,0.89m-98.79,2.04c0,0.98 2.96,1.93 3.98,1.28c0.45,-0.29 0.31,-0.43 -0.6,-0.63c-0.65,-0.13 -1.49,-0.42 -1.87,-0.62c-0.88,-0.48 -1.51,-0.49 -1.51,-0.03m94.23,1.4c-4.57,2.67 -5.66,3.68 -1.51,1.4c2.58,-1.42 2.68,-1.49 2.45,-1.7c-0.1,-0.09 -0.52,0.05 -0.94,0.3m-101.08,0.35c0.3,0.38 0.72,0.7 0.94,0.7c0.21,0 0.95,0.4 1.65,0.88c0.69,0.49 1.04,0.61 0.77,0.27c-0.38,-0.47 -0.38,-0.72 -0.02,-1.08c0.36,-0.36 0.36,-0.58 0,-0.94c-0.35,-0.35 -0.52,-0.32 -0.7,0.16c-0.26,0.67 -1.51,0.55 -2.59,-0.25c-0.52,-0.38 -0.53,-0.35 -0.05,0.26m-98.75,1.58c0,0.54 1.23,3.09 1.59,3.32c0.53,0.32 0.53,1.8 0.01,1.8c-0.22,0 -0.4,0.55 -0.4,1.22c0,0.67 -0.36,1.6 -0.8,2.07c-1.01,1.09 -1.01,1.51 -0.01,1.51c0.51,0 0.88,-0.35 1.05,-1c0.13,-0.55 0.52,-1 0.85,-1c0.44,0 0.55,-0.32 0.43,-1.2c-0.1,-0.66 -0.03,-1.2 0.14,-1.2c0.18,0 -0.32,-1.22 -1.12,-2.7c-1.48,-2.78 -1.74,-3.19 -1.74,-2.82m109.94,4.33c0.96,0.43 1.95,0.78 2.2,0.78c0.66,-0.02 -2.62,-1.56 -3.34,-1.57c-0.33,0 0.19,0.35 1.14,0.79m77.84,0.23c-1.66,1.06 -1.54,1.11 0.35,0.17c0.92,-0.46 1.19,-0.47 1.45,-0.04c0.2,0.31 0.42,0.36 0.57,0.12c0.65,-1.07 -0.84,-1.22 -2.37,-0.25m-184.58,1.69c0,0.18 0.48,0.77 1.06,1.3l1.07,0.97l-0.94,-1.3c-0.98,-1.35 -1.19,-1.52 -1.19,-0.97m179.6,0.47c-0.99,0.42 -1.57,0.76 -1.29,0.78c0.65,0.03 3.29,-1.06 3.29,-1.36c0,-0.28 0.13,-0.31 -2,0.58m4.17,-0.2c-0.43,0.31 -1.18,0.58 -1.67,0.59c-0.96,0.01 -1.23,0.63 -0.4,0.91c0.79,0.27 1.92,-0.15 1.64,-0.6c-0.26,-0.41 1.13,-0.27 2.96,0.31c0.87,0.27 1.38,-0.69 0.6,-1.13c-1,-0.56 -2.46,-0.6 -3.13,-0.08m-9.37,2.05c-2.61,0.99 -2.24,1.01 1.3,0.07c1.04,-0.28 1.9,-0.64 1.9,-0.81c0,-0.44 -0.27,-0.37 -3.2,0.74m3.88,-0.39c-0.45,0.45 0.14,0.94 1.12,0.94c0.52,0 1.05,-0.16 1.17,-0.36c0.38,-0.61 -1.73,-1.15 -2.29,-0.58m-56.68,0.53c-0.87,0.23 -0.72,0.33 1.09,0.77c1.15,0.28 2.32,0.42 2.6,0.31c0.28,-0.11 0.07,-0.22 -0.46,-0.24c-0.53,-0.02 -1.25,-0.27 -1.6,-0.57c-0.39,-0.33 -1.02,-0.43 -1.63,-0.27m-119.6,0.36c0,0.19 0.25,0.56 0.56,0.81c0.3,0.26 0.78,1 1.04,1.65c0.28,0.66 0.65,1.19 0.85,1.19c0.19,0 -0.21,-0.9 -0.89,-2c-1.21,-1.97 -1.56,-2.34 -1.56,-1.65m166.8,1.07c-1.02,0.39 -1.17,0.54 -0.55,0.56c0.47,0.01 1.37,-0.25 2,-0.58c1.39,-0.72 0.49,-0.71 -1.45,0.02m-167.41,0.2c-0.38,0.61 0.14,1.01 0.65,0.5c0.29,-0.29 0.3,-0.51 0.02,-0.68c-0.22,-0.14 -0.53,-0.06 -0.67,0.18m125.01,-0.02c0.54,0.35 3.96,0.6 3.57,0.26c-0.09,-0.08 -1.07,-0.26 -2.17,-0.4c-1.36,-0.17 -1.81,-0.13 -1.4,0.14m38.4,0.8c-0.79,0.25 -0.83,0.32 -0.2,0.32c0.44,0 1.25,-0.14 1.8,-0.32c0.79,-0.25 0.83,-0.32 0.2,-0.32c-0.44,0 -1.25,0.14 -1.8,0.32m-3.66,0.59c-0.1,0.11 -1.17,0.36 -2.37,0.56c-1.66,0.27 -1.84,0.36 -0.77,0.37c1.41,0.02 5.15,-1 3.97,-1.08c-0.35,-0.02 -0.72,0.05 -0.83,0.15m-155.71,2.51c0.39,0.6 0.95,1.34 1.25,1.63c0.95,0.96 1.36,1.99 0.84,2.16c-0.28,0.09 -0.35,0.46 -0.18,0.9c0.22,0.57 0.4,0.63 0.75,0.28c0.61,-0.61 1.11,-0.6 1.11,0.03c0,0.28 0.36,0.73 0.79,1c0.44,0.28 -0.48,-1.21 -2.05,-3.3c-2.72,-3.62 -4.05,-5.06 -2.51,-2.7m145.67,-0.82c0.5,0.1 1.22,0.1 1.61,-0.01c0.38,-0.1 -0.03,-0.17 -0.91,-0.17c-0.88,0.01 -1.19,0.09 -0.7,0.18m-6.05,1.02c-0.3,1.13 -0.32,2.5 -0.03,2.22c0.12,-0.12 0.31,-0.73 0.42,-1.34c0.11,-0.62 0.29,-1.27 0.4,-1.45c0.12,-0.18 0.04,-0.33 -0.17,-0.33c-0.21,0 -0.48,0.4 -0.62,0.9m1.22,-0.23c-0.58,0.58 -0.22,1.67 0.77,2.32c0.76,0.5 1.17,0.56 1.48,0.25c0.32,-0.32 0.2,-0.44 -0.44,-0.44c-0.9,0 -1.22,-0.94 -0.47,-1.4c0.22,-0.14 0.3,-0.42 0.17,-0.63c-0.26,-0.43 -1.13,-0.49 -1.51,-0.1m-139.87,5.93c0,0.33 0.18,0.6 0.4,0.6c0.22,0 0.4,-0.27 0.4,-0.6c0,-0.33 -0.18,-0.6 -0.4,-0.6c-0.22,0 -0.4,0.27 -0.4,0.6m138.59,31c0,17.27 0.05,24.33 0.11,15.7c0.06,-8.63 0.06,-22.77 0,-31.4c-0.06,-8.63 -0.11,-1.57 -0.11,15.7m-133.55,-29c0.41,0.66 0.86,1.29 1,1.4c0.14,0.11 1.23,1.37 2.42,2.8c3.27,3.93 4.2,4.95 8.42,9.25c2.13,2.17 4.01,3.95 4.17,3.95c0.16,0 -1.52,-1.85 -3.72,-4.1c-3.75,-3.82 -6.18,-6.42 -7.13,-7.6c-1.07,-1.34 -4.82,-5.77 -5.32,-6.3c-0.32,-0.33 -0.25,-0.06 0.16,0.6m-5.83,2.4c0,0.83 0.71,1.47 1.44,1.3c0.72,-0.17 0.71,-0.19 -0.05,-0.51c-0.44,-0.18 -0.93,-0.52 -1.09,-0.76c-0.18,-0.26 -0.3,-0.27 -0.3,-0.03m12.55,8.43c0.13,0.35 0.24,0.71 0.24,0.8c0,0.1 0.44,0.17 0.97,0.17c0.53,0 1.04,0.22 1.14,0.5c0.1,0.28 0.32,0.37 0.5,0.2c0.38,-0.35 -1.78,-2.3 -2.55,-2.3c-0.33,0 -0.45,0.25 -0.3,0.63m3.84,3.97c0.27,0.33 0.66,0.6 0.85,0.6c0.19,0 0.35,-0.27 0.35,-0.6c0,-0.35 -0.36,-0.6 -0.85,-0.6c-0.71,0 -0.77,0.1 -0.35,0.6m-2,2.58c0,0.42 0.2,0.9 0.45,1.05c0.63,0.39 1.19,-0.7 0.68,-1.32c-0.62,-0.74 -1.13,-0.63 -1.13,0.27m6.41,1.06c-0.01,0.72 1.47,1.87 1.78,1.38c0.14,-0.23 -0.07,-0.55 -0.46,-0.69c-0.4,-0.15 -0.86,-0.46 -1.02,-0.7c-0.21,-0.3 -0.3,-0.3 -0.3,0.01m-5.21,2.16c0,0.22 0.35,0.4 0.78,0.4c0.42,0 0.88,-0.18 1.02,-0.4c0.14,-0.23 -0.2,-0.4 -0.78,-0.4c-0.56,0 -1.02,0.18 -1.02,0.4m9.6,-0.18c0,0.41 2.81,3.11 3.01,2.9c0.11,-0.11 -0.53,-0.86 -1.41,-1.67c-0.88,-0.82 -1.6,-1.37 -1.6,-1.23m5.14,4.53c0.96,0.91 2.13,1.93 2.6,2.27c0.74,0.52 0.78,0.66 0.26,1.02c-0.47,0.33 -0.42,0.36 0.26,0.17c0.49,-0.13 1.09,0 1.4,0.3c0.72,0.72 2.74,2.03 2.74,1.78c0,-0.1 -1.31,-1.18 -2.9,-2.39c-1.6,-1.22 -3.26,-2.54 -3.71,-2.95c-0.44,-0.41 -1.16,-1 -1.6,-1.3c-0.43,-0.31 -0.01,0.19 0.95,1.1m8.16,6.28c0.87,1.04 0.89,1.42 0.05,1.1c-0.51,-0.2 -0.59,-0.07 -0.37,0.61c0.16,0.51 0.1,0.86 -0.15,0.86c-0.24,0 -0.43,0.27 -0.43,0.6c0,0.33 0.27,0.6 0.6,0.6c0.33,0 0.6,-0.15 0.6,-0.34c0,-0.18 0.46,-0.54 1.02,-0.8c1.19,-0.54 1.82,-0.6 1.03,-0.1c-0.92,0.58 -0.07,1.35 1.2,1.09c0.64,-0.13 1.15,-0.06 1.15,0.16c0,0.22 0.3,0.39 0.66,0.39c0.37,0 -0.39,-0.75 -1.69,-1.66c-1.31,-0.92 -2.82,-2.04 -3.37,-2.5l-0.99,-0.84l0.69,0.83m-8.5,4.77c0,0.38 0.38,0.6 1.05,0.6c0.89,0 0.97,-0.09 0.55,-0.6c-0.27,-0.33 -0.75,-0.6 -1.05,-0.6c-0.3,0 -0.55,0.27 -0.55,0.6m15.74,0.35c0.41,0.33 0.63,0.77 0.5,0.99c-0.14,0.22 0.11,0.3 0.59,0.17c0.88,-0.23 0.71,-0.46 -1.03,-1.34c-0.76,-0.4 -0.77,-0.39 -0.06,0.18m4.85,3.03c0.2,0.32 5.89,3.64 6.81,3.96c0.82,0.29 -1.29,-1.08 -4.12,-2.67c-1.6,-0.91 -2.82,-1.49 -2.69,-1.29m7.41,4.22c0,0.27 3.25,1.88 3.43,1.7c0.08,-0.08 -0.65,-0.54 -1.64,-1.02c-0.98,-0.48 -1.79,-0.79 -1.79,-0.68m3.75,2.39c-0.33,0.86 0.1,1.23 0.77,0.68c0.4,-0.34 0.76,-0.29 1.43,0.18c0.5,0.35 0.98,0.55 1.07,0.46c0.09,-0.09 -0.55,-0.57 -1.43,-1.07c-1.41,-0.79 -1.62,-0.82 -1.84,-0.25m0.75,2.49c0.39,0.1 1.01,0.1 1.4,0c0.38,-0.1 0.07,-0.19 -0.7,-0.19c-0.77,0 -1.09,0.09 -0.7,0.19m8.48,1.5c0.42,0.34 1.05,0.61 1.4,0.59c0.54,-0.03 0.54,-0.06 0.02,-0.26c-0.33,-0.12 -0.96,-0.38 -1.4,-0.59c-0.79,-0.36 -0.79,-0.35 -0.02,0.26m-9.29,1.48c0.2,0.62 1.1,0.73 1.13,0.14c0.01,-0.22 -0.28,-0.46 -0.65,-0.54c-0.41,-0.08 -0.59,0.07 -0.48,0.4m25.15,4.58c0.25,0.31 0.71,0.56 1.01,0.56c0.3,0 0.55,0.27 0.55,0.6c0,0.63 0.41,0.69 1.95,0.25c0.8,-0.22 0.58,-0.39 -1.51,-1.11c-1.74,-0.6 -2.33,-0.69 -2,-0.3m5.76,1.76c1.2,0.51 2.2,0.51 1.4,0c-0.33,-0.21 -0.96,-0.38 -1.4,-0.37l-0.8,0.03l0.8,0.34m-7.96,0.29c-0.48,0.49 -0.22,0.91 0.56,0.91c0.44,0 0.8,-0.16 0.8,-0.36c0,-0.45 -1.04,-0.87 -1.36,-0.55m12.96,0.89c0.33,0.22 0.95,0.41 1.37,0.41c1.02,0.01 0.7,-0.22 -0.77,-0.55c-0.88,-0.19 -1.04,-0.16 -0.6,0.14m-19.76,0.36c-0.14,0.22 -0.06,0.52 0.18,0.67c0.62,0.38 1.01,-0.14 0.5,-0.65c-0.29,-0.29 -0.51,-0.3 -0.68,-0.02m24.16,0.66c0.55,0.31 1.45,0.57 2,0.57c0.79,0 0.67,-0.12 -0.6,-0.58c-2.03,-0.73 -2.69,-0.73 -1.4,0.01m4.4,0.98c1,0.34 3.48,0.55 3.17,0.27c-0.09,-0.08 -1.07,-0.25 -2.17,-0.38c-1.35,-0.15 -1.67,-0.12 -1,0.11m32.56,0.99c-0.24,0.79 -0.28,1.43 -0.09,1.43c0.5,0 0.82,-0.98 0.66,-2.01c-0.1,-0.68 -0.22,-0.57 -0.57,0.58m-23.06,0.51c0.49,0.1 1.3,0.1 1.8,0c0.5,-0.09 0.09,-0.17 -0.9,-0.17c-0.99,0 -1.4,0.08 -0.9,0.17m5.8,0.81c0.61,0.09 1.6,0.09 2.2,0c0.6,-0.09 0.11,-0.17 -1.1,-0.17c-1.21,0 -1.71,0.08 -1.1,0.17m7.5,0.53c1.33,0.31 7.99,0.12 8.36,-0.24c0.09,-0.1 -2.06,-0.16 -4.79,-0.14c-3.58,0.03 -4.58,0.14 -3.57,0.38m-5.9,0.25c-0.84,0.33 -0.13,0.93 1.12,0.93c0.78,0 1.18,-0.2 1.18,-0.6c0,-0.59 -1.23,-0.77 -2.3,-0.33m5.9,1.28c0,0.82 1.17,1.16 3.8,1.12c1.54,-0.02 2.31,-0.1 1.7,-0.18c-0.62,-0.08 -1.1,-0.39 -1.1,-0.72c0,-0.43 -0.56,-0.57 -2.2,-0.57c-1.21,0 -2.2,0.16 -2.2,0.35m10.23,2.18c-0.99,0.73 -0.48,1.47 1.02,1.47c1.02,0 1.19,-0.14 1.08,-0.9c-0.16,-1.07 -1.07,-1.33 -2.1,-0.57" fill="#fbf4f8" fill-rule="evenodd" id="path4"/>
  </g>
 </g>
</svg>