<?xml version="1.0" encoding="utf-8"?>
<svg version="1.1" xmlns="http://www.w3.org/2000/svg" viewBox="0 0 97.28 45">
  <g transform="matrix(0.02233, 0, 0, 0.02233, -0.000093, 0.000333)">
    <path d="M 3450.36 1355.82 C 3452.29 1356.3 3452.29 1356.3 3454.26 1356.8 C 3448.88 1366.94 3443.08 1374.93 3435.14 1383.18 C 3432.99 1385.45 3430.85 1387.72 3428.71 1389.99 C 3427.63 1391.12 3426.55 1392.26 3425.44 1393.43 C 3421.48 1397.62 3417.61 1401.89 3413.74 1406.17 C 3399.59 1421.78 3385.06 1436.9 3369.03 1450.6 C 3362.42 1456.43 3356.05 1462.5 3349.64 1468.55 C 3339.19 1478.38 3328.56 1487.69 3317.35 1496.65 C 3312.16 1500.88 3307.21 1505.29 3302.26 1509.8 C 3292.98 1518.24 3283.37 1526.19 3273.61 1534.07 C 3266.8 1539.61 3260.04 1545.21 3253.26 1550.8 C 3241.63 1560.39 3229.97 1569.95 3218.27 1579.45 C 3208.19 1587.87 3208.29 1596.41 3207.01 1608.98 C 3205 1634.8 3205.97 1660.93 3206.26 1686.8 C 3208.27 1685.15 3210.28 1683.51 3212.35 1681.81 C 3225.41 1671.15 3238.47 1660.52 3251.89 1650.3 C 3263.56 1641.38 3274.94 1632.15 3286.26 1622.8 C 3289.85 1619.88 3293.43 1616.96 3297.01 1614.05 C 3306.3 1606.46 3315.46 1598.73 3324.6 1590.96 C 3331.34 1585.24 3338.14 1579.61 3345.01 1574.05 C 3354.93 1565.97 3364.61 1557.65 3374.25 1549.24 C 3375.98 1547.73 3375.98 1547.73 3377.74 1546.2 C 3379.65 1544.52 3379.65 1544.52 3381.6 1542.82 C 3385.2 1539.71 3388.83 1536.64 3392.48 1533.58 C 3408.62 1520.01 3423.85 1505.79 3438.68 1490.8 C 3442.17 1487.26 3445.69 1483.74 3449.2 1480.23 C 3460.64 1468.75 3471.79 1457.18 3482.26 1444.8 C 3484.28 1442.49 3486.3 1440.18 3488.33 1437.87 C 3499.99 1424.51 3511.53 1411.05 3522.88 1397.43 C 3524.07 1396.01 3525.26 1394.59 3526.49 1393.13 C 3533.47 1384.66 3539.16 1376.18 3544.63 1366.68 C 3550.55 1357.23 3550.55 1357.23 3558.11 1355.34 C 3563.72 1355.3 3568.77 1355.71 3574.26 1356.8 C 3563.96 1385.13 3539.73 1410.22 3520.38 1432.93 C 3519.53 1433.93 3518.67 1434.94 3517.79 1435.98 C 3498.97 1457.8 3478.94 1478.45 3458.55 1498.77 C 3454.73 1502.58 3450.92 1506.4 3447.11 1510.22 C 3435.16 1522.17 3423.18 1533.88 3410.26 1544.8 C 3407.04 1547.71 3403.84 1550.62 3400.64 1553.55 C 3391.2 1562.06 3381.45 1570.12 3371.57 1578.11 C 3364.98 1583.47 3358.44 1588.89 3351.89 1594.3 C 3338.04 1605.71 3324.15 1617.05 3310.22 1628.34 C 3304.82 1632.72 3299.43 1637.1 3294.06 1641.5 C 3279.79 1653.16 3265.41 1664.64 3250.76 1675.82 C 3242.3 1682.28 3233.95 1688.87 3225.6 1695.46 C 3216.45 1702.68 3216.45 1702.68 3211.96 1705.5 C 3207.9 1708.49 3207.9 1708.49 3207.22 1713.16 C 3207.21 1714.85 3207.19 1716.55 3207.17 1718.29 C 3207.13 1720.21 3207.09 1722.13 3207.05 1724.11 C 3207.05 1726.18 3207.05 1728.25 3207.04 1730.38 C 3207.01 1732.5 3206.98 1734.63 3206.94 1736.81 C 3206.85 1743.6 3206.8 1750.38 3206.76 1757.17 C 3206.71 1761.77 3206.65 1766.37 3206.58 1770.96 C 3206.43 1782.24 3206.33 1793.52 3206.26 1804.8 C 3261.03 1768.89 3261.03 1768.89 3314.26 1730.8 C 3315.65 1729.75 3317.04 1728.71 3318.47 1727.64 C 3338.31 1712.75 3357.65 1697.31 3376.83 1681.59 C 3381.4 1677.87 3386.02 1674.21 3390.64 1670.55 C 3401.55 1661.84 3412.18 1652.81 3422.8 1643.75 C 3426.32 1640.75 3429.85 1637.75 3433.37 1634.76 C 3446.25 1623.79 3458.87 1612.63 3471.31 1601.16 C 3476.85 1596.28 3482.61 1591.98 3488.75 1587.89 C 3492.66 1584.73 3492.66 1584.73 3495.83 1579.27 C 3500.28 1572.76 3504.99 1567.64 3510.61 1562.13 C 3511.59 1561.16 3512.56 1560.19 3513.57 1559.2 C 3516.66 1556.14 3519.77 1553.09 3522.88 1550.05 C 3535.82 1537.35 3548.57 1524.67 3560.26 1510.8 C 3562.01 1508.78 3563.77 1506.76 3565.52 1504.74 C 3579.28 1488.68 3592.29 1472.13 3604.96 1455.2 C 3607.12 1452.32 3609.29 1449.45 3611.46 1446.58 C 3630 1422.09 3645.81 1396.27 3661.24 1369.73 C 3664.04 1365.16 3666.76 1360.87 3670.26 1356.8 C 3675.22 1356.02 3675.22 1356.02 3680.63 1356.3 C 3683.33 1356.41 3683.33 1356.41 3686.09 1356.52 C 3687.47 1356.61 3688.84 1356.71 3690.26 1356.8 C 3679.55 1414.93 3616.41 1479.52 3577.34 1521.35 C 3572.64 1526.39 3568.07 1531.51 3563.51 1536.67 C 3549.81 1551.93 3535.42 1566.92 3519.76 1580.17 C 3512.23 1586.58 3505.89 1593.79 3499.35 1601.18 C 3484.53 1617.54 3468.93 1632.72 3451.63 1646.44 C 3445.93 1651.07 3440.53 1655.94 3435.14 1660.92 C 3426.99 1668.4 3418.66 1675.45 3409.97 1682.28 C 3404.16 1686.88 3398.41 1691.56 3392.68 1696.26 C 3379.29 1707.21 3365.76 1717.87 3351.85 1728.13 C 3347.57 1731.31 3343.33 1734.52 3339.08 1737.73 C 3319.12 1752.81 3298.97 1767.55 3278.44 1781.86 C 3274.13 1784.89 3269.85 1787.96 3265.58 1791.05 C 3247.16 1804.31 3228.6 1816.63 3208.26 1826.79 C 3204.62 1847.12 3206.03 1868.84 3206.14 1889.42 C 3206.15 1892.67 3206.16 1895.93 3206.17 1899.18 C 3206.19 1907.05 3206.22 1914.92 3206.26 1922.79 C 3237.24 1904.61 3268.12 1886.35 3298.26 1866.79 C 3299.51 1865.99 3300.75 1865.18 3302.03 1864.35 C 3310.84 1858.6 3319.57 1852.73 3328.26 1846.79 C 3329.98 1845.62 3331.71 1844.44 3333.48 1843.23 C 3358.97 1825.78 3383.95 1807.85 3408.26 1788.8 C 3410.66 1786.93 3413.05 1785.07 3415.45 1783.21 C 3432.04 1770.29 3448.37 1757.04 3464.65 1743.74 C 3467.83 1741.15 3471.01 1738.57 3474.19 1735.99 C 3495.49 1718.69 3516.3 1700.85 3536.42 1682.19 C 3540.27 1678.63 3544.14 1675.1 3548.03 1671.59 C 3569.85 1651.86 3591.46 1631.46 3610.26 1608.8 C 3613.67 1604.71 3617.08 1600.63 3620.51 1596.55 C 3621.44 1595.44 3622.37 1594.33 3623.32 1593.19 C 3630.38 1584.85 3637.75 1576.86 3645.26 1568.92 C 3656.96 1556.51 3667.52 1543.43 3677.87 1529.88 C 3681.17 1525.62 3684.59 1521.47 3688.01 1517.3 C 3727.5 1467.85 3760 1413.31 3788.26 1356.8 C 3815.97 1356.8 3843.7 1356.8 3872.25 1356.8 C 3831.64 1449.64 3777.32 1531.72 3711.16 1608.39 C 3704.88 1615.67 3698.78 1623.05 3692.76 1630.55 C 3686.41 1638.37 3679.79 1645.58 3672.49 1652.51 C 3668.81 1656.23 3665.43 1660.04 3662.03 1664.01 C 3654.27 1672.91 3646.06 1681.28 3637.7 1689.62 C 3636.16 1691.16 3634.62 1692.7 3633.04 1694.29 C 3629.8 1697.53 3626.56 1700.76 3623.32 1704 C 3618.4 1708.91 3613.49 1713.83 3608.57 1718.75 C 3605.41 1721.92 3602.24 1725.08 3599.08 1728.24 C 3597.63 1729.69 3596.18 1731.15 3594.69 1732.64 C 3586.61 1740.68 3578.35 1748.38 3569.71 1755.82 C 3564.92 1759.95 3560.28 1764.25 3555.63 1768.55 C 3546.66 1776.73 3537.45 1784.49 3528 1792.11 C 3522.9 1796.27 3517.88 1800.5 3512.89 1804.77 C 3498.33 1817.2 3483.41 1829.09 3468.26 1840.79 C 3466.95 1841.81 3465.64 1842.83 3464.29 1843.87 C 3419.08 1878.91 3372.59 1912.81 3323.76 1942.63 C 3318.29 1946.01 3312.9 1949.53 3307.51 1953.04 C 3278.51 1971.77 3249.26 1990.36 3218.89 2006.79 C 3217.39 2007.62 3215.9 2008.45 3214.36 2009.31 C 3205.36 2014.04 3198.66 2016.2 3188.26 2014.79 C 3182.46 2012.35 3182.46 2012.35 3176.39 2008.67 C 3175.24 2007.98 3174.09 2007.29 3172.9 2006.58 C 3168.66 2004.02 3164.47 2001.4 3160.26 1998.79 C 3156.47 1996.47 3152.69 1994.15 3148.9 1991.82 C 3126.99 1978.32 3105.39 1964.5 3084.36 1949.67 C 3079.84 1946.49 3075.3 1943.34 3070.76 1940.2 C 3049.23 1925.26 3028.03 1909.93 3007 1894.3 C 3002.22 1890.76 2997.43 1887.24 2992.63 1883.72 C 2972.95 1869.29 2953.44 1854.64 2934.1 1839.75 C 2930.52 1836.99 2926.94 1834.24 2923.35 1831.5 C 2899.15 1812.96 2875.26 1794.06 2851.64 1774.79 C 2845.76 1770 2839.84 1765.26 2833.89 1760.55 C 2830.68 1757.97 2827.47 1755.38 2824.27 1752.8 C 2822.29 1751.21 2820.3 1749.62 2818.26 1747.99 C 2801.81 1734.61 2787.55 1719.74 2773.29 1704.07 C 2769.44 1699.9 2765.45 1695.9 2761.39 1691.92 C 2755.35 1685.96 2749.75 1679.74 2744.21 1673.3 C 2740.34 1668.88 2736.37 1664.55 2732.37 1660.24 C 2722.83 1649.96 2713.73 1639.46 2704.93 1628.54 C 2698.7 1620.86 2692.29 1613.33 2685.88 1605.8 C 2683.33 1602.81 2680.8 1599.8 2678.27 1596.8 C 2676.74 1594.98 2675.2 1593.16 2673.62 1591.28 C 2670.27 1586.8 2670.27 1586.8 2670.27 1582.8 C 2702.61 1582.8 2734.95 1582.8 2768.27 1582.8 C 2771.57 1588.74 2774.87 1594.68 2778.27 1600.8 C 2782.21 1605.6 2786.08 1610 2790.39 1614.42 C 2792.24 1616.35 2792.24 1616.35 2794.12 1618.32 C 2798.81 1623.18 2803.53 1627.99 2808.27 1632.8 C 2809.32 1633.86 2810.37 1634.93 2811.46 1636.03 C 2820 1644.69 2828.56 1653.31 2837.14 1661.92 C 2838.36 1663.15 2839.58 1664.37 2840.84 1665.63 C 2858.39 1683.26 2858.39 1683.26 2876.87 1699.89 C 2882.38 1704.6 2887.61 1709.59 2892.89 1714.55 C 2902.48 1723.47 2912.32 1731.92 2922.53 1740.12 C 2929.1 1745.47 2935.49 1751 2941.89 1756.55 C 3012.89 1817.77 3092.56 1870.52 3174.11 1916.44 C 3178.88 1919.14 3183.59 1921.94 3188.26 1924.79 C 3188.14 1923.2 3188.02 1921.61 3187.9 1919.97 C 3187.64 1916.36 3187.64 1916.36 3187.39 1912.67 C 3187.28 1911.32 3187.18 1909.96 3187.07 1908.57 C 3186.45 1899.5 3186.24 1890.53 3186.39 1881.45 C 3186.48 1875.92 3186.48 1870.39 3186.48 1864.86 C 3186.5 1862.08 3186.56 1859.3 3186.66 1856.53 C 3186.98 1847.56 3186.83 1839.43 3184.26 1830.79 C 3177.83 1824.17 3170.53 1820.73 3162.26 1816.8 C 3159.13 1814.79 3156.04 1812.72 3153 1810.58 C 3151.53 1809.58 3150.06 1808.58 3148.55 1807.54 C 3147.05 1806.51 3145.56 1805.48 3144.01 1804.42 C 3141.57 1802.74 3141.57 1802.74 3139.08 1801.03 C 3134.14 1797.62 3129.2 1794.21 3124.26 1790.8 C 3122.82 1789.8 3121.39 1788.81 3119.9 1787.79 C 3063.26 1748.64 3008.18 1705.74 2957.29 1659.33 C 2954.51 1656.82 2951.71 1654.32 2948.87 1651.87 C 2938.63 1643.07 2928.98 1633.8 2919.45 1624.24 C 2917.9 1622.7 2916.36 1621.16 2914.77 1619.57 C 2911.54 1616.34 2908.3 1613.1 2905.07 1609.86 C 2900.16 1604.94 2895.23 1600.02 2890.31 1595.11 C 2887.15 1591.95 2883.98 1588.78 2880.82 1585.62 C 2879.37 1584.17 2877.92 1582.72 2876.42 1581.23 C 2869.55 1574.32 2862.79 1567.33 2856.23 1560.12 C 2855.08 1558.86 2853.93 1557.59 2852.75 1556.29 C 2850.27 1552.8 2850.27 1552.8 2850.27 1546.8 C 2854.79 1543.95 2857.49 1542.76 2862.89 1543.05 C 2870.2 1545.43 2873.71 1549.4 2879.02 1554.92 C 2881.7 1557.68 2881.7 1557.68 2884.44 1560.49 C 2888.61 1564.93 2892.6 1569.49 2896.56 1574.11 C 2905.21 1584.04 2914.46 1593.36 2923.77 1602.67 C 2926.74 1605.65 2929.7 1608.65 2932.66 1611.65 C 2943.7 1622.74 2955.01 1633.06 2967.3 1642.79 C 2972.47 1646.96 2977.37 1651.32 2982.27 1655.8 C 2992.62 1665.21 3003.37 1674.03 3014.27 1682.8 C 3016.49 1684.6 3018.7 1686.4 3020.92 1688.21 C 3041.61 1704.98 3062.89 1720.92 3084.26 1736.8 C 3085.86 1737.99 3087.46 1739.18 3089.11 1740.41 C 3107 1753.73 3125.01 1766.85 3143.26 1779.67 C 3145.63 1781.34 3145.63 1781.34 3148.04 1783.03 C 3159.89 1791.31 3172.02 1799.11 3184.26 1806.8 C 3184.85 1793.92 3185.15 1781.06 3185.28 1768.17 C 3185.35 1763.8 3185.48 1759.43 3185.68 1755.07 C 3187.35 1730.46 3187.35 1730.46 3178.96 1708.09 C 3171.03 1699.8 3162.03 1693.43 3152.33 1687.39 C 3146.73 1683.82 3141.82 1679.72 3136.76 1675.42 C 3135.06 1674.03 3133.36 1672.64 3131.61 1671.21 C 3124.33 1665.2 3117.13 1659.08 3109.93 1652.97 C 3103.1 1647.17 3096.21 1641.45 3089.26 1635.8 C 3080.06 1628.3 3070.98 1620.66 3061.94 1612.96 C 3055.13 1607.18 3048.23 1601.52 3041.26 1595.92 C 3031.76 1588.19 3022.73 1580.03 3013.8 1571.65 C 3008.13 1566.33 3002.39 1561.15 2996.51 1556.07 C 2987.93 1548.6 2979.81 1540.71 2971.77 1532.67 C 2970.38 1531.31 2968.99 1529.95 2967.56 1528.54 C 2960.07 1521.08 2953.75 1513.85 2948.27 1504.8 C 2954.27 1500.8 2954.27 1500.8 2959.67 1500.67 C 2969.24 1503.76 2974.74 1509.8 2981.77 1516.8 C 2984.62 1519.56 2987.48 1522.33 2990.34 1525.09 C 2991.71 1526.42 2993.08 1527.76 2994.49 1529.14 C 3018.11 1552.05 3043.9 1572.84 3069.03 1594.06 C 3072.32 1596.85 3075.61 1599.64 3078.9 1602.43 C 3090.72 1612.47 3102.61 1622.38 3114.64 1632.17 C 3120.9 1637.32 3127.09 1642.55 3133.26 1647.8 C 3147.47 1659.86 3161.68 1671.9 3176.6 1683.07 C 3178.04 1684.14 3179.48 1685.22 3180.96 1686.32 C 3182.05 1687.14 3183.14 1687.96 3184.26 1688.8 C 3184.64 1674.99 3184.81 1661.2 3184.84 1647.39 C 3184.87 1642.7 3184.95 1638.02 3185.08 1633.33 C 3186.9 1605.41 3186.9 1605.41 3176.69 1580.55 C 3170.49 1574.29 3163.64 1569.6 3156.26 1564.8 C 3152.48 1561.71 3148.72 1558.59 3145.01 1555.42 C 3141.44 1552.54 3137.85 1549.67 3134.26 1546.8 C 3121.5 1536.51 3109.01 1526.04 3096.9 1514.99 C 3092.91 1511.39 3088.86 1507.9 3084.76 1504.42 C 3076.7 1497.37 3069.03 1489.93 3061.39 1482.42 C 3060.13 1481.21 3058.88 1480 3057.58 1478.75 C 3055.82 1477 3055.82 1477 3054.02 1475.21 C 3052.96 1474.17 3051.9 1473.13 3050.81 1472.05 C 3047.91 1468.35 3047.08 1465.39 3046.26 1460.8 C 3051.19 1458.8 3054.71 1458.17 3059.72 1460.19 C 3070.55 1466.56 3079.43 1475.08 3088.58 1483.6 C 3093.85 1488.42 3099.22 1492.95 3104.76 1497.42 C 3115.11 1505.78 3125.14 1514.46 3135.16 1523.2 C 3142.5 1529.59 3149.93 1535.83 3157.51 1541.92 C 3170.32 1552.27 3182.27 1563.53 3194.26 1574.8 C 3205.89 1566.42 3216.74 1557.35 3227.57 1547.99 C 3234.72 1541.82 3241.93 1535.75 3249.26 1529.8 C 3261.26 1520.05 3272.97 1509.97 3284.67 1499.88 C 3288.17 1496.87 3291.69 1493.89 3295.22 1490.92 C 3311.48 1477.15 3327.12 1462.83 3342.62 1448.21 C 3347.25 1443.87 3351.92 1439.59 3356.6 1435.31 C 3371.26 1421.89 3385.85 1408.34 3398.89 1393.3 C 3399.98 1392.05 3401.08 1390.8 3402.21 1389.52 C 3404.51 1386.83 3406.8 1384.13 3409.03 1381.38 C 3431.95 1353.24 3431.95 1353.24 3450.36 1355.82 Z" />
    <path d="M 2886.27 582.808 C 2919.27 582.808 2952.27 582.808 2986.27 582.808 C 2988.56 621.868 2988.56 621.868 2988.49 639.398 C 2988.49 641.388 2988.49 643.388 2988.49 645.438 C 2988.49 651.878 2988.48 658.318 2988.46 664.758 C 2988.46 669.278 2988.45 673.798 2988.45 678.328 C 2988.45 690.118 2988.43 701.918 2988.4 713.708 C 2988.38 725.788 2988.37 737.868 2988.36 749.948 C 2988.34 773.568 2988.31 797.188 2988.27 820.808 C 2990.32 819.278 2992.37 817.758 2994.49 816.188 C 2997.21 814.168 2999.94 812.158 3002.66 810.148 C 3004.01 809.138 3005.36 808.138 3006.75 807.108 C 3016.05 800.248 3025.25 794.378 3035.89 789.808 C 3037.32 789.168 3038.75 788.528 3040.22 787.858 C 3050.7 783.248 3061.15 779.568 3072.26 776.808 C 3074.09 776.308 3075.92 775.808 3077.8 775.288 C 3095 770.858 3111.18 769.868 3128.89 770.058 C 3130.25 770.068 3131.61 770.068 3133.01 770.078 C 3161.71 770.278 3187.68 773.328 3214.26 784.808 C 3215.53 785.348 3216.81 785.888 3218.12 786.438 C 3276.16 811.318 3316.4 856.908 3340.68 914.558 C 3347.36 932.618 3349.86 951.768 3352.26 970.808 C 3352.42 972.068 3352.59 973.338 3352.75 974.638 C 3354.02 985.128 3354.54 995.388 3354.49 1005.95 C 3354.49 1008.38 3354.49 1008.38 3354.49 1010.85 C 3354.49 1016.18 3354.47 1021.51 3354.45 1026.84 C 3354.44 1030.65 3354.43 1034.46 3354.43 1038.27 C 3354.32 1080.85 3353.84 1123.43 3353.33 1166 C 3353.21 1176.53 3353.09 1187.06 3352.97 1197.6 C 3352.74 1218 3352.5 1238.4 3352.26 1258.8 C 3349.4 1259.13 3346.54 1259.46 3343.68 1259.79 C 3341.29 1260.06 3341.29 1260.06 3338.85 1260.34 C 3333.04 1260.93 3327.3 1261.06 3321.47 1261.07 C 3319.19 1261.07 3316.91 1261.07 3314.56 1261.07 C 3311.07 1261.06 3311.07 1261.06 3307.51 1261.05 C 3305.2 1261.06 3302.89 1261.07 3300.51 1261.07 C 3264.96 1261.04 3264.96 1261.04 3252.26 1256.8 C 3252.26 1255.39 3252.26 1253.98 3252.26 1252.52 C 3252.23 1217.99 3252.14 1183.47 3252 1148.94 C 3251.93 1132.24 3251.88 1115.54 3251.87 1098.85 C 3251.87 1084.28 3251.82 1069.71 3251.74 1055.14 C 3251.7 1047.44 3251.67 1039.74 3251.69 1032.04 C 3251.78 981.138 3247.57 942.778 3210.26 904.808 C 3209.13 903.648 3208.01 902.498 3206.84 901.308 C 3182.47 878.478 3147.49 871.448 3115.15 871.728 C 3077.03 873.158 3045.55 892.038 3019.89 919.488 C 2988.2 956.518 2989.35 1000.91 2989.32 1046.94 C 2989.31 1053.94 2989.26 1060.94 2989.22 1067.93 C 2989.14 1081.14 2989.09 1094.35 2989.06 1107.56 C 2988.99 1131.25 2988.87 1154.95 2988.75 1178.64 C 2988.7 1186.94 2988.68 1195.24 2988.65 1203.54 C 2988.64 1209.9 2988.61 1216.27 2988.58 1222.63 C 2988.58 1226.05 2988.58 1226.05 2988.58 1229.55 C 2988.52 1239.51 2988.4 1249.02 2986.27 1258.8 C 2968.79 1260.8 2951.47 1261.1 2933.89 1261.05 C 2931.26 1261.06 2928.64 1261.07 2925.93 1261.07 C 2890.51 1261.04 2890.51 1261.04 2886.27 1256.8 C 2885.94 1251.86 2885.75 1246.97 2885.64 1242.02 C 2885.6 1240.44 2885.56 1238.85 2885.52 1237.22 C 2885.39 1231.8 2885.27 1226.39 2885.16 1220.97 C 2885.12 1219.06 2885.08 1217.14 2885.03 1215.16 C 2883.85 1160.08 2883.97 1104.98 2884 1049.88 C 2884 1039.03 2884 1028.18 2884 1017.33 C 2884 1015.77 2884 1014.2 2884 1012.59 C 2884 1009.41 2884 1006.23 2884 1003.04 C 2883.99 973.528 2884 944.018 2884.01 914.508 C 2884.02 889.248 2884.02 863.978 2884.01 838.708 C 2884 809.168 2883.99 779.628 2884 750.078 C 2884 746.938 2884 743.788 2884 740.638 C 2884 739.098 2884 737.548 2884 735.958 C 2884 725.088 2884 714.228 2883.99 703.368 C 2883.99 690.178 2883.99 676.988 2884 663.788 C 2884.01 657.068 2884.01 650.348 2884 643.638 C 2884 636.348 2884 629.068 2884.01 621.778 C 2884.01 618.608 2884.01 618.608 2884 615.378 C 2884.01 613.418 2884.01 611.458 2884.02 609.438 C 2884.02 607.758 2884.02 606.078 2884.02 604.348 C 2884.34 597.138 2885.37 589.968 2886.27 582.808 Z" />
    <path d="M 1799.44 776.438 C 1803.54 776.428 1807.64 776.398 1811.73 776.358 C 1814.4 776.348 1817.07 776.348 1819.73 776.348 C 1823.28 776.328 1823.28 776.328 1826.89 776.318 C 1832.87 776.718 1837.95 777.498 1843.74 778.838 C 1846.15 779.388 1846.15 779.388 1848.6 779.948 C 1849.82 780.228 1851.03 780.518 1852.28 780.808 C 1852.29 782.018 1852.3 783.218 1852.31 784.468 C 1852.51 813.988 1852.73 843.508 1852.96 873.028 C 1853.07 887.298 1853.18 901.578 1853.28 915.848 C 1853.36 928.308 1853.45 940.768 1853.55 953.228 C 1853.61 959.808 1853.66 966.388 1853.7 972.978 C 1853.28 1059.59 1853.28 1059.59 1894.53 1133.29 C 1922.22 1159.49 1954.81 1166.1 1991.71 1165.48 C 2028.91 1163.85 2061.84 1145.03 2086.64 1118.05 C 2118.24 1080.78 2119.49 1039.28 2119.43 992.728 C 2119.43 985.738 2119.47 978.748 2119.51 971.758 C 2119.58 958.558 2119.61 945.358 2119.63 932.168 C 2119.66 912.778 2119.73 893.398 2119.82 874.018 C 2119.83 872.588 2119.83 871.158 2119.84 869.688 C 2119.85 866.848 2119.86 863.998 2119.88 861.158 C 2119.91 852.868 2119.93 844.578 2119.95 836.288 C 2119.95 829.928 2119.97 823.568 2119.99 817.208 C 2119.99 814.928 2119.99 812.658 2119.99 810.308 C 2120.03 799.598 2120.38 789.358 2122.28 778.808 C 2143.44 776.428 2164.51 776.578 2185.78 776.678 C 2189.33 776.688 2192.88 776.698 2196.43 776.708 C 2205.05 776.728 2213.66 776.768 2222.28 776.808 C 2223.88 806.488 2224.57 836.068 2224.53 865.788 C 2224.54 870.088 2224.54 874.388 2224.54 878.688 C 2224.55 890.208 2224.55 901.728 2224.54 913.238 C 2224.54 925.338 2224.54 937.428 2224.55 949.528 C 2224.55 969.788 2224.55 990.038 2224.54 1010.29 C 2224.53 1033.73 2224.53 1057.17 2224.54 1080.6 C 2224.55 1100.77 2224.55 1120.94 2224.54 1141.11 C 2224.54 1153.13 2224.54 1165.16 2224.55 1177.19 C 2224.55 1188.46 2224.55 1199.72 2224.54 1210.99 C 2224.54 1215.13 2224.54 1219.28 2224.54 1223.42 C 2224.55 1229.05 2224.54 1234.68 2224.53 1240.3 C 2224.53 1241.97 2224.54 1243.63 2224.54 1245.34 C 2224.5 1256.57 2224.5 1256.57 2222.28 1258.8 C 2211.06 1260.57 2200.15 1261.1 2188.81 1261.07 C 2187.21 1261.07 2185.61 1261.07 2183.96 1261.07 C 2180.6 1261.07 2177.25 1261.07 2173.89 1261.06 C 2168.76 1261.05 2163.63 1261.06 2158.5 1261.07 C 2155.23 1261.07 2151.96 1261.07 2148.68 1261.07 C 2146.39 1261.07 2146.39 1261.07 2144.06 1261.08 C 2136.98 1261.05 2131.2 1260.53 2124.28 1258.8 C 2122.96 1244.28 2121.64 1229.76 2120.28 1214.8 C 2115 1219.42 2109.72 1224.04 2104.28 1228.8 C 2082.54 1243.96 2060.33 1253.93 2035.03 1261.3 C 2033.26 1261.82 2031.5 1262.34 2029.68 1262.87 C 1996.81 1272.07 1959.53 1271.8 1926.28 1264.8 C 1924.27 1264.46 1922.27 1264.12 1920.2 1263.76 C 1884.01 1256.8 1851.43 1238.02 1824.79 1212.96 C 1820.34 1208.73 1820.34 1208.73 1815.38 1205.08 C 1779.33 1174.83 1758.3 1121.79 1752.73 1076.07 C 1751.7 1064.05 1751.79 1051.96 1751.65 1039.9 C 1751.61 1036.79 1751.56 1033.69 1751.52 1030.58 C 1751.41 1022.22 1751.31 1013.86 1751.22 1005.51 C 1751.16 1000.3 1751.09 995.098 1751.03 989.898 C 1750.16 919.528 1750.05 849.178 1750.28 778.808 C 1766.7 777.178 1782.94 776.438 1799.44 776.438 Z" />
    <path d="M 934.294 800.808 C 939.874 805.248 945.124 809.898 950.294 814.808 C 942.144 825.868 933.694 836.608 924.924 847.178 C 923.714 848.638 922.514 850.098 921.274 851.598 C 910.384 864.758 899.374 877.808 888.294 890.808 C 887.144 890.328 886.004 889.858 884.814 889.368 C 879.564 887.208 874.304 885.068 869.044 882.928 C 867.244 882.188 865.434 881.438 863.574 880.668 C 837.254 870.008 807.144 868.588 780.194 878.298 C 744.094 893.648 719.274 917.938 702.874 953.618 C 695.804 973.328 693.414 991.608 693.434 1012.5 C 693.414 1015.18 693.394 1017.86 693.374 1020.55 C 693.314 1027.75 693.294 1034.96 693.284 1042.16 C 693.264 1049.72 693.214 1057.28 693.164 1064.84 C 693.084 1079.12 693.024 1093.4 692.974 1107.68 C 692.924 1123.95 692.834 1140.22 692.744 1156.49 C 692.554 1189.93 692.414 1223.36 692.294 1256.8 C 687.524 1257.79 682.744 1258.78 677.964 1259.76 C 675.944 1260.18 675.944 1260.18 673.894 1260.6 C 663.264 1262.77 653.234 1263.66 642.424 1263.43 C 640.924 1263.43 639.414 1263.44 637.864 1263.45 C 621.684 1263.3 606.614 1260.84 590.304 1258.8 C 590.304 1099.74 590.304 940.688 590.304 776.808 C 666.804 774.558 666.804 774.558 692.294 776.808 C 694.284 801.558 694.284 801.558 696.294 826.808 C 699.024 823.878 701.744 820.948 704.544 817.928 C 765.404 757.338 864.604 752.978 934.294 800.808 Z" />
    <path d="M 248.055 870.308 C 250.983 870.328 250.983 870.328 253.971 870.358 C 288.004 870.908 317.594 881.298 344.304 902.808 C 345.814 903.968 347.326 905.128 348.882 906.328 C 375.845 928.428 393.643 962.438 398.303 996.798 C 400.151 1019.77 400.129 1042.93 392.303 1064.8 C 391.599 1066.92 390.895 1069.04 390.171 1071.24 C 376.865 1108.82 351.856 1136.26 317.054 1155.3 C 284.308 1170.68 243.677 1174.84 208.657 1165.12 C 163.604 1148.62 133.996 1119.26 113.221 1076.44 C 98.005 1042.08 98.569 1004.17 110.307 968.798 C 125.014 930.968 149.672 901.028 186.306 882.808 C 206.653 874.008 225.937 870.078 248.055 870.308 Z M 101.385 816.778 C 98.821 818.808 98.821 818.808 96.307 820.808 C 80.315 832.788 67.289 845.728 54.989 861.368 C 54.077 862.538 53.191 863.668 52.307 864.808 C 13.822 913.488 -1.294 970.148 0.086 1031.71 C 2.592 1089.08 25.642 1155.62 68.675 1195.56 C 69.909 1196.66 71.109 1197.72 72.307 1198.8 C 113.093 1237.74 163.514 1265.12 220.305 1270.8 C 280.306 1274.24 342.548 1262.76 388.927 1221.8 C 391.435 1219.42 393.869 1217.1 396.303 1214.8 C 398.343 1229.76 400.323 1244.28 402.303 1258.8 C 411.939 1260 420.563 1261.04 430.125 1261.08 C 431.527 1261.08 432.886 1261.06 434.249 1261.06 C 437.23 1261.06 440.214 1261.08 443.196 1261.08 C 447.822 1261.06 452.446 1261.06 457.072 1261.06 C 460.122 1261.06 463.174 1261.08 466.224 1261.08 C 467.72 1261.06 469.17 1261.06 470.622 1261.06 C 480.694 1261.1 490.334 1260.3 500.302 1258.8 C 500.346 1199.12 500.382 1139.44 500.402 1079.74 C 500.406 1072.56 500.408 1065.36 500.41 1058.18 C 500.41 1056.7 500.412 1055.26 500.412 1053.84 C 500.42 1030.56 500.434 1007.3 500.452 984.038 C 500.472 960.088 500.486 936.138 500.49 912.198 C 500.492 898.768 500.494 885.338 500.51 871.918 C 500.522 860.368 500.53 848.828 500.53 837.288 C 500.528 832.548 500.528 827.818 500.53 823.098 C 500.54 816.468 500.55 809.838 500.548 803.218 C 500.546 800.208 500.546 800.208 500.542 797.268 C 500.562 791.098 500.498 784.978 500.302 778.808 C 498.302 776.808 498.302 776.808 494.266 776.568 C 491.554 776.568 491.554 776.568 488.896 776.578 C 485.832 776.578 485.832 776.578 482.828 776.578 C 480.586 776.588 478.408 776.598 476.232 776.608 C 469.296 776.618 462.362 776.628 455.426 776.658 C 450.59 776.668 445.754 776.688 440.916 776.698 C 426.713 776.718 412.507 776.758 398.303 776.808 C 397.337 782.298 396.401 787.738 395.893 793.288 C 395.781 795.378 395.781 795.378 395.671 797.418 C 395.583 798.958 395.501 800.448 395.417 801.948 C 395.335 803.518 395.257 805.038 395.177 806.558 C 395.009 809.638 394.839 812.708 394.671 815.788 C 394.545 818.178 394.425 820.488 394.303 822.808 C 393.299 821.958 392.325 821.128 391.349 820.308 C 307.732 752.198 186.766 751.138 101.385 816.778 Z" />
    <path d="M 1031.64 582.538 C 1033.33 582.538 1035.02 582.538 1036.75 582.538 C 1040.32 582.538 1043.88 582.538 1047.45 582.548 C 1052.87 582.558 1058.3 582.548 1063.72 582.538 C 1067.2 582.538 1070.67 582.538 1074.14 582.538 C 1075.75 582.538 1077.36 582.538 1079.02 582.528 C 1081.32 582.538 1081.32 582.538 1083.67 582.548 C 1085.66 582.548 1085.66 582.548 1087.7 582.558 C 1093.96 582.898 1100.09 583.898 1106.29 584.808 C 1108.75 613.338 1108.58 641.868 1108.55 670.488 C 1108.55 677.728 1108.55 684.958 1108.56 692.198 C 1108.57 706.328 1108.57 720.458 1108.56 734.588 C 1108.56 746.088 1108.55 757.588 1108.56 769.088 C 1108.56 770.738 1108.56 772.378 1108.56 774.068 C 1108.56 777.408 1108.56 780.748 1108.56 784.088 C 1108.57 815.348 1108.56 846.598 1108.55 877.848 C 1108.54 904.578 1108.54 931.318 1108.55 958.048 C 1108.56 989.188 1108.57 1020.32 1108.56 1051.46 C 1108.56 1054.79 1108.56 1058.12 1108.56 1061.45 C 1108.56 1063.91 1108.56 1063.91 1108.56 1066.41 C 1108.55 1077.88 1108.56 1089.34 1108.56 1100.8 C 1108.57 1114.81 1108.57 1128.81 1108.56 1142.82 C 1108.55 1149.94 1108.55 1157.07 1108.55 1164.2 C 1108.58 1188.88 1108.58 1213.56 1107.52 1238.24 C 1107.43 1240.71 1107.43 1240.71 1107.34 1243.23 C 1106.77 1254.32 1106.77 1254.32 1102.29 1258.8 C 1084.62 1261.28 1066.35 1261.02 1048.54 1261.18 C 1045.98 1261.22 1045.98 1261.22 1043.36 1261.26 C 1031.35 1261.27 1019.9 1259.98 1008.29 1256.8 C 1004.33 1252.84 1005.92 1245.04 1005.88 1239.62 C 1005.86 1238.01 1005.85 1236.4 1005.83 1234.74 C 1005.76 1229.29 1005.72 1223.83 1005.67 1218.38 C 1005.63 1214.48 1005.58 1210.58 1005.54 1206.68 C 1005.43 1195.98 1005.33 1185.28 1005.24 1174.59 C 1005.18 1167.81 1005.12 1161.03 1005.05 1154.25 C 1004.1 1052.13 1003.98 950.008 1004.03 847.888 C 1004.04 828.468 1004.04 809.048 1004.03 789.628 C 1004.02 770.488 1004.02 751.338 1004.02 732.198 C 1004.03 720.948 1004.03 709.698 1004.02 698.448 C 1004.01 688.008 1004.02 677.578 1004.03 667.148 C 1004.03 663.368 1004.03 659.588 1004.03 655.808 C 1004 632.068 1004.72 608.498 1006.29 584.808 C 1014.73 582.438 1022.94 582.518 1031.64 582.538 Z" />
    <path d="M 1470.28 874.808 C 1472.23 875.508 1474.19 876.218 1476.19 876.938 C 1516.91 892.738 1548.64 922.818 1566.82 962.458 C 1583.98 1002.36 1581.2 1041.5 1565.66 1081.42 C 1549.92 1116.8 1522.86 1146.58 1486.28 1160.8 C 1445.77 1174.68 1404.11 1172.08 1365.67 1153.42 C 1330.27 1135.24 1304.25 1105.34 1291.41 1067.68 C 1278.73 1026.67 1283.85 982.858 1302.91 945.058 C 1323.49 909.078 1354.59 885.258 1394.11 872.998 C 1419.19 866.258 1445.79 865.658 1470.28 874.808 Z M 1241.05 855.468 C 1240.11 856.598 1239.21 857.708 1238.29 858.808 C 1214.53 887.508 1197.79 922.388 1189.23 958.628 C 1188.91 960.048 1188.61 961.428 1188.29 962.808 C 1184.79 978.188 1182.37 993.438 1181.79 1009.23 C 1180.45 1077.64 1200.29 1141.38 1247.67 1192.14 C 1296.61 1241.66 1355.85 1270.04 1425.79 1271.74 C 1493.03 1272.24 1556.62 1251.66 1605.66 1204.3 C 1651.7 1156.14 1678.68 1096.32 1678.82 1029.01 C 1678.82 1026.51 1678.8 1024.08 1678.78 1021.69 C 1678.88 1004.99 1678.18 988.998 1675.36 972.528 C 1674.82 969.638 1674.82 969.638 1674.28 966.808 C 1667.74 931.568 1654.02 898.938 1632.74 870.098 C 1631.92 868.978 1631.1 867.888 1630.28 866.808 C 1619.02 851.758 1606.9 838.628 1592.28 826.808 C 1485.45 743.498 1330.45 749.538 1241.05 855.468 Z" />
    <path d="M 2546.53 870.308 C 2548.55 870.288 2550.59 870.278 2552.69 870.258 C 2594.85 870.368 2628.89 889.468 2658.15 918.668 C 2684.75 947.238 2698.05 986.618 2696.95 1025.36 C 2693.79 1060.02 2682.01 1092.8 2658.27 1118.8 C 2656.89 1120.32 2655.51 1121.82 2654.09 1123.38 C 2628.97 1149.7 2597.55 1165.82 2560.95 1167.54 C 2536.19 1168.04 2515.13 1166.48 2492.27 1156.8 C 2490.37 1156 2488.47 1155.22 2486.51 1154.4 C 2452.11 1138.6 2426.59 1108.36 2412.65 1073.68 C 2411.13 1069.4 2409.67 1065.1 2408.27 1060.8 C 2407.63 1058.98 2406.99 1057.18 2406.33 1055.3 C 2395.57 1020.21 2400.97 980.498 2416.89 947.928 C 2422.99 936.538 2429.65 926.418 2438.27 916.808 C 2439.63 915.288 2440.99 913.768 2442.39 912.198 C 2470.99 881.918 2505.67 869.998 2546.53 870.308 Z M 2416.27 802.808 C 2362.89 836.508 2319.93 889.028 2305.76 951.438 C 2305.26 953.938 2304.76 956.368 2304.28 958.808 C 2299.83 978.198 2297.91 996.908 2297.68 1016.84 C 2297.68 1019.47 2297.66 1022.01 2297.66 1024.56 C 2297.56 1045.36 2299.35 1064.96 2304.2 1085.22 C 2304.87 1087.66 2305.51 1090.04 2306.15 1092.42 C 2307.43 1097.24 2308.79 1102.04 2310.28 1106.8 C 2334.65 1166.86 2376.13 1215.82 2435.21 1243.62 C 2437.61 1244.7 2439.95 1245.76 2442.27 1246.8 C 2444.57 1247.88 2446.79 1248.92 2449.01 1249.98 C 2499.07 1271.96 2561.73 1278.14 2613.71 1258.66 C 2616.01 1257.72 2616.01 1257.72 2618.27 1256.8 C 2645.05 1246.56 2668.23 1233.32 2689.31 1213.66 C 2690.33 1212.7 2691.29 1211.74 2692.27 1210.8 C 2692.63 1242.86 2692.95 1278.16 2676.65 1306.96 C 2675.83 1308.26 2675.05 1309.54 2674.27 1310.8 C 2666.37 1324.3 2658.53 1336.88 2646.27 1346.8 C 2613.45 1370.84 2576.61 1380.94 2536.41 1375.8 C 2503.71 1369.94 2474.37 1356.14 2454.27 1328.8 C 2450.95 1322.44 2447.55 1317.1 2442.99 1311.54 C 2433.65 1303.48 2433.65 1303.48 2396.27 1305.04 C 2392.01 1305.2 2387.75 1305.34 2383.49 1305.44 C 2366.39 1305.74 2349.11 1305.44 2332.27 1308.8 C 2333.09 1321.22 2335.45 1331.6 2339.97 1343.18 C 2340.75 1345.1 2341.51 1346.94 2342.27 1348.8 C 2345.67 1357.64 2349.37 1366.1 2354.35 1374.16 C 2387.51 1425.04 2439.89 1459.94 2498.89 1473.32 C 2565.93 1487.12 2635.97 1477.88 2694.27 1440.8 C 2739.39 1410.26 2779.69 1359.64 2790.93 1305.36 C 2791.37 1303.14 2791.83 1300.96 2792.27 1298.8 C 2797.99 1274.44 2799.11 1251.3 2799.01 1226.34 C 2798.99 1221.82 2798.99 1217.3 2798.99 1212.78 C 2799.01 1200.42 2798.99 1188.06 2798.97 1175.7 C 2798.93 1162.56 2798.91 1149.44 2798.91 1136.3 C 2798.91 1112.88 2798.89 1089.46 2798.85 1066.02 C 2798.79 1043.26 2798.75 1020.51 2798.75 997.738 C 2798.75 995.578 2798.75 995.578 2798.75 993.468 C 2798.75 990.628 2798.75 987.798 2798.75 984.958 C 2798.75 983.518 2798.75 982.118 2798.75 980.718 C 2798.75 978.578 2798.75 978.578 2798.75 976.488 C 2798.73 954.628 2798.71 932.778 2798.69 910.928 C 2798.69 903.048 2798.67 895.168 2798.67 887.288 C 2798.67 874.698 2798.65 862.098 2798.63 849.498 C 2798.61 844.858 2798.61 840.218 2798.59 835.578 C 2798.59 829.118 2798.59 822.658 2798.57 816.198 C 2798.57 814.208 2798.55 812.278 2798.55 810.338 C 2798.55 808.498 2798.55 806.708 2798.55 804.918 C 2798.55 803.208 2798.53 801.538 2798.53 799.878 C 2798.53 792.558 2798.53 792.558 2796.27 776.808 C 2761.59 776.808 2727.93 776.808 2694.27 776.808 C 2693.37 782.228 2692.39 787.638 2691.87 793.108 C 2691.75 795.058 2691.75 795.058 2691.63 796.978 C 2691.55 798.428 2691.47 799.828 2691.39 801.238 C 2691.31 802.708 2691.23 804.128 2691.15 805.558 C 2690.97 808.448 2690.81 811.338 2690.63 814.228 C 2690.51 816.468 2690.39 818.638 2690.27 820.808 C 2686.27 816.808 2686.27 816.808 2682.19 813.478 C 2604.91 754.868 2498.79 754.808 2416.27 802.808 Z" />
    <path d="M 3186.26 196.813 C 3186.26 227.173 3186.26 257.533 3186.26 288.812 C 3175.28 294.302 3164.8 299.1 3153.38 303.312 C 3131.68 311.45 3110.1 319.87 3088.53 328.312 C 3081.33 331.122 3074.12 333.932 3066.95 336.742 C 3065.18 337.432 3063.41 338.122 3061.58 338.833 C 3046.89 344.577 3032.16 350.283 3017.43 355.973 C 2977.59 371.367 2937.81 386.961 2898.15 402.811 C 2896.89 403.309 2895.65 403.807 2894.37 404.319 C 2880.79 409.741 2867.25 415.215 2853.75 420.794 C 2813.27 437.518 2813.27 437.518 2793.53 444.31 C 2792.09 444.814 2790.67 445.32 2789.19 445.84 C 2781.39 448.42 2776.03 449.784 2768.27 446.81 C 2762.61 443.556 2757.27 439.904 2751.89 436.184 C 2748.69 434.012 2745.51 431.84 2742.31 429.67 C 2740.67 428.544 2739.03 427.42 2737.33 426.262 C 2729.01 420.592 2720.65 415.015 2712.27 409.435 C 2710.73 408.403 2709.19 407.369 2707.59 406.305 C 2706.17 405.351 2704.75 404.395 2703.27 403.413 C 2702.01 402.571 2700.75 401.729 2699.45 400.861 C 2696.21 398.691 2696.21 398.691 2692.27 396.811 C 2692.27 395.491 2692.27 394.171 2692.27 392.811 C 2694.35 392.017 2696.43 391.223 2698.57 390.407 C 2751.45 370.223 2751.45 370.223 2803.95 349.117 C 2819.45 342.742 2834.99 336.54 2850.59 330.422 C 2857.83 327.582 2865.05 324.738 2872.29 321.894 C 2873.77 321.306 2875.27 320.72 2876.81 320.116 C 2903.81 309.488 2930.79 298.774 2957.77 288.062 C 2959.23 287.48 2960.71 286.896 2962.21 286.296 C 3007.05 268.496 3051.85 250.599 3096.51 232.345 C 3102.89 229.745 3109.24 227.151 3115.62 224.555 C 3118.04 223.565 3120.46 222.577 3122.96 221.557 C 3125.3 220.611 3127.62 219.663 3130.02 218.689 C 3132.18 217.799 3134.38 216.911 3136.62 215.995 C 3148.58 211.123 3160.54 206.255 3172.52 201.439 C 3174.78 200.523 3177.06 199.607 3179.4 198.665 C 3184.26 196.813 3184.26 196.813 3186.26 196.813 Z M 3186.26 84.815 C 3186.26 115.174 3186.26 145.534 3186.26 176.814 C 3139.8 196.669 3093.16 215.989 3046.26 234.813 C 3044.1 235.679 3044.1 235.679 3041.91 236.563 C 3014.81 247.437 2987.69 258.269 2960.57 269.06 C 2951.25 272.766 2941.95 276.476 2932.65 280.186 C 2930.75 280.938 2928.87 281.688 2926.93 282.462 C 2905.55 290.992 2884.21 299.622 2862.97 308.5 C 2861.05 309.302 2859.13 310.102 2857.15 310.93 C 2855.23 311.73 2853.31 312.53 2851.35 313.356 C 2814.45 328.768 2777.41 343.429 2739.73 356.847 C 2738.15 357.409 2736.59 357.973 2734.97 358.551 C 2731.89 359.649 2728.81 360.743 2725.73 361.833 C 2717.99 364.613 2710.37 367.567 2702.81 370.831 C 2701.29 371.489 2699.75 372.149 2698.17 372.829 C 2695.27 374.091 2692.39 375.377 2689.51 376.697 C 2680.89 380.457 2675.33 381.479 2666.27 378.811 C 2661.27 376.083 2656.63 373.313 2651.89 370.185 C 2649.09 368.381 2646.29 366.577 2643.49 364.771 C 2642.01 363.811 2640.53 362.851 2639.01 361.861 C 2633.99 358.625 2628.93 355.451 2623.87 352.287 C 2621.29 350.671 2621.29 350.671 2618.65 349.021 C 2615.27 346.907 2611.89 344.795 2608.51 342.683 C 2606.21 341.232 2606.21 341.232 2603.85 339.749 C 2602.49 338.891 2601.11 338.034 2599.71 337.151 C 2596.27 334.812 2596.27 334.812 2592.27 330.812 C 2614.85 319.226 2637.73 308.628 2661.03 298.562 C 2662.69 297.834 2664.37 297.106 2666.11 296.356 C 2712.95 276.026 2760.23 256.765 2807.67 237.867 C 2826.13 230.507 2844.53 223.011 2862.89 215.437 C 2864.29 214.863 2865.69 214.289 2867.13 213.695 C 2884.21 206.649 2901.29 199.563 2918.35 192.461 C 2953.59 177.802 2988.87 163.27 3024.33 149.158 C 3027.16 148.022 3030.03 146.888 3032.89 145.752 C 3034.31 145.19 3035.7 144.626 3037.16 144.048 C 3054.1 137.296 3071.01 130.428 3087.89 123.564 C 3110.16 114.518 3132.44 105.491 3154.76 96.543 C 3157.42 95.481 3160.06 94.419 3162.7 93.353 C 3166.32 91.903 3169.92 90.457 3173.54 89.011 C 3175.58 88.195 3177.6 87.381 3179.7 86.541 C 3184.26 84.815 3184.26 84.815 3186.26 84.815 Z M 3208.26 86.815 C 3231.46 95.307 3254.36 104.445 3277.2 113.846 C 3283.02 116.246 3288.86 118.638 3294.68 121.03 C 3302.4 124.198 3310.12 127.366 3317.84 130.538 C 3350.86 144.094 3383.92 157.5 3417.06 170.726 C 3472.92 193.031 3528.64 215.653 3584.32 238.391 C 3590.3 240.829 3596.28 243.261 3602.26 245.689 C 3616.28 251.373 3630.28 257.087 3644.26 262.812 C 3645.92 263.494 3647.6 264.178 3649.32 264.88 C 3770.24 314.368 3770.24 314.368 3802.26 330.812 C 3797.92 335.5 3793.58 338.677 3788.04 341.873 C 3786.42 342.825 3784.8 343.779 3783.14 344.759 C 3781.4 345.767 3779.66 346.773 3777.88 347.811 C 3767.34 353.971 3756.94 360.125 3747.14 367.421 C 3745.04 368.969 3745.04 368.969 3742.9 370.549 C 3740.3 372.505 3737.72 374.505 3735.2 376.557 C 3730.24 380.253 3726.58 382.809 3720.28 382.815 C 3715.42 381.861 3710.94 380.449 3706.26 378.811 C 3703.38 377.849 3703.38 377.849 3700.44 376.865 C 3693.54 374.487 3686.72 371.979 3679.88 369.437 C 3678.62 368.965 3677.34 368.495 3676.04 368.011 C 3623.28 348.499 3571.12 327.402 3519.24 305.724 C 3470.58 285.418 3421.8 265.396 3372.84 245.837 C 3370.26 244.801 3367.66 243.765 3365.08 242.731 C 3356.8 239.423 3348.54 236.119 3340.26 232.813 C 3336.02 231.121 3331.8 229.429 3327.56 227.737 C 3324.7 226.599 3321.86 225.459 3319 224.321 C 3307.56 219.751 3296.14 215.179 3284.7 210.609 C 3277.4 207.693 3270.1 204.777 3262.8 201.863 C 3255.56 198.971 3248.32 196.077 3241.08 193.181 C 3238.36 192.095 3235.64 191.007 3232.92 189.921 C 3229.18 188.427 3225.44 186.929 3221.7 185.433 C 3219.58 184.585 3217.46 183.74 3215.28 182.867 C 3210.26 180.814 3210.26 180.814 3206.26 178.814 C 3206.2 169.57 3206.18 160.324 3206.14 151.08 C 3206.14 147.946 3206.12 144.812 3206.1 141.678 C 3206.02 123.276 3206.28 105.137 3208.26 86.815 Z M 3204.26 198.813 C 3223.56 203.849 3241.82 211.599 3260.26 219.063 C 3263.8 220.487 3267.34 221.909 3270.86 223.331 C 3280.14 227.065 3289.4 230.809 3298.68 234.557 C 3304.16 236.771 3309.64 238.979 3315.12 241.187 C 3354.9 257.225 3394.62 273.388 3434.28 289.75 C 3470.9 304.862 3507.56 319.872 3544.26 334.812 C 3545.7 335.398 3547.14 335.982 3548.62 336.586 C 3590.78 353.745 3633.28 369.995 3675.86 386.091 C 3683.36 388.929 3690.82 391.797 3698.26 394.811 C 3692.1 401.561 3685.36 406.151 3677.52 410.685 C 3674.84 412.237 3672.18 413.789 3669.52 415.343 C 3668.04 416.195 3666.58 417.046 3665.08 417.925 C 3659.7 421.148 3654.42 424.518 3649.14 427.904 C 3645.26 430.33 3641.38 432.758 3637.52 435.184 C 3635.68 436.388 3633.86 437.59 3631.96 438.83 C 3617.1 447.996 3617.1 447.996 3607.34 446.014 C 3604.28 445.024 3601.26 443.95 3598.26 442.81 C 3596.52 442.244 3594.76 441.678 3592.96 441.096 C 3587.2 439.218 3581.48 437.218 3575.76 435.184 C 3573.74 434.472 3571.7 433.758 3569.62 433.022 C 3553.62 427.36 3537.74 421.432 3521.98 415.091 C 3508.46 409.655 3494.88 404.401 3481.26 399.185 C 3465.58 393.167 3449.9 387.145 3434.26 381.061 C 3432.92 380.539 3431.56 380.015 3430.18 379.477 C 3421.42 376.067 3412.68 372.585 3403.96 369.089 C 3392.28 364.421 3380.58 359.801 3368.88 355.185 C 3367.48 354.633 3366.08 354.079 3364.64 353.509 C 3340.48 343.985 3316.26 334.618 3292.02 325.312 C 3245.74 307.546 3245.74 307.546 3226.52 300.062 C 3224.64 299.336 3222.76 298.61 3220.82 297.86 C 3218.32 296.886 3218.32 296.886 3215.78 295.89 C 3214.36 295.338 3212.94 294.784 3211.48 294.216 C 3208.26 292.812 3208.26 292.812 3206.26 290.812 C 3202.82 260.379 3204.06 229.377 3204.26 198.813 Z M 3171.76 7.022 C 3167.26 9.074 3162.74 11.124 3158.22 13.114 C 3151.56 16.002 3144.9 18.89 3138.26 21.816 C 3121.88 29.037 3105.36 35.895 3088.81 42.705 C 3083.01 45.079 3077.22 47.455 3071.45 49.839 C 3035.01 64.893 2998.51 79.851 2961.99 94.761 C 2952.69 98.555 2943.41 102.349 2934.11 106.157 C 2909.69 116.168 2885.23 126.06 2860.65 135.688 C 2802.65 158.398 2744.95 181.819 2687.47 205.823 C 2679.45 209.173 2671.43 212.523 2663.41 215.871 C 2661.33 216.743 2659.29 217.591 2657.27 218.437 C 2623.87 232.395 2590.39 246.161 2556.79 259.665 C 2555.07 260.356 2553.39 261.028 2551.71 261.703 C 2548.49 263.004 2545.25 264.306 2542.01 265.608 C 2528.25 271.102 2528.25 271.102 2496.27 284.812 C 2496.27 397.011 2496.27 505.908 2496.27 614.808 C 2521.61 614.808 2548.23 620.818 2572.27 612.808 C 2572.95 521.688 2573.61 433.25 2574.27 344.811 C 2580.33 344.269 2580.33 344.269 2584.83 347.749 C 2592.47 353.579 2600.11 359.349 2608.07 364.733 C 2610.05 366.035 2611.97 367.297 2613.89 368.561 C 2619.11 372.169 2624.13 375.767 2629.85 378.559 C 2637.97 382.353 2645.17 386.543 2651.57 392.915 C 2659.11 414.916 2659.11 414.916 2657.59 438.926 C 2657.49 443.676 2657.43 448.428 2657.43 453.178 C 2657.47 465.656 2657.43 478.128 2657.23 490.604 C 2657.03 503.518 2656.97 516.438 2656.93 529.358 C 2656.89 554.488 2656.71 579.618 2656.39 604.738 C 2656.35 607.488 2656.31 610.148 2656.27 612.808 C 2662.39 612.808 2668.33 612.808 2674.27 612.808 C 2674.27 542.768 2674.27 474.79 2674.27 406.811 C 2685.11 412.877 2685.11 412.877 2695.51 419.679 C 2697.81 421.138 2700.11 422.6 2702.39 424.06 C 2714.69 431.834 2726.89 439.51 2738.27 448.606 C 2742.69 452.302 2746.17 454.768 2751.53 456.988 C 2753.91 457.908 2753.91 457.908 2756.27 458.81 C 2756.23 475.44 2756.19 492.07 2756.17 508.698 C 2756.17 517.188 2756.15 525.668 2756.13 534.158 C 2756.11 542.468 2756.09 550.768 2756.09 559.078 C 2756.09 562.238 2756.07 565.408 2756.07 568.578 C 2756.05 573.118 2756.05 577.668 2756.05 582.208 C 2756.05 583.638 2756.05 585.028 2756.05 586.408 C 2756.03 595.488 2756.55 603.898 2758.27 612.808 C 2766.85 613.128 2770.99 613.668 2778.27 608.808 C 2778.51 606.808 2778.75 604.878 2778.99 602.938 C 2778.97 599.088 2778.97 599.088 2778.95 595.318 C 2778.95 590.908 2778.95 586.498 2778.91 582.088 C 2778.87 578.928 2778.85 575.778 2778.85 572.618 C 2778.83 564.358 2778.79 556.098 2778.73 547.838 C 2778.65 539.278 2778.61 530.708 2778.57 522.148 C 2778.53 505.488 2778.43 488.832 2778.31 472.174 C 2778.29 469.466 2778.29 469.466 2778.27 466.81 C 2782.27 466.81 2782.27 466.81 2786.35 465.5 C 2788.05 464.874 2789.71 464.268 2791.37 463.662 C 2793.27 462.97 2795.11 462.3 2796.95 461.628 C 2798.97 460.882 2800.93 460.158 2802.89 459.434 C 2823.49 451.884 2844.03 444.296 2864.27 435.81 C 2870.13 433.342 2876.01 430.914 2881.93 428.6 C 2898.57 422.244 2915.19 415.807 2931.79 409.349 C 2933.37 408.741 2934.87 408.151 2936.39 407.561 C 2963.19 397.145 2989.95 386.681 3016.68 376.155 C 3025.01 372.885 3033.31 369.617 3041.6 366.355 C 3044.18 365.349 3046.74 364.343 3049.31 363.339 C 3053.04 361.871 3056.79 360.403 3060.53 358.935 C 3070.89 354.867 3081.26 350.811 3091.6 346.671 C 3101.39 342.743 3111.18 338.885 3121.02 335.128 C 3122.76 334.468 3124.46 333.828 3126.14 333.186 C 3146.12 325.578 3166.18 318.158 3186.26 310.812 C 3182.36 380.489 3182.36 380.489 3188.26 540.808 C 3193.7 541.488 3198.98 542.148 3204.26 542.808 C 3205.84 533.478 3206.5 524.508 3206.54 515.048 C 3206.52 513.268 3206.52 511.548 3206.52 509.818 C 3206.52 503.948 3206.54 498.071 3206.54 492.196 C 3206.52 487.988 3206.52 483.78 3206.52 479.57 C 3206.54 470.756 3206.54 461.94 3206.52 453.124 C 3206.52 441.712 3206.52 430.3 3206.52 418.888 C 3206.52 409.969 3206.54 401.051 3206.54 392.131 C 3206.52 387.853 3206.52 383.575 3206.52 379.295 C 3206.54 357.111 3206.7 335.046 3204.68 312.936 C 3204.54 311.534 3204.4 310.172 3204.26 308.812 C 3226.12 318.394 3248.24 327.194 3270.5 335.848 C 3274.54 337.424 3278.6 339.004 3282.66 340.583 C 3290.84 343.781 3299.04 346.977 3307.24 350.173 C 3321.24 355.631 3335.24 361.103 3349.24 366.599 C 3352.72 367.969 3352.72 367.969 3356.14 369.311 C 3376.54 377.311 3396.86 385.441 3417.2 393.595 C 3463.14 412.021 3509.12 430.382 3555.3 448.21 C 3557.16 448.924 3558.96 449.618 3560.76 450.31 C 3568.58 453.346 3576.16 456.328 3584.36 458.216 C 3586.32 458.516 3586.32 458.516 3588.26 458.81 C 3588.26 460.17 3588.26 461.49 3588.26 462.81 C 3584.26 462.81 3584.26 462.81 3579.64 465.43 C 3577.8 466.578 3576.04 467.694 3574.26 468.81 C 3571.8 470.304 3571.8 470.304 3569.4 471.768 C 3539.08 490.234 3508.4 507.878 3477.28 524.958 C 3471.32 528.228 3465.34 531.518 3459.38 534.798 C 3457.54 535.818 3457.54 535.818 3455.72 536.828 C 3453.26 538.178 3450.82 539.528 3448.36 540.878 C 3445.92 542.228 3443.46 543.578 3441.02 544.938 C 3418.9 557.128 3396.8 569.338 3374.8 581.738 C 3369.44 584.758 3364.1 587.788 3358.74 590.778 C 3352.6 594.188 3346.48 597.598 3340.36 601.048 C 3338 602.388 3335.64 603.718 3333.26 605.058 C 3329.78 606.978 3329.78 606.978 3326.38 608.868 C 3324.24 610.078 3322.16 611.268 3320.08 612.448 C 3314.74 615.438 3311.12 617.058 3308.4 622.578 C 3308.22 628.088 3309.92 631.868 3312.26 636.808 C 3325.22 631.118 3337.88 625.068 3350.32 618.308 C 3353.18 616.728 3353.18 616.728 3356.02 615.178 C 3360.24 612.878 3364.46 610.568 3368.68 608.258 C 3374.38 605.128 3380.08 601.998 3385.78 598.878 C 3412.36 584.368 3438.88 569.768 3465.02 554.438 C 3480.34 545.418 3495.74 536.528 3511.26 527.808 C 3521.02 522.328 3530.76 516.848 3540.42 511.208 C 3542.56 509.958 3544.62 508.738 3546.7 507.518 C 3550.84 505.078 3554.98 502.631 3559.14 500.183 C 3570.8 493.22 3582.54 486.584 3594.7 480.528 C 3596.88 479.446 3596.88 479.446 3599.02 478.386 C 3604.1 475.858 3609.18 473.332 3614.26 470.81 C 3614.22 513.538 3614.18 556.268 3614.16 598.998 C 3614.16 619.768 3614.14 640.538 3614.12 661.308 C 3614.1 679.548 3614.08 697.798 3614.08 716.048 C 3614.08 725.678 3614.08 735.308 3614.06 744.938 C 3614.04 754.158 3614.04 763.378 3614.04 772.608 C 3614.04 775.998 3614.04 779.388 3614.04 782.778 C 3614.02 787.518 3614.02 792.258 3614.02 796.998 C 3614.02 798.448 3614.02 799.858 3614.02 801.268 C 3614.02 805.778 3614.08 810.298 3614.26 814.808 C 3616.26 818.808 3616.26 818.808 3619.76 821.178 C 3624.82 823.008 3624.82 823.008 3634.26 820.808 C 3634.3 781.418 3634.34 742.028 3634.36 702.638 C 3634.36 683.458 3634.38 664.278 3634.4 645.098 C 3634.42 628.278 3634.44 611.458 3634.44 594.638 C 3634.44 585.718 3634.44 576.798 3634.46 567.888 C 3634.52 533.548 3634.86 499.231 3632.7 464.946 C 3632.54 462.86 3632.4 460.834 3632.26 458.81 C 3636.26 458.81 3636.26 458.81 3639.92 456.194 C 3649.32 449.36 3649.32 449.36 3659.14 443.11 C 3661.1 441.86 3662.98 440.648 3664.88 439.434 C 3676.36 431.992 3687.92 424.882 3700 418.467 C 3701.38 417.744 3702.7 417.045 3704.02 416.343 C 3708.78 413.828 3713.52 411.317 3718.26 408.811 C 3716.8 457.606 3715.92 506.368 3715.86 555.188 C 3715.86 560.368 3715.86 565.558 3715.84 570.748 C 3715.82 587.268 3715.8 603.788 3715.78 620.318 C 3715.78 639.278 3715.76 658.238 3715.7 677.208 C 3715.66 692.178 3715.62 707.148 3715.62 722.118 C 3715.62 730.998 3715.62 739.868 3715.58 748.738 C 3715.56 757.138 3715.52 765.548 3715.54 773.948 C 3715.54 777.038 3715.54 780.128 3715.54 783.208 C 3715.52 787.508 3715.48 791.808 3715.5 796.108 C 3715.52 797.428 3715.52 798.708 3715.52 799.988 C 3715.52 802.358 3715.52 804.648 3715.52 806.948 C 3716.34 813.498 3717.44 816.318 3722.26 820.808 C 3726.34 821.588 3726.34 821.588 3738.26 820.808 C 3738.22 778.588 3738.18 736.358 3738.16 694.138 C 3738.16 673.558 3738.14 652.988 3738.12 632.408 C 3738.1 614.378 3738.08 596.348 3738.08 578.318 C 3738.08 568.738 3738.08 559.148 3738.06 549.568 C 3738 513.308 3737.94 477.07 3739.02 440.826 C 3739.06 439.41 3739.1 438.036 3739.14 436.662 C 3739.58 422.066 3739.38 407.165 3742.26 392.811 C 3745.4 390.717 3748.54 388.627 3751.7 386.567 C 3754.44 384.783 3757.18 382.993 3759.92 381.197 C 3761.48 380.173 3763 379.179 3764.52 378.185 C 3775.8 370.879 3786.64 363.077 3797.32 354.897 C 3798.88 353.685 3800.42 352.509 3801.94 351.333 C 3806.4 347.915 3810.85 344.497 3815.31 341.077 C 3816.31 340.307 3817.28 339.56 3818.25 338.812 C 3818.46 397.683 3818.67 456.554 3818.89 515.418 C 3818.93 522.518 3818.96 529.608 3818.98 536.708 C 3819 538.168 3819 539.578 3819 540.998 C 3819.09 563.948 3819.17 586.888 3819.25 609.838 C 3819.34 633.468 3819.42 657.088 3819.51 680.708 C 3819.55 692.628 3819.62 704.558 3819.66 716.488 C 3819.7 729.188 3819.74 741.898 3819.78 754.598 C 3819.81 759.268 3819.81 763.938 3819.85 768.618 C 3819.85 775.148 3819.88 781.678 3819.92 788.208 C 3819.92 790.208 3819.93 792.148 3819.93 794.088 C 3819.93 796.888 3819.93 796.888 3819.93 799.628 C 3819.96 801.338 3819.97 802.998 3819.97 804.668 C 3820 810.238 3820.46 813.378 3822.25 818.808 C 3826.67 820.688 3826.67 820.688 3837.04 821.038 C 3841.08 821.018 3841.08 821.018 3845.04 820.998 C 3849.43 820.988 3853.81 820.978 3858.2 820.958 C 3861.25 820.938 3864.3 820.928 3867.35 820.918 C 3876.31 820.888 3885.29 820.858 3894.25 820.808 C 3895.81 810.278 3896.5 800.078 3896.51 789.438 C 3896.51 787.448 3896.51 785.518 3896.51 783.588 C 3896.51 776.918 3896.53 770.248 3896.51 763.568 C 3896.51 758.688 3896.51 753.798 3896.51 748.918 C 3896.53 735.598 3896.53 722.288 3896.53 708.968 C 3896.51 699.088 3896.51 689.208 3896.51 679.318 C 3896.51 677.878 3896.51 676.468 3896.51 675.068 C 3896.51 672.208 3896.51 669.358 3896.53 666.498 C 3896.53 639.758 3896.53 613.008 3896.51 586.258 C 3896.51 563.228 3896.51 540.198 3896.51 517.168 C 3896.53 490.318 3896.53 463.464 3896.53 436.61 C 3896.53 433.746 3896.53 430.884 3896.51 428.02 C 3896.51 425.862 3896.51 425.862 3896.51 423.748 C 3896.51 413.849 3896.51 403.947 3896.53 394.045 C 3896.53 381.867 3896.53 369.687 3896.53 357.509 C 3896.51 352.509 3896.51 347.509 3896.51 342.509 C 3896.51 335.53 3896.53 328.55 3896.51 321.572 C 3896.51 319.428 3896.51 317.348 3896.51 315.268 C 3896.51 313.266 3896.51 311.32 3896.51 309.376 C 3896.51 306.642 3896.51 306.642 3896.51 303.962 C 3896.51 297.318 3895.96 291.256 3894.25 284.812 C 3889.77 280.328 3889.77 280.328 3878.74 275.586 C 3877 274.856 3875.31 274.146 3873.63 273.436 C 3831.17 255.415 3788.34 238.255 3745.38 221.437 C 3729.16 215.095 3712.96 208.727 3696.78 202.271 C 3694.26 201.265 3691.82 200.289 3689.38 199.313 C 3674.52 193.367 3659.66 187.391 3644.82 181.356 C 3617.48 170.222 3590.16 159.016 3562.6 148.412 C 3450.9 105.563 3338.38 62.285 3229.52 12.566 C 3226.54 11.18 3223.56 9.8 3220.58 8.426 C 3217.8 7.238 3215.02 6.036 3212.26 4.816 C 3197.16 -3.726 3186.7 0.418 3171.76 7.022 Z" />
    <path d="M 4288.25 988.798 C 4310.69 988.798 4333.13 988.798 4356.25 988.798 C 4352.55 1002.37 4349 1014.89 4343.77 1027.76 C 4342.53 1030.89 4341.29 1034.02 4340.05 1037.16 C 4339.42 1038.75 4338.79 1040.34 4338.14 1041.98 C 4332.48 1056.42 4327.21 1071 4321.87 1085.55 C 4320.91 1088.18 4320.91 1088.18 4319.92 1090.86 C 4310.7 1116.03 4301.97 1141.33 4293.63 1166.8 C 4286.66 1188.03 4279.48 1209.11 4271.38 1229.93 C 4270.21 1233.02 4270.21 1233.02 4269.02 1236.17 C 4268.27 1238.03 4267.53 1239.89 4266.76 1241.81 C 4266.13 1243.42 4265.49 1245.02 4264.84 1246.67 C 4261.36 1252.22 4258.22 1254.14 4252.25 1256.8 C 4245.97 1257.48 4245.97 1257.48 4239.02 1257.39 C 4236.53 1257.37 4234.04 1257.35 4231.46 1257.33 C 4228.88 1257.28 4226.29 1257.23 4223.63 1257.18 C 4221 1257.15 4218.37 1257.12 4215.67 1257.09 C 4209.2 1257.02 4202.72 1256.93 4196.25 1256.8 C 4190.01 1242.03 4184.01 1227.2 4178.38 1212.18 C 4173.4 1198.93 4168.25 1185.75 4162.97 1172.62 C 4159.3 1163.48 4155.71 1154.31 4152.17 1145.12 C 4140.7 1115.53 4128.74 1086.39 4115.28 1057.62 C 4110.38 1047.14 4105.68 1036.58 4101.13 1025.93 C 4100.48 1024.45 4099.84 1022.97 4099.17 1021.45 C 4094.79 1011.07 4092.77 1002.15 4090.25 990.798 C 4113.35 990.798 4136.45 990.798 4160.25 990.798 C 4188.08 1064.1 4188.08 1064.1 4199.06 1093.81 C 4199.94 1096.17 4200.81 1098.54 4201.71 1100.97 C 4203.43 1105.63 4205.15 1110.29 4206.87 1114.95 C 4211.12 1126.43 4215.39 1137.9 4219.74 1149.34 C 4220.56 1151.49 4221.37 1153.64 4222.21 1155.86 C 4223.8 1160.61 4223.8 1160.61 4226.25 1162.8 C 4234.76 1143.93 4241.88 1124.91 4248.27 1105.23 C 4250.83 1097.36 4253.43 1089.5 4256.02 1081.64 C 4256.54 1080.06 4257.06 1078.48 4257.6 1076.85 C 4262.73 1061.29 4268.03 1045.79 4273.38 1030.3 C 4274.18 1027.95 4275 1025.6 4275.83 1023.18 C 4279.82 1011.65 4283.96 1000.23 4288.25 988.798 Z" />
    <path d="M 3705.54 1062.54 C 3722.08 1077.5 3727.2 1098.46 3728.58 1119.88 C 3729.34 1143.78 3723.46 1167.18 3707.26 1185.18 C 3694.58 1197.08 3679.48 1203.22 3662.14 1203.92 C 3643.48 1202.98 3628 1196.86 3614.42 1183.92 C 3595.4 1160.52 3591.42 1134.04 3594.26 1104.8 C 3599.54 1083.64 3611.24 1066.52 3629.86 1055.18 C 3654.22 1042.04 3683.58 1047.02 3705.54 1062.54 Z M 3731.94 919.078 C 3731.92 920.898 3731.88 922.668 3731.86 924.438 C 3731.82 926.498 3731.78 928.498 3731.74 930.508 C 3731.7 932.738 3731.66 934.898 3731.62 937.068 C 3731.5 943.988 3731.36 950.908 3731.26 957.828 C 3731.18 962.648 3731.1 967.478 3731 972.298 C 3730.76 985.208 3730.54 998.118 3730.32 1011.04 C 3730.3 1012.32 3730.28 1013.56 3730.26 1014.8 C 3724.86 1010.25 3719.72 1005.74 3713.76 1001.92 C 3687.68 988.578 3655.36 981.118 3626.12 987.738 C 3624.8 988.098 3623.54 988.458 3622.26 988.798 C 3613.42 991.058 3604.82 993.618 3596.26 996.798 C 3568.16 1010.99 3549.64 1033.9 3536.76 1062.18 C 3523.36 1096.48 3519.64 1141.92 3534.2 1176.36 C 3534.9 1177.86 3535.58 1179.34 3536.26 1180.8 C 3542.84 1195.3 3549.22 1209.48 3560.42 1221.08 C 3561.72 1222.34 3563 1223.58 3564.26 1224.8 C 3583.7 1244.8 3605.82 1256.98 3633.38 1261.94 C 3665.58 1266 3697.32 1259.76 3723.64 1240.18 C 3725.88 1238.34 3728.08 1236.58 3730.26 1234.8 C 3731.62 1242.96 3732.94 1250.88 3734.26 1258.8 C 3756.02 1258.8 3777.14 1258.8 3798.26 1258.8 C 3798.3 1220.26 3798.34 1181.74 3798.36 1143.22 C 3798.38 1124.46 3798.38 1105.7 3798.4 1086.96 C 3798.42 1070.5 3798.44 1054.04 3798.44 1037.6 C 3798.44 1028.88 3798.44 1020.17 3798.46 1011.47 C 3798.48 1003.15 3798.48 994.848 3798.48 986.558 C 3798.48 983.458 3798.48 980.358 3798.48 977.258 C 3798.54 955.698 3797.84 934.308 3796.26 912.808 C 3790.84 911.648 3785.9 910.788 3780.36 910.578 C 3778.16 910.588 3776.04 910.598 3773.9 910.608 C 3770.36 910.618 3770.36 910.618 3766.9 910.628 C 3764.42 910.648 3762.04 910.658 3759.64 910.678 C 3751.18 910.708 3742.72 910.748 3734.26 910.808 C 3732.26 914.808 3732.26 914.808 3731.94 919.078 Z" />
    <path d="M 3991.85 1050.44 C 3993.29 1051.22 3994.75 1052 3996.25 1052.8 C 3997.49 1053.44 3998.75 1054.06 4000.03 1054.72 C 4012.13 1061.98 4019.63 1074.66 4026.25 1086.8 C 4027.23 1091.74 4027.23 1091.74 4028.25 1096.8 C 3986.01 1097.46 3943.77 1098.12 3900.25 1098.8 C 3902.87 1080.52 3910.13 1068.88 3924.51 1057.36 C 3945.11 1043.24 3968.75 1039.6 3991.85 1050.44 Z M 3931.87 987.168 C 3898.31 996.918 3870.31 1016.27 3851.59 1045.9 C 3831.58 1079.88 3826.74 1118.94 3835.78 1157.26 C 3846.39 1196.18 3866.46 1226.6 3901.63 1247.42 C 3930.37 1263.42 3966.35 1268.94 3998.39 1259.98 C 3999.71 1259.58 4000.97 1259.18 4002.25 1258.8 C 4013.19 1255.5 4023.91 1251.68 4034.25 1246.8 C 4060.27 1231.64 4074.85 1210.84 4084.25 1182.8 C 4079.21 1180.7 4074.15 1178.58 4069.09 1176.5 C 4065.95 1175.2 4065.95 1175.2 4062.87 1173.92 C 4060.81 1173.06 4058.79 1172.22 4056.77 1171.38 C 4054.75 1170.54 4052.81 1169.74 4050.85 1168.94 C 4043.99 1166.08 4037.57 1164.06 4030.25 1162.8 C 4019.97 1176.86 4009.85 1189.12 3994.37 1197.56 C 3979.59 1203.62 3958.41 1203.56 3943.25 1198.56 C 3926.73 1189.7 3913.15 1178.94 3905.97 1161.14 C 3905.27 1159.14 3904.59 1157.2 3903.91 1155.26 C 3902.67 1151.78 3901.45 1148.3 3900.25 1144.8 C 3918.73 1144.92 3937.19 1145 3955.65 1145.04 C 3957.91 1145.04 3957.91 1145.04 3960.13 1145.06 C 4004.95 1145.16 4049.57 1144.88 4094.25 1140.8 C 4094.61 1120.34 4096.15 1099.18 4091.47 1079.12 C 4091.07 1077.64 4090.65 1076.22 4090.25 1074.8 C 4084.91 1054.56 4071.91 1034.58 4056.61 1020.49 C 4021.61 990.998 3977.45 977.468 3931.87 987.168 Z" />
    <path d="M 3420.26 1186.8 C 3441.38 1186.8 3462.5 1186.8 3484.26 1186.8 C 3484.31 1196.45 3484.35 1206.1 3484.37 1215.75 C 3484.38 1219.03 3484.39 1222.31 3484.41 1225.6 C 3484.43 1230.31 3484.45 1235.02 3484.45 1239.73 C 3484.47 1241.21 3484.47 1242.69 3484.49 1244.21 C 3484.49 1247.74 3484.38 1251.27 3484.26 1254.8 C 3476.95 1262.11 3454.29 1259.25 3444.51 1259.3 C 3442.61 1259.34 3440.72 1259.38 3438.76 1259.43 C 3436.04 1259.44 3436.04 1259.44 3433.28 1259.46 C 3431.64 1259.48 3430 1259.5 3428.32 1259.52 C 3426.98 1259.28 3425.64 1259.04 3424.26 1258.8 C 3419.4 1251.52 3419.75 1246.19 3419.87 1237.78 C 3419.87 1236.32 3419.88 1234.87 3419.89 1233.36 C 3419.91 1228.72 3419.96 1224.07 3420.01 1219.43 C 3420.03 1216.28 3420.05 1213.12 3420.06 1209.97 C 3420.11 1202.25 3420.18 1194.53 3420.26 1186.8 Z" />
  </g>
</svg>