<?xml version="1.0"?>
<svg width="400" height="400" xmlns="http://www.w3.org/2000/svg" xmlns:svg="http://www.w3.org/2000/svg" version="1.1">
 <g class="layer">
  <title>Layer 1</title>
  <g id="svgg">
   <path d="m133.68,114.38c-60.27,60.33 -87.68,88.02 -87.6,88.51c0.23,1.37 175.52,176.25 175.74,175.33c0.11,-0.45 0.15,-26.56 0.09,-58.02l-0.11,-57.2l-42.27,-0.1l-42.27,-0.1l-0.27,-1.23c-0.21,-0.95 -0.08,-1.44 0.57,-2.13c0.46,-0.49 0.84,-1.21 0.84,-1.61c0,-0.39 0.45,-1.25 1,-1.9c0.55,-0.66 1,-1.61 1,-2.12c0,-0.51 0.26,-1.02 0.58,-1.15c0.32,-0.12 0.78,-0.96 1.02,-1.86c0.24,-0.9 0.68,-1.73 0.98,-1.85c0.3,-0.11 0.65,-0.78 0.78,-1.49c0.14,-0.71 0.6,-1.59 1.04,-1.97c0.44,-0.37 0.8,-1.02 0.8,-1.43c0,-0.41 0.33,-1.18 0.75,-1.71c0.41,-0.52 0.88,-1.4 1.04,-1.95c0.17,-0.55 0.54,-1.27 0.82,-1.6c0.28,-0.33 0.8,-1.23 1.17,-2c0.92,-1.98 1.8,-3.7 2.24,-4.4c0.21,-0.33 0.56,-1.05 0.78,-1.6c0.22,-0.55 0.58,-1.27 0.81,-1.6c0.22,-0.33 0.69,-1.23 1.04,-2c0.35,-0.77 0.86,-1.67 1.14,-2c0.29,-0.33 0.65,-1.05 0.81,-1.6c0.17,-0.55 0.64,-1.32 1.05,-1.72c0.41,-0.39 0.75,-1.04 0.75,-1.44c0,-0.4 0.36,-1.19 0.8,-1.75c0.44,-0.56 0.8,-1.29 0.8,-1.62c0,-0.34 0.45,-1.14 1,-1.8c0.55,-0.65 1,-1.54 1,-1.97c0,-0.42 0.34,-1.09 0.76,-1.46c0.42,-0.38 0.87,-1.29 1.01,-2.03c0.14,-0.73 0.51,-1.43 0.82,-1.55c0.31,-0.12 0.76,-0.93 0.99,-1.79c0.23,-0.87 0.69,-1.8 1.02,-2.07c0.33,-0.27 0.6,-0.81 0.6,-1.19c0,-0.39 0.33,-1.13 0.73,-1.66c0.41,-0.52 1,-1.49 1.33,-2.15c0.86,-1.75 1.33,-2.65 2.06,-4c0.36,-0.66 0.86,-1.65 1.11,-2.2c0.25,-0.55 0.61,-1.27 0.8,-1.6c0.19,-0.33 1.09,-2.04 2,-3.8c2.52,-4.87 3.05,-5.8 3.68,-6.53c0.32,-0.37 0.71,-1.21 0.87,-1.87c0.16,-0.66 0.63,-1.52 1.05,-1.92c0.42,-0.39 0.77,-1.11 0.77,-1.61c0,-0.49 0.36,-1.2 0.8,-1.58c0.44,-0.37 0.8,-1.06 0.8,-1.53c0,-0.46 0.45,-1.38 1,-2.03c0.55,-0.66 1,-1.51 1,-1.9c0,-0.39 0.34,-1.02 0.76,-1.39c0.42,-0.38 0.87,-1.27 1,-1.98c0.14,-0.71 0.6,-1.59 1.04,-1.97c0.44,-0.37 0.8,-1.07 0.8,-1.55c0,-0.48 0.27,-1.16 0.6,-1.51c0.5,-0.52 3.05,-5.34 7.95,-15.03c0.44,-0.88 0.93,-1.69 1.07,-1.8c0.15,-0.11 0.41,-0.65 0.57,-1.2c0.17,-0.55 0.62,-1.36 1.01,-1.8c0.38,-0.44 0.91,-1.46 1.17,-2.26c0.26,-0.81 0.73,-1.57 1.05,-1.69c0.32,-0.13 0.58,-0.65 0.58,-1.17c0,-0.53 0.45,-1.48 1,-2.12c0.55,-0.64 1,-1.54 1,-2c0,-0.46 0.36,-1.16 0.8,-1.56c0.44,-0.4 0.8,-1.03 0.8,-1.41c0,-0.37 0.33,-1.11 0.74,-1.64c0.41,-0.52 0.96,-1.62 1.23,-2.45c0.27,-0.83 0.65,-1.5 0.85,-1.5c0.19,0 0.54,-0.72 0.78,-1.6c0.24,-0.88 0.58,-1.6 0.77,-1.6c0.18,0 0.57,-0.59 0.85,-1.3c0.29,-0.72 0.85,-1.73 1.25,-2.25c0.4,-0.53 0.73,-1.27 0.73,-1.64c0,-0.38 0.36,-1.1 0.8,-1.61c0.44,-0.51 0.8,-1.14 0.8,-1.41c0,-0.26 0.33,-0.91 0.74,-1.44c0.42,-0.52 0.89,-1.4 1.06,-1.95c0.17,-0.55 0.64,-1.43 1.05,-1.95c0.42,-0.53 0.75,-1.27 0.75,-1.66c0,-0.38 0.27,-0.92 0.6,-1.19c0.33,-0.27 0.81,-1.21 1.07,-2.09c0.27,-0.88 0.81,-1.8 1.21,-2.05c0.76,-0.48 1.18,-72.01 0.42,-72.35c-0.16,-0.07 -39.77,39.38 -88.02,87.67m89.09,-14.96c-0.09,0.21 -0.08,36.74 0.03,81.18l0.2,80.8l41.8,0.06c25.8,0.04 41.98,-0.08 42.26,-0.31c0.56,-0.47 0.26,-1.88 -0.64,-2.95c-0.37,-0.44 -1.26,-1.97 -1.97,-3.4c-0.72,-1.43 -1.47,-2.87 -1.67,-3.2c-0.2,-0.33 -0.63,-1.23 -0.96,-2c-0.6,-1.39 -0.98,-2.07 -2.24,-4c-0.36,-0.55 -0.87,-1.66 -1.14,-2.47c-0.26,-0.81 -0.74,-1.68 -1.06,-1.95c-0.32,-0.26 -0.58,-0.78 -0.58,-1.15c0,-0.37 -0.45,-1.29 -1,-2.03c-0.55,-0.74 -1,-1.65 -1,-2.02c0,-0.36 -0.36,-0.98 -0.8,-1.38c-0.44,-0.4 -0.8,-1.03 -0.8,-1.41c0,-0.37 -0.33,-1.11 -0.74,-1.64c-0.41,-0.52 -0.96,-1.61 -1.22,-2.42c-0.26,-0.8 -0.74,-1.56 -1.06,-1.68c-0.32,-0.13 -0.58,-0.65 -0.58,-1.18c0,-0.52 -0.45,-1.47 -1,-2.11c-0.55,-0.64 -1,-1.45 -1,-1.81c0,-0.36 -0.26,-0.87 -0.58,-1.13c-0.32,-0.27 -0.79,-1.14 -1.06,-1.94c-0.26,-0.8 -0.72,-1.7 -1.02,-2c-0.3,-0.29 -0.54,-0.76 -0.54,-1.03c0,-0.27 -0.45,-1.1 -1,-1.85c-0.55,-0.75 -1,-1.65 -1,-2.02c0,-0.36 -0.36,-0.98 -0.8,-1.38c-0.44,-0.4 -0.8,-1.02 -0.8,-1.38c0,-0.37 -0.45,-1.27 -1,-2.02c-0.55,-0.75 -1,-1.66 -1,-2.03c0,-0.37 -0.26,-0.89 -0.58,-1.15c-0.32,-0.27 -0.79,-1.15 -1.05,-1.95c-0.26,-0.81 -0.7,-1.74 -0.99,-2.07c-0.28,-0.33 -0.64,-1.08 -0.79,-1.67c-0.14,-0.59 -0.61,-1.38 -1.03,-1.76c-0.42,-0.38 -0.76,-1.04 -0.76,-1.47c0,-0.43 -0.45,-1.32 -1,-1.97c-0.55,-0.66 -1,-1.51 -1,-1.9c0,-0.39 -0.36,-1.03 -0.8,-1.43c-0.44,-0.4 -0.8,-1.14 -0.8,-1.65c0,-0.5 -0.34,-1.24 -0.75,-1.63c-0.42,-0.4 -0.88,-1.3 -1.04,-2.02c-0.15,-0.72 -0.45,-1.3 -0.66,-1.3c-0.21,0 -0.74,-0.76 -1.18,-1.7c-1.25,-2.68 -3.91,-7.65 -4.39,-8.21c-0.23,-0.28 -0.62,-1.09 -0.86,-1.8c-0.24,-0.71 -0.64,-1.56 -0.89,-1.89c-0.25,-0.33 -1.06,-1.86 -1.81,-3.4c-0.75,-1.54 -1.58,-3.07 -1.84,-3.4c-0.27,-0.33 -0.62,-1.05 -0.78,-1.6c-0.16,-0.55 -0.52,-1.27 -0.8,-1.6c-0.27,-0.33 -0.72,-1.27 -0.98,-2.1c-0.26,-0.83 -0.64,-1.5 -0.84,-1.5c-0.19,0 -0.53,-0.69 -0.76,-1.54c-0.23,-0.84 -0.78,-1.86 -1.22,-2.26c-0.44,-0.4 -0.8,-1.12 -0.8,-1.6c0,-0.48 -0.34,-1.19 -0.76,-1.57c-0.42,-0.38 -0.88,-1.16 -1.03,-1.73c-0.14,-0.57 -0.61,-1.48 -1.04,-2.02c-0.42,-0.54 -0.77,-1.32 -0.77,-1.72c0,-0.4 -0.34,-1.05 -0.75,-1.44c-0.41,-0.4 -0.89,-1.17 -1.06,-1.72c-0.16,-0.55 -0.64,-1.43 -1.04,-1.95c-0.41,-0.53 -0.75,-1.16 -0.76,-1.4c0,-0.25 -0.36,-0.9 -0.79,-1.45c-0.43,-0.55 -0.79,-1.3 -0.79,-1.67c-0.01,-0.37 -0.24,-0.91 -0.53,-1.2c-0.28,-0.29 -1.28,-2.1 -2.21,-4.01c-0.93,-1.92 -1.87,-3.59 -2.08,-3.73c-0.22,-0.13 -0.39,-0.55 -0.39,-0.94c0,-0.38 -0.45,-1.31 -1,-2.05c-0.55,-0.75 -1,-1.66 -1,-2.03c0,-0.37 -0.26,-0.89 -0.58,-1.15c-0.32,-0.27 -0.79,-1.15 -1.06,-1.95c-0.26,-0.81 -0.7,-1.61 -0.99,-1.77c-0.28,-0.17 -0.63,-0.89 -0.78,-1.6c-0.16,-0.72 -0.62,-1.62 -1.04,-2.02c-0.41,-0.39 -0.75,-1.06 -0.75,-1.48c0,-0.42 -0.35,-1.09 -0.77,-1.48c-0.42,-0.4 -0.89,-1.2 -1.03,-1.79c-0.15,-0.59 -0.62,-1.38 -1.04,-1.76c-0.42,-0.38 -0.76,-1.18 -0.76,-1.77c0,-0.6 -0.4,-1.53 -0.9,-2.09c-0.49,-0.55 -1.09,-1.33 -1.33,-1.73c-0.24,-0.4 -0.5,-0.56 -0.6,-0.36" fill="#05c4eb" fill-rule="evenodd" id="path1"/>
   <path d="m133.06,113.56c-57.92,57.92 -88.26,88.53 -88.26,89.05c0,1.66 176.65,178.11 177.48,177.28c0.68,-0.68 0.73,-3.55 0.82,-58.58c0.09,-45.52 0.21,-57.93 0.6,-58.18c0.28,-0.18 18.95,-0.32 41.5,-0.33c47.45,-0.01 44.46,0.24 42.61,-3.64c-1.3,-2.74 -2.29,-4.49 -2.84,-5.05c-0.31,-0.31 -0.57,-0.88 -0.57,-1.26c0,-0.38 -0.45,-1.31 -1,-2.05c-0.55,-0.75 -1,-1.65 -1,-2.02c0,-0.36 -0.36,-0.98 -0.8,-1.38c-0.44,-0.4 -0.8,-1.03 -0.8,-1.41c0,-0.37 -0.33,-1.11 -0.74,-1.64c-0.41,-0.52 -0.96,-1.61 -1.22,-2.42c-0.27,-0.81 -0.61,-1.53 -0.76,-1.6c-0.16,-0.07 -1.36,-2.24 -2.68,-4.83c-3.73,-7.3 -3.97,-7.76 -4.45,-8.35c-0.24,-0.3 -0.55,-1.01 -0.68,-1.58c-0.14,-0.56 -0.61,-1.44 -1.06,-1.96c-0.44,-0.51 -0.81,-1.24 -0.81,-1.61c0,-0.37 -0.36,-1 -0.79,-1.39c-0.44,-0.4 -0.91,-1.31 -1.04,-2.04c-0.14,-0.72 -0.59,-1.63 -1.01,-2.01c-0.42,-0.37 -0.76,-0.98 -0.76,-1.34c0,-0.37 -0.45,-1.27 -1,-2.02c-0.55,-0.74 -1,-1.58 -1,-1.85c0,-0.27 -0.22,-0.73 -0.5,-1.03c-0.28,-0.29 -1.1,-1.78 -1.83,-3.32c-0.73,-1.54 -1.49,-3.07 -1.7,-3.4c-0.21,-0.33 -0.57,-1.05 -0.82,-1.6c-0.24,-0.55 -0.6,-1.27 -0.8,-1.6c-0.2,-0.33 -0.65,-1.23 -1,-2c-0.35,-0.77 -0.86,-1.67 -1.14,-2c-0.28,-0.33 -0.65,-1.05 -0.82,-1.6c-0.16,-0.55 -0.64,-1.43 -1.05,-1.95c-0.41,-0.53 -0.74,-1.29 -0.74,-1.7c0,-0.41 -0.36,-0.97 -0.8,-1.24c-0.44,-0.28 -0.8,-0.87 -0.8,-1.33c0,-0.45 -0.45,-1.43 -1,-2.18c-0.55,-0.75 -1,-1.67 -1,-2.06c0,-0.39 -0.34,-1.03 -0.75,-1.42c-0.41,-0.4 -0.88,-1.17 -1.05,-1.72c-0.16,-0.55 -0.52,-1.27 -0.81,-1.6c-0.28,-0.33 -0.8,-1.23 -1.14,-2c-0.35,-0.77 -0.79,-1.67 -0.98,-2c-0.81,-1.41 -1.68,-3.07 -2.1,-4c-0.25,-0.55 -0.62,-1.27 -0.82,-1.6c-0.2,-0.33 -0.64,-1.23 -0.97,-2c-0.33,-0.77 -0.78,-1.67 -1,-2c-0.21,-0.33 -0.75,-1.32 -1.18,-2.2c-0.43,-0.88 -0.94,-1.87 -1.13,-2.2c-0.54,-0.93 -1.35,-2.48 -2.01,-3.8c-0.33,-0.66 -0.75,-1.47 -0.93,-1.8c-0.19,-0.33 -0.63,-1.21 -0.97,-1.96c-0.34,-0.75 -0.88,-1.61 -1.19,-1.93c-0.31,-0.31 -0.57,-0.91 -0.57,-1.34c0,-0.42 -0.37,-1.14 -0.81,-1.58c-0.45,-0.45 -0.92,-1.34 -1.05,-1.98c-0.13,-0.64 -0.57,-1.48 -0.99,-1.85c-0.41,-0.38 -0.75,-1.04 -0.75,-1.46c0,-0.43 -0.45,-1.32 -1,-1.97c-0.55,-0.66 -1,-1.51 -1,-1.9c0,-0.39 -0.35,-1.02 -0.78,-1.41c-0.42,-0.39 -0.89,-1.22 -1.03,-1.86c-0.14,-0.63 -0.41,-1.25 -0.61,-1.37c-0.2,-0.12 -0.72,-0.98 -1.16,-1.91c-0.44,-0.92 -0.96,-1.95 -1.16,-2.28c-0.52,-0.86 -2.96,-5.63 -4.9,-9.6c-0.92,-1.87 -1.8,-3.49 -1.96,-3.6c-0.16,-0.11 -0.43,-0.65 -0.6,-1.2c-0.17,-0.55 -0.64,-1.43 -1.05,-1.95c-0.42,-0.53 -0.75,-1.27 -0.75,-1.65c0,-0.38 -0.33,-1.12 -0.73,-1.65c-0.4,-0.52 -1.41,-2.34 -2.25,-4.05c-0.83,-1.71 -1.65,-3.1 -1.82,-3.1c-0.17,0 -0.43,-0.61 -0.57,-1.36c-0.14,-0.75 -0.52,-1.58 -0.85,-1.85c-2.22,-1.85 -2.18,-1.1 -2.18,-38.59c0,-35.82 -0.03,-36.81 -1.19,-37.11c-0.5,-0.14 -24.75,23.87 -88.95,88.07m88.94,-50.83c0,34.18 -0.03,35.9 -0.72,36.33c-0.4,0.25 -0.94,1.17 -1.21,2.05c-0.26,0.88 -0.74,1.82 -1.07,2.09c-0.33,0.27 -0.6,0.81 -0.6,1.19c0,0.39 -0.33,1.13 -0.75,1.66c-0.41,0.52 -0.88,1.4 -1.05,1.95c-0.17,0.55 -0.64,1.43 -1.06,1.95c-0.41,0.53 -0.74,1.18 -0.74,1.44c0,0.27 -0.36,0.9 -0.8,1.41c-0.44,0.51 -0.8,1.23 -0.8,1.61c0,0.37 -0.33,1.11 -0.73,1.64c-0.4,0.52 -0.96,1.53 -1.25,2.25c-0.28,0.71 -0.67,1.3 -0.85,1.3c-0.19,0 -0.53,0.72 -0.77,1.6c-0.24,0.88 -0.59,1.6 -0.78,1.6c-0.2,0 -0.58,0.67 -0.85,1.5c-0.27,0.83 -0.82,1.93 -1.23,2.45c-0.41,0.53 -0.74,1.27 -0.74,1.64c0,0.38 -0.36,1.01 -0.8,1.41c-0.44,0.4 -0.8,1.1 -0.8,1.56c0,0.46 -0.45,1.36 -1,2c-0.55,0.64 -1,1.59 -1,2.12c0,0.52 -0.26,1.04 -0.58,1.17c-0.32,0.12 -0.79,0.88 -1.05,1.69c-0.26,0.8 -0.79,1.82 -1.17,2.26c-0.39,0.44 -0.84,1.25 -1.01,1.8c-0.16,0.55 -0.42,1.09 -0.57,1.2c-0.14,0.11 -0.63,0.92 -1.07,1.8c-4.9,9.69 -7.45,14.51 -7.95,15.03c-0.33,0.35 -0.6,1.03 -0.6,1.51c0,0.48 -0.36,1.18 -0.8,1.55c-0.44,0.38 -0.9,1.26 -1.04,1.97c-0.13,0.71 -0.58,1.6 -1,1.98c-0.42,0.37 -0.76,1 -0.76,1.39c0,0.39 -0.45,1.24 -1,1.9c-0.55,0.65 -1,1.57 -1,2.03c0,0.47 -0.36,1.16 -0.8,1.53c-0.44,0.38 -0.8,1.09 -0.8,1.58c0,0.5 -0.35,1.22 -0.77,1.61c-0.42,0.4 -0.89,1.26 -1.05,1.92c-0.16,0.66 -0.55,1.5 -0.87,1.87c-0.63,0.73 -1.16,1.66 -3.68,6.53c-0.91,1.76 -1.81,3.47 -2,3.8c-0.19,0.33 -0.55,1.05 -0.8,1.6c-0.25,0.55 -0.75,1.54 -1.11,2.2c-0.73,1.35 -1.2,2.25 -2.06,4c-0.33,0.66 -0.92,1.63 -1.33,2.15c-0.4,0.53 -0.73,1.27 -0.73,1.66c0,0.38 -0.27,0.92 -0.6,1.19c-0.33,0.27 -0.79,1.2 -1.02,2.07c-0.23,0.86 -0.68,1.67 -0.99,1.79c-0.31,0.12 -0.68,0.82 -0.82,1.55c-0.14,0.74 -0.59,1.65 -1.01,2.03c-0.42,0.37 -0.76,1.04 -0.76,1.46c0,0.43 -0.45,1.32 -1,1.97c-0.55,0.66 -1,1.46 -1,1.8c0,0.33 -0.36,1.06 -0.8,1.62c-0.44,0.56 -0.8,1.35 -0.8,1.75c0,0.4 -0.34,1.05 -0.75,1.44c-0.41,0.4 -0.88,1.17 -1.05,1.72c-0.16,0.55 -0.52,1.27 -0.81,1.6c-0.28,0.33 -0.79,1.23 -1.14,2c-0.35,0.77 -0.82,1.67 -1.04,2c-0.23,0.33 -0.59,1.05 -0.81,1.6c-0.22,0.55 -0.57,1.27 -0.78,1.6c-0.44,0.7 -1.32,2.42 -2.24,4.4c-0.37,0.77 -0.89,1.67 -1.17,2c-0.28,0.33 -0.65,1.05 -0.82,1.6c-0.16,0.55 -0.63,1.43 -1.04,1.95c-0.42,0.53 -0.75,1.3 -0.75,1.71c0,0.41 -0.36,1.06 -0.8,1.43c-0.44,0.38 -0.9,1.26 -1.04,1.97c-0.13,0.71 -0.48,1.38 -0.78,1.49c-0.3,0.12 -0.74,0.95 -0.98,1.85c-0.24,0.9 -0.7,1.74 -1.02,1.86c-0.32,0.13 -0.58,0.64 -0.58,1.15c0,0.51 -0.45,1.46 -1,2.12c-0.55,0.65 -1,1.51 -1,1.9c0,0.4 -0.38,1.12 -0.84,1.61c-0.65,0.69 -0.78,1.18 -0.57,2.13l0.27,1.23l42.27,0.1l42.27,0.1l0.11,57.2c0.06,31.46 0.02,57.57 -0.09,58.02c-0.22,0.92 -175.51,-173.96 -175.74,-175.33c-0.12,-0.74 175.02,-176.44 175.62,-176.18c0.17,0.08 0.3,16.28 0.3,36.02m2.7,38.78c0.5,0.56 0.9,1.49 0.9,2.09c0,0.59 0.34,1.39 0.76,1.77c0.42,0.38 0.89,1.17 1.04,1.76c0.14,0.59 0.61,1.39 1.03,1.79c0.42,0.39 0.77,1.06 0.77,1.48c0,0.42 0.34,1.09 0.75,1.48c0.42,0.4 0.88,1.3 1.04,2.02c0.15,0.71 0.5,1.43 0.78,1.6c0.29,0.16 0.73,0.96 0.99,1.77c0.27,0.8 0.74,1.68 1.06,1.95c0.32,0.26 0.58,0.78 0.58,1.15c0,0.37 0.45,1.28 1,2.03c0.55,0.74 1,1.67 1,2.05c0,0.39 0.17,0.81 0.39,0.94c0.21,0.14 1.15,1.81 2.08,3.73c0.93,1.91 1.93,3.72 2.21,4.01c0.29,0.29 0.52,0.83 0.53,1.2c0,0.37 0.36,1.12 0.79,1.67c0.43,0.55 0.79,1.2 0.79,1.45c0.01,0.24 0.35,0.87 0.76,1.4c0.4,0.52 0.88,1.4 1.04,1.95c0.17,0.55 0.65,1.32 1.06,1.72c0.41,0.39 0.75,1.04 0.75,1.44c0,0.4 0.35,1.18 0.77,1.72c0.43,0.54 0.9,1.45 1.04,2.02c0.15,0.57 0.61,1.35 1.03,1.73c0.42,0.38 0.76,1.09 0.76,1.57c0,0.48 0.36,1.2 0.8,1.6c0.44,0.4 0.99,1.42 1.22,2.26c0.23,0.85 0.57,1.54 0.76,1.54c0.2,0 0.58,0.67 0.84,1.5c0.26,0.83 0.71,1.77 0.98,2.1c0.28,0.33 0.64,1.05 0.8,1.6c0.16,0.55 0.51,1.27 0.78,1.6c0.26,0.33 1.09,1.86 1.84,3.4c0.75,1.54 1.56,3.07 1.81,3.4c0.25,0.33 0.65,1.18 0.89,1.89c0.24,0.71 0.63,1.52 0.86,1.8c0.48,0.56 3.14,5.53 4.39,8.21c0.44,0.94 0.97,1.7 1.18,1.7c0.21,0 0.51,0.58 0.66,1.3c0.16,0.72 0.62,1.62 1.04,2.02c0.41,0.39 0.75,1.13 0.75,1.63c0,0.51 0.36,1.25 0.8,1.65c0.44,0.4 0.8,1.04 0.8,1.43c0,0.39 0.45,1.24 1,1.9c0.55,0.65 1,1.54 1,1.97c0,0.43 0.34,1.09 0.76,1.47c0.42,0.38 0.89,1.17 1.03,1.76c0.15,0.59 0.51,1.34 0.79,1.67c0.29,0.33 0.73,1.26 0.99,2.07c0.26,0.8 0.73,1.68 1.05,1.95c0.32,0.26 0.58,0.78 0.58,1.15c0,0.37 0.45,1.28 1,2.03c0.55,0.75 1,1.65 1,2.02c0,0.36 0.36,0.98 0.8,1.38c0.44,0.4 0.8,1.02 0.8,1.38c0,0.37 0.45,1.27 1,2.02c0.55,0.75 1,1.58 1,1.85c0,0.27 0.24,0.74 0.54,1.03c0.3,0.3 0.76,1.2 1.02,2c0.27,0.8 0.74,1.67 1.06,1.94c0.32,0.26 0.58,0.77 0.58,1.13c0,0.36 0.45,1.17 1,1.81c0.55,0.64 1,1.59 1,2.11c0,0.53 0.26,1.05 0.58,1.18c0.32,0.12 0.8,0.88 1.06,1.68c0.26,0.81 0.81,1.9 1.22,2.42c0.41,0.53 0.74,1.27 0.74,1.64c0,0.38 0.36,1.01 0.8,1.41c0.44,0.4 0.8,1.02 0.8,1.38c0,0.37 0.45,1.28 1,2.02c0.55,0.74 1,1.66 1,2.03c0,0.37 0.26,0.89 0.58,1.15c0.32,0.27 0.8,1.14 1.06,1.95c0.27,0.81 0.78,1.92 1.14,2.47c1.26,1.93 1.64,2.61 2.24,4c0.33,0.77 0.76,1.67 0.96,2c0.2,0.33 0.95,1.77 1.67,3.2c0.71,1.43 1.6,2.96 1.97,3.4c0.9,1.07 1.2,2.48 0.64,2.95c-0.28,0.23 -16.46,0.35 -42.26,0.31l-41.8,-0.06l-0.2,-80.8c-0.2,-81.63 -0.2,-82.14 0.57,-80.82c0.24,0.4 0.84,1.18 1.33,1.73m-2.74,79.56c0.02,43.59 -0.07,79.55 -0.2,79.9c-0.28,0.72 -82.59,0.98 -83.72,0.26c-0.46,-0.29 -0.41,-0.54 0.3,-1.44c0.47,-0.61 0.86,-1.41 0.86,-1.78c0,-0.38 0.35,-1 0.78,-1.39c0.42,-0.39 0.89,-1.22 1.03,-1.86c0.14,-0.63 0.39,-1.23 0.55,-1.34c0.17,-0.1 0.89,-1.41 1.61,-2.9c0.72,-1.5 1.48,-2.99 1.68,-3.32c0.2,-0.33 0.65,-1.23 1,-2c0.35,-0.77 0.86,-1.67 1.14,-2c0.28,-0.33 0.73,-1.27 0.99,-2.1c0.26,-0.83 0.65,-1.5 0.84,-1.5c0.2,0 0.48,-0.5 0.63,-1.1c0.14,-0.6 0.57,-1.46 0.95,-1.9c0.39,-0.44 0.92,-1.47 1.18,-2.3c0.27,-0.82 0.63,-1.5 0.82,-1.5c0.19,0 0.45,-0.53 0.6,-1.18c0.14,-0.65 0.58,-1.6 0.97,-2.1c0.4,-0.51 0.86,-1.37 1.02,-1.92c0.17,-0.55 0.65,-1.32 1.06,-1.72c0.41,-0.39 0.75,-1.06 0.75,-1.5c0,-0.43 0.37,-1.15 0.81,-1.59c0.45,-0.45 0.92,-1.34 1.05,-1.98c0.13,-0.64 0.57,-1.48 0.99,-1.85c0.41,-0.38 0.75,-0.99 0.75,-1.37c0,-0.37 0.34,-1.11 0.75,-1.64c0.4,-0.52 0.88,-1.4 1.04,-1.95c0.17,-0.55 0.54,-1.27 0.82,-1.6c0.28,-0.33 0.79,-1.23 1.14,-2c0.35,-0.77 0.8,-1.67 0.99,-2c0.59,-0.98 3.2,-6.07 4.02,-7.86c0.43,-0.91 0.97,-1.77 1.21,-1.92c0.23,-0.15 0.43,-0.58 0.43,-0.97c0,-0.38 0.45,-1.3 1,-2.05c0.55,-0.75 1,-1.65 1,-2.02c0,-0.36 0.36,-0.98 0.79,-1.37c0.44,-0.4 0.91,-1.32 1.04,-2.05c0.14,-0.73 0.5,-1.53 0.79,-1.78c0.3,-0.24 0.74,-1.06 0.99,-1.81c0.25,-0.75 0.6,-1.37 0.78,-1.37c0.18,0 0.62,-0.68 0.98,-1.5c0.37,-0.82 0.93,-1.99 1.25,-2.6c0.69,-1.31 1.26,-2.44 2.98,-5.9c0.7,-1.43 1.45,-2.87 1.64,-3.2c0.2,-0.33 0.68,-1.23 1.06,-2c0.39,-0.77 0.8,-1.49 0.92,-1.6c0.13,-0.11 0.99,-1.73 1.91,-3.6c0.93,-1.87 1.85,-3.67 2.04,-4c0.19,-0.33 0.55,-1.05 0.8,-1.6c0.25,-0.55 0.71,-1.45 1.02,-2c0.31,-0.55 0.68,-1.27 0.81,-1.6c0.14,-0.33 0.76,-1.5 1.39,-2.6c0.62,-1.1 2.26,-4.21 3.63,-6.92c1.38,-2.7 2.64,-5 2.81,-5.1c0.17,-0.11 0.53,-0.86 0.8,-1.69c0.27,-0.82 0.72,-1.67 0.99,-1.89c0.27,-0.22 0.71,-1.08 0.97,-1.9c0.26,-0.82 0.62,-1.5 0.81,-1.5c0.19,0 0.55,-0.68 0.82,-1.5c0.27,-0.82 0.66,-1.72 0.87,-1.98c0.21,-0.27 0.69,-1.08 1.06,-1.8c0.38,-0.73 0.89,-1.68 1.13,-2.12c0.24,-0.44 1.04,-2 1.78,-3.48c2.55,-5.08 2.9,-5.72 3.42,-6.25c0.29,-0.29 0.52,-0.84 0.52,-1.22c0,-0.38 0.45,-1.3 1,-2.05c0.55,-0.74 1,-1.65 1,-2.02c0,-0.36 0.36,-0.98 0.8,-1.38c0.44,-0.4 0.8,-1.02 0.8,-1.38c0,-0.37 0.45,-1.28 1,-2.02c0.55,-0.74 1,-1.66 1,-2.03c0,-0.37 0.27,-0.89 0.6,-1.17c0.33,-0.27 0.82,-1.23 1.08,-2.13c0.98,-3.26 1.04,1.12 1.08,79.6" fill="#96e3f4" fill-rule="evenodd" id="path2"/>
   <path d="m132.76,112.97c-48.71,48.71 -88.62,88.87 -88.7,89.23c-0.19,0.93 0.28,2.6 0.73,2.6c0.5,0 67.21,66.71 67.21,67.21c0,0.22 0.29,0.39 0.64,0.39c0.35,0 0.73,0.36 0.84,0.8c0.12,0.44 0.34,0.8 0.51,0.8c0.43,0 3.21,2.78 3.21,3.22c0,0.21 0.16,0.38 0.36,0.38c0.32,0 4.84,4.31 4.84,4.61c0,0.29 2.49,2.59 2.8,2.59c0.19,0 0.46,0.35 0.59,0.78c0.14,0.43 0.59,0.89 1.01,1.02c0.42,0.13 0.87,0.59 1.01,1.02c0.13,0.43 0.52,0.78 0.85,0.78c0.34,0 0.71,0.36 0.82,0.8c0.12,0.44 0.34,0.8 0.51,0.8c0.43,0 3.21,2.78 3.21,3.22c0,0.21 0.16,0.38 0.36,0.38c0.32,0 4.84,4.31 4.84,4.61c0,0.29 2.49,2.59 2.8,2.59c0.19,0 0.46,0.35 0.59,0.78c0.14,0.43 0.59,0.89 1.01,1.02c0.42,0.13 0.87,0.59 1.01,1.02c0.13,0.43 0.52,0.78 0.85,0.78c0.34,0 0.71,0.36 0.82,0.8c0.12,0.44 0.34,0.8 0.51,0.8c0.43,0 3.21,2.78 3.21,3.22c0,0.21 0.17,0.38 0.38,0.38c0.45,0 3.22,2.78 3.22,3.23c0,0.18 0.36,0.43 0.8,0.57c0.44,0.14 0.8,0.41 0.8,0.6c0,0.44 2.36,2.8 2.8,2.8c0.19,0 0.46,0.35 0.59,0.78c0.14,0.43 0.59,0.89 1.01,1.02c0.42,0.13 0.87,0.58 1,1c0.13,0.42 0.59,0.87 1.02,1.01c0.43,0.13 0.78,0.39 0.78,0.56c0,0.41 4.02,4.43 4.43,4.43c0.17,0 0.43,0.35 0.56,0.78c0.14,0.43 0.59,0.89 1.01,1.02c0.42,0.13 0.87,0.58 1,1c0.13,0.42 0.59,0.87 1.02,1.01c0.43,0.13 0.78,0.4 0.78,0.59c0,0.44 2.36,2.8 2.8,2.8c0.19,0 0.46,0.35 0.59,0.78c0.14,0.43 0.59,0.89 1.01,1.02c0.42,0.13 0.87,0.58 1,1c0.13,0.42 0.59,0.87 1.02,1.01c0.43,0.13 0.78,0.39 0.78,0.56c0,0.41 4.02,4.43 4.43,4.43c0.17,0 0.43,0.35 0.56,0.78c0.14,0.43 0.59,0.89 1.01,1.02c0.42,0.13 0.87,0.58 1,1c0.13,0.42 0.59,0.87 1.02,1.01c0.43,0.13 0.78,0.4 0.78,0.59c0,0.44 2.36,2.8 2.8,2.8c0.19,0 0.46,0.35 0.59,0.78c0.14,0.43 0.59,0.89 1.01,1.02c0.42,0.13 0.87,0.58 1,1c0.13,0.42 0.59,0.87 1.02,1.01c0.43,0.13 0.78,0.39 0.78,0.56c0,0.41 4.02,4.43 4.43,4.43c0.17,0 0.43,0.35 0.56,0.78c0.14,0.43 0.59,0.89 1.01,1.02c0.42,0.13 0.87,0.58 1,1c0.13,0.42 0.55,0.87 0.92,1c0.37,0.13 1.22,0.94 1.88,1.8c0.66,0.86 1.41,1.57 1.67,1.58c0.26,0.01 0.59,0.37 0.72,0.8c0.14,0.43 0.59,0.89 1.01,1.02c0.42,0.13 0.86,0.57 0.99,0.98c0.13,0.4 0.59,0.83 1.02,0.94c0.44,0.11 0.79,0.49 0.79,0.84c0,0.35 0.15,0.64 0.34,0.64c0.47,0 3.26,2.75 3.26,3.22c0,0.21 0.16,0.38 0.36,0.38c0.32,0 4.84,4.31 4.84,4.61c0,0.66 2.67,2.59 3.58,2.59c2.11,0 2.01,2.73 2.12,-59.04l0.1,-57.96l42.04,-0.2c47.92,-0.23 44.68,0.07 42.56,-3.9c-0.44,-0.82 -0.8,-1.69 -0.8,-1.93c0,-0.25 -0.36,-0.77 -0.8,-1.17c-0.44,-0.4 -0.8,-1.05 -0.8,-1.44c0,-0.39 -0.33,-0.95 -0.74,-1.24c-0.41,-0.29 -0.86,-1.18 -1.01,-1.98c-0.23,-1.24 -0.85,-1.94 -1.71,-1.94c-0.11,0 0.17,0.47 0.63,1.05c0.46,0.58 0.83,1.38 0.83,1.77c0,0.4 0.26,0.98 0.57,1.29c0.55,0.56 1.54,2.31 2.84,5.05c1.85,3.88 4.84,3.63 -42.61,3.64c-22.55,0.01 -41.22,0.15 -41.5,0.33c-0.39,0.25 -0.51,12.66 -0.6,58.18c-0.09,55.03 -0.14,57.9 -0.82,58.58c-0.84,0.83 -177.48,-175.62 -177.48,-177.29c0.01,-1.12 176.35,-177.33 177.25,-177.11c1.11,0.26 1.15,1.58 1.15,37.11c0,37.49 -0.04,36.74 2.18,38.59c0.33,0.27 0.71,1.1 0.85,1.85c0.14,0.75 0.4,1.36 0.57,1.36c0.17,0 0.99,1.39 1.82,3.1c1.72,3.52 2.98,5.37 2.98,4.38c0,-0.34 -0.26,-0.89 -0.59,-1.21c-0.32,-0.32 -0.88,-1.32 -1.24,-2.23c-0.36,-0.9 -0.8,-1.64 -0.97,-1.64c-0.17,0 -0.43,-0.48 -0.58,-1.07c-0.15,-0.59 -0.62,-1.51 -1.04,-2.05c-0.43,-0.54 -0.78,-1.37 -0.78,-1.84c0,-0.46 -0.33,-1.06 -0.75,-1.31c-1.58,-0.99 -1.65,-2.72 -1.65,-39.72l0,-35.63l-1.03,-0.39c-0.56,-0.21 -1.17,-0.39 -1.34,-0.39c-0.17,0 -40.17,39.86 -88.87,88.57m88.1,-11.42c-0.25,0.86 -0.73,1.78 -1.06,2.05c-0.33,0.28 -0.6,0.8 -0.6,1.17c0,0.37 -0.45,1.29 -1,2.03c-0.55,0.74 -1,1.65 -1,2.02c0,0.36 -0.36,0.98 -0.8,1.38c-0.44,0.4 -0.8,1.02 -0.8,1.38c0,0.37 -0.45,1.28 -1,2.02c-0.55,0.75 -1,1.65 -1,2.02c0,0.36 -0.36,1.07 -0.8,1.58c-0.44,0.51 -0.8,1.14 -0.8,1.41c0,0.26 -0.38,0.97 -0.85,1.56c-0.91,1.15 -0.75,1.86 0.23,1.05c0.33,-0.28 0.71,-1.1 0.85,-1.83c0.14,-0.74 0.48,-1.42 0.77,-1.53c0.29,-0.11 0.74,-0.89 1.02,-1.73c0.27,-0.84 0.72,-1.66 0.99,-1.82c0.28,-0.17 0.61,-0.89 0.75,-1.62c0.13,-0.72 0.6,-1.62 1.04,-2c0.44,-0.37 0.8,-1.13 0.8,-1.67c0,-0.58 0.33,-1.17 0.8,-1.42c0.44,-0.24 0.8,-0.73 0.8,-1.09c0,-0.37 0.43,-1.31 0.96,-2.09c0.82,-1.22 1.78,-4.42 1.32,-4.42c-0.08,0 -0.36,0.7 -0.62,1.55m0.84,79.55l-0.1,79.7l-41.37,0l-41.37,0l0.41,-1.45c0.22,-0.8 0.74,-1.83 1.16,-2.28c0.42,-0.45 0.76,-1.19 0.75,-1.64c-0.03,-0.83 -0.03,-0.83 -0.36,-0.02c-0.18,0.45 -0.62,1.06 -0.97,1.35c-0.36,0.3 -0.65,0.85 -0.65,1.23c0,0.39 -0.39,1.19 -0.86,1.8c-0.71,0.9 -0.76,1.15 -0.3,1.44c0.32,0.2 18.64,0.36 42.05,0.36l41.5,0.01l0.21,-0.9c0.12,-0.5 0.17,-36.54 0.11,-80.1l-0.11,-79.2l-0.1,79.7m9.9,-67.83c0,0.34 0.35,1.07 0.78,1.61c0.42,0.54 0.89,1.46 1.04,2.05c0.15,0.59 0.4,1.07 0.56,1.07c0.17,0 0.49,0.4 0.73,0.9c0.42,0.88 0.44,0.88 0.46,0.06c0.02,-0.46 -0.33,-1.16 -0.77,-1.56c-0.44,-0.4 -0.8,-1.02 -0.8,-1.38c0,-0.37 -0.45,-1.27 -1,-2.02c-0.59,-0.8 -1,-1.1 -1,-0.73m3.63,6.97c0.02,0.2 0.63,1.44 1.35,2.76c0.73,1.32 1.9,3.57 2.61,5c0.71,1.43 1.46,2.87 1.66,3.2c0.2,0.33 0.73,1.36 1.17,2.28c0.44,0.93 0.96,1.79 1.16,1.91c0.2,0.12 0.47,0.74 0.61,1.37c0.14,0.64 0.61,1.47 1.03,1.86c0.43,0.39 0.78,1.03 0.78,1.42c0,0.93 1.97,3.23 1.99,2.32c0,-0.35 -0.35,-0.96 -0.79,-1.36c-0.44,-0.4 -0.8,-1.05 -0.8,-1.45c0,-0.39 -0.34,-1.04 -0.74,-1.43c-0.41,-0.4 -0.88,-1.26 -1.04,-1.92c-0.15,-0.66 -0.63,-1.52 -1.05,-1.92c-0.43,-0.39 -0.77,-1.06 -0.77,-1.48c0,-0.42 -0.34,-1.09 -0.75,-1.48c-0.42,-0.4 -0.88,-1.3 -1.03,-2.02c-0.16,-0.71 -0.51,-1.43 -0.8,-1.6c-0.28,-0.16 -0.72,-0.96 -0.98,-1.77c-0.27,-0.8 -0.74,-1.56 -1.06,-1.68c-0.32,-0.12 -0.58,-0.67 -0.58,-1.22c0,-0.54 -0.45,-1.47 -1,-2.07c-0.55,-0.59 -0.99,-0.92 -0.97,-0.72m-26,3.66c-0.52,1.04 -1.2,2.35 -1.51,2.9c-0.31,0.55 -0.82,1.57 -1.14,2.27c-0.31,0.7 -0.75,1.39 -0.97,1.53c-0.53,0.32 -0.53,1 0,1c0.23,0 0.76,-0.79 1.17,-1.76c0.42,-0.96 0.93,-1.86 1.16,-2c0.22,-0.14 0.52,-0.8 0.67,-1.48c0.15,-0.68 0.61,-1.58 1.03,-2c0.61,-0.61 1.09,-2.36 0.65,-2.36c-0.06,0 -0.53,0.86 -1.06,1.9m-4.55,9c-0.16,0.61 -0.46,1.1 -0.66,1.1c-0.2,0 -0.57,0.68 -0.83,1.5c-0.26,0.82 -0.7,1.68 -0.97,1.9c-0.27,0.22 -0.72,1.07 -0.99,1.89c-0.27,0.83 -0.63,1.58 -0.8,1.69c-0.26,0.16 -3.05,5.46 -6.31,11.99c-0.48,0.96 -1.07,1.87 -1.3,2.02c-0.23,0.14 -0.42,0.58 -0.42,0.98c0,0.4 -0.39,1.21 -0.86,1.82c-0.81,1.03 -0.82,1.08 -0.1,0.95c0.51,-0.1 0.89,-0.68 1.14,-1.74c0.22,-0.88 0.71,-1.84 1.1,-2.12c0.4,-0.29 0.72,-0.84 0.72,-1.23c0,-0.38 0.45,-1.3 1,-2.05c0.55,-0.75 1,-1.52 1,-1.72c0,-0.19 0.36,-0.81 0.8,-1.37c0.44,-0.56 0.8,-1.31 0.81,-1.66c0,-0.36 0.36,-1.1 0.79,-1.65c0.43,-0.55 0.79,-1.3 0.79,-1.67c0.01,-0.37 0.46,-1.2 1.01,-1.86c0.55,-0.65 1,-1.54 1,-1.99c0,-0.44 0.25,-0.89 0.56,-1.01c0.31,-0.12 0.78,-0.9 1.05,-1.74c0.27,-0.84 0.84,-1.92 1.27,-2.39c0.45,-0.5 0.73,-1.26 0.64,-1.8c-0.14,-0.91 -0.15,-0.9 -0.44,0.16m42.95,10.94c-0.02,0.46 0.31,1.14 0.72,1.52c0.42,0.37 0.86,1.21 0.99,1.85c0.13,0.64 0.6,1.53 1.05,1.98c0.44,0.44 0.81,1.16 0.81,1.58c0,0.43 0.26,1.03 0.57,1.34c0.31,0.32 0.85,1.18 1.19,1.93c0.34,0.75 0.78,1.63 0.97,1.96c0.18,0.33 0.6,1.14 0.93,1.8c0.67,1.35 1.49,2.9 2.01,3.8c0.19,0.33 0.61,1.14 0.92,1.8l0.58,1.2l0.01,-1.08c0.01,-0.6 -0.31,-1.41 -0.72,-1.8c-0.41,-0.4 -0.87,-1.25 -1.03,-1.9c-0.16,-0.65 -0.63,-1.43 -1.06,-1.72c-0.42,-0.3 -0.77,-0.98 -0.77,-1.52c0,-0.54 -0.36,-1.34 -0.8,-1.78c-0.44,-0.44 -0.8,-1.13 -0.8,-1.53c0,-0.39 -0.33,-1.08 -0.74,-1.52c-0.41,-0.44 -0.97,-1.47 -1.24,-2.3c-0.28,-0.83 -0.75,-1.6 -1.06,-1.72c-0.31,-0.12 -0.56,-0.64 -0.56,-1.16c0,-0.52 -0.34,-1.26 -0.75,-1.65c-0.4,-0.4 -0.84,-0.99 -0.96,-1.32c-0.16,-0.42 -0.24,-0.34 -0.26,0.24m-57.23,16.14c0,0.42 -0.17,0.88 -0.39,1.01c-0.21,0.14 -1.15,1.81 -2.08,3.73c-0.92,1.91 -1.87,3.6 -2.1,3.76c-0.22,0.15 -0.28,0.4 -0.13,0.56c0.49,0.48 1.41,-0.62 1.67,-2.02c0.14,-0.74 0.5,-1.44 0.8,-1.55c0.31,-0.12 0.68,-0.79 0.83,-1.48c0.16,-0.7 0.62,-1.61 1.04,-2.03c0.67,-0.67 1.09,-2.76 0.56,-2.76c-0.11,0 -0.2,0.35 -0.2,0.78m68.49,5.52c0.33,0.38 0.82,1.36 1.08,2.17c0.26,0.81 0.73,1.68 1.05,1.95c0.32,0.26 0.58,0.78 0.58,1.15c0,0.37 0.45,1.28 1,2.03c0.55,0.74 1,1.61 1,1.91c0,0.31 0.36,1.02 0.8,1.58c0.44,0.56 0.8,1.24 0.8,1.51c0,0.27 0.34,0.92 0.75,1.45c0.41,0.52 0.88,1.4 1.04,1.95c0.17,0.55 0.65,1.32 1.06,1.72c0.41,0.39 0.75,1.03 0.75,1.42c0,0.39 0.45,1.31 1,2.06c0.59,0.8 1,1.1 1,0.73c0,-0.34 -0.34,-1.05 -0.75,-1.58c-0.41,-0.52 -0.88,-1.4 -1.05,-1.95c-0.17,-0.55 -0.54,-1.18 -0.81,-1.4c-0.28,-0.22 -0.72,-1.09 -0.99,-1.93c-0.26,-0.84 -0.73,-1.62 -1.04,-1.74c-0.31,-0.12 -0.56,-0.62 -0.56,-1.12c0,-0.5 -0.33,-1.33 -0.74,-1.86c-0.41,-0.52 -0.89,-1.4 -1.05,-1.95c-0.17,-0.55 -0.54,-1.27 -0.82,-1.6c-0.28,-0.33 -0.79,-1.27 -1.13,-2.1c-0.34,-0.83 -0.79,-1.5 -0.99,-1.5c-0.2,0 -0.48,-0.57 -0.62,-1.26c-0.28,-1.38 -0.92,-2.34 -1.56,-2.34c-0.23,0 -0.14,0.32 0.2,0.7m-74.39,5.59c-0.49,0.75 -0.9,1.52 -0.9,1.7c0,0.19 -0.63,1.48 -1.4,2.88c-0.77,1.39 -1.6,2.98 -1.84,3.53c-0.23,0.55 -0.68,1.45 -0.98,2c-0.3,0.55 -0.84,1.68 -1.21,2.5c-0.36,0.82 -0.8,1.5 -0.98,1.5c-0.18,0 -0.53,0.62 -0.78,1.37c-0.25,0.75 -0.69,1.57 -0.99,1.81c-0.29,0.25 -0.65,1.05 -0.79,1.78c-0.13,0.73 -0.6,1.65 -1.04,2.05c-0.43,0.39 -0.79,1.01 -0.79,1.37c0,0.37 -0.45,1.27 -1,2.02c-0.55,0.75 -1,1.62 -1,1.95c0,0.32 -0.3,0.92 -0.66,1.32c-0.59,0.65 -0.6,0.73 -0.03,0.73c0.37,0 0.83,-0.61 1.12,-1.5c0.27,-0.83 0.82,-1.93 1.23,-2.45c0.41,-0.53 0.74,-1.34 0.74,-1.81c0,-0.46 0.36,-1.07 0.8,-1.35c0.44,-0.27 0.8,-0.83 0.8,-1.24c0,-0.41 0.33,-1.17 0.74,-1.7c0.42,-0.52 0.89,-1.39 1.05,-1.92c0.17,-0.53 0.65,-1.33 1.06,-1.78c0.41,-0.44 0.75,-1.09 0.75,-1.45c0,-0.35 0.45,-1.25 1,-2c0.55,-0.75 1,-1.61 1,-1.91c0,-0.31 0.36,-1.02 0.8,-1.58c0.44,-0.56 0.8,-1.33 0.8,-1.7c0,-0.38 0.36,-1.01 0.8,-1.41c0.44,-0.4 0.8,-1.01 0.8,-1.37c0,-0.35 0.46,-1.32 1.03,-2.15c0.56,-0.83 0.97,-1.75 0.9,-2.04c-0.07,-0.29 -0.52,0.08 -1.03,0.85m86.31,17.51c0,0.45 0.35,1.03 0.79,1.31c0.44,0.27 0.8,0.83 0.8,1.24c0,0.41 0.33,1.17 0.74,1.7c0.41,0.52 0.89,1.4 1.05,1.95c0.17,0.55 0.54,1.27 0.82,1.6c0.28,0.33 0.79,1.23 1.14,2c0.35,0.77 0.8,1.67 1,2c0.2,0.33 0.56,1.05 0.8,1.6c0.25,0.55 0.61,1.27 0.82,1.6c0.21,0.33 0.88,1.65 1.5,2.94c0.68,1.4 1.18,2.07 1.27,1.67c0.07,-0.37 -0.34,-1.34 -0.9,-2.16c-0.57,-0.82 -1.04,-1.88 -1.04,-2.36c0,-0.47 -0.36,-1.06 -0.8,-1.29c-0.47,-0.25 -0.8,-0.84 -0.8,-1.41c0,-0.55 -0.34,-1.33 -0.76,-1.75c-0.42,-0.42 -0.88,-1.3 -1.02,-1.96c-0.15,-0.66 -0.61,-1.51 -1.04,-1.9c-0.43,-0.39 -0.78,-1.04 -0.78,-1.44c0,-0.41 -0.33,-1.07 -0.74,-1.48c-0.41,-0.41 -0.86,-1.2 -1,-1.75c-0.38,-1.54 -1.83,-3.18 -1.85,-2.11m-102.01,12.66c-0.33,0.65 -1.2,2.39 -1.94,3.86c-0.74,1.48 -1.51,2.95 -1.71,3.28c-0.2,0.33 -0.65,1.23 -1,2c-0.35,0.77 -0.86,1.67 -1.14,2c-0.28,0.33 -0.65,1.05 -0.82,1.6c-0.16,0.55 -0.64,1.43 -1.04,1.95c-0.41,0.53 -0.75,1.27 -0.75,1.64c0,0.38 -0.36,1.01 -0.8,1.41c-0.44,0.4 -0.8,1 -0.8,1.34c0,0.94 1.51,-0.83 1.84,-2.16c0.15,-0.6 0.61,-1.43 1.02,-1.84c0.41,-0.41 0.74,-1 0.74,-1.32c0,-0.32 0.45,-1.25 1,-2.06c0.55,-0.81 1,-1.72 1,-2.02c0,-0.29 0.36,-0.9 0.8,-1.34c0.44,-0.44 0.8,-1.21 0.8,-1.71c0,-0.5 0.36,-1.22 0.8,-1.6c0.44,-0.37 0.8,-0.99 0.8,-1.36c0,-0.38 0.47,-1.36 1.03,-2.18c0.57,-0.82 0.98,-1.76 0.91,-2.09c-0.09,-0.38 -0.35,-0.17 -0.74,0.6m112.8,8.34c0,0.22 0.16,0.4 0.36,0.4c0.2,0 0.55,0.55 0.79,1.22c0.23,0.67 0.79,1.68 1.24,2.25c0.44,0.57 0.81,1.35 0.81,1.72c0,0.38 0.34,1 0.76,1.37c0.42,0.38 0.87,1.29 1.01,2.01c0.13,0.73 0.6,1.64 1.04,2.04c0.43,0.39 0.79,1.03 0.79,1.42c0,0.39 0.24,0.95 0.53,1.24c0.28,0.29 0.73,0.89 0.98,1.33c0.46,0.79 0.47,0.79 0.48,-0.04c0,-0.46 -0.33,-1.15 -0.75,-1.53c-0.42,-0.38 -0.88,-1.16 -1.03,-1.73c-0.14,-0.57 -0.61,-1.48 -1.03,-2.02c-0.43,-0.54 -0.78,-1.3 -0.78,-1.67c0,-0.38 -0.34,-1 -0.76,-1.38c-0.42,-0.38 -0.89,-1.17 -1.03,-1.76c-0.15,-0.59 -0.51,-1.34 -0.79,-1.67c-0.29,-0.33 -0.66,-1.05 -0.82,-1.6c-0.48,-1.6 -1.8,-2.78 -1.8,-1.6m-123.15,12.06c-0.03,0.36 -0.31,0.75 -0.63,0.88c-0.32,0.12 -0.77,0.93 -1,1.8c-0.24,0.87 -0.67,1.67 -0.97,1.79c-0.3,0.11 -0.67,0.7 -0.82,1.31c-0.15,0.6 -0.62,1.52 -1.03,2.05c-0.41,0.52 -0.86,1.48 -1,2.13c-0.15,0.65 -0.41,1.18 -0.6,1.18c-0.19,0 -0.55,0.68 -0.82,1.5c-0.26,0.83 -0.79,1.86 -1.18,2.3c-0.38,0.44 -0.81,1.3 -0.95,1.9c-0.15,0.6 -0.43,1.1 -0.63,1.1c-0.19,0 -0.58,0.67 -0.84,1.5c-0.26,0.83 -0.71,1.77 -0.99,2.1c-0.28,0.33 -0.79,1.23 -1.14,2c-0.35,0.77 -0.79,1.67 -0.99,2c-0.19,0.33 -0.87,1.68 -1.5,3c-0.64,1.32 -1.41,2.72 -1.72,3.1c-0.32,0.39 -0.43,0.84 -0.27,1c0.39,0.39 1.43,-1.05 1.43,-1.98c0,-0.4 0.36,-1.03 0.8,-1.41c0.44,-0.38 0.91,-1.26 1.04,-1.97c0.13,-0.71 0.58,-1.6 1,-1.98c0.42,-0.37 0.76,-1.1 0.76,-1.6c0,-0.51 0.24,-1.06 0.54,-1.24c0.67,-0.39 1.46,-1.85 1.46,-2.69c0,-0.35 0.36,-0.99 0.8,-1.43c0.44,-0.44 0.8,-1.21 0.8,-1.7c0,-0.5 0.34,-1.12 0.76,-1.39c0.42,-0.26 0.89,-1.04 1.04,-1.73c0.16,-0.69 0.62,-1.6 1.04,-2.02c0.42,-0.42 0.76,-1.22 0.76,-1.77c0,-0.56 0.26,-1.12 0.58,-1.24c0.32,-0.12 0.8,-0.88 1.06,-1.69c0.26,-0.8 0.7,-1.59 0.97,-1.75c0.28,-0.17 0.62,-0.8 0.78,-1.41c0.15,-0.6 0.63,-1.49 1.08,-1.96c0.44,-0.48 0.72,-1.2 0.61,-1.6c-0.15,-0.6 -0.2,-0.61 -0.23,-0.08m131.96,4.42c0,0.37 0.19,0.79 0.42,0.94c0.24,0.15 0.78,1.01 1.21,1.92c1.68,3.62 3.36,6.34 3.5,5.67c0.07,-0.38 -0.24,-1.08 -0.7,-1.57c-0.46,-0.49 -0.84,-1.17 -0.84,-1.51c0,-0.34 -0.36,-1.08 -0.8,-1.64c-0.44,-0.56 -0.8,-1.29 -0.8,-1.63c0,-0.9 -1.97,-3.07 -1.99,-2.18m5.28,9.72c0.53,1.44 2.08,4.42 2.34,4.53c0.18,0.07 0.54,0.79 0.81,1.6c0.26,0.81 0.81,1.9 1.22,2.42c0.41,0.53 0.74,1.27 0.74,1.64c0,0.38 0.35,1 0.78,1.39c0.43,0.39 0.85,1.09 0.94,1.56c0.12,0.58 0.19,0.44 0.23,-0.43c0.03,-0.88 -0.18,-1.41 -0.7,-1.69c-0.42,-0.22 -0.88,-1.04 -1.03,-1.83c-0.14,-0.79 -0.52,-1.53 -0.83,-1.65c-0.31,-0.12 -0.69,-0.84 -0.83,-1.61c-0.14,-0.76 -0.6,-1.6 -1.01,-1.85c-0.41,-0.26 -0.75,-0.87 -0.75,-1.35c0,-0.49 -0.46,-1.39 -1.03,-2.01c-0.56,-0.62 -0.96,-0.94 -0.88,-0.72" fill="#c4f4fc" fill-rule="evenodd" id="path3"/>
   <path fill="#ec100f0" fill-rule="evenodd" id="path4"/>
  </g>
 </g>
</svg>