<?xml version="1.0"?>
<svg width="640" height="480" xmlns="http://www.w3.org/2000/svg" xmlns:svg="http://www.w3.org/2000/svg">
 <!-- Created with SVG-edit - https://github.com/SVG-Edit/svgedit-->
 <g class="layer">
  <title>Layer 1</title>
  <path d="m252.12,2.69c-43.65,0.27 -50.07,0.46 -50.07,2.01c0,0.92 -1.41,2.74 -3.12,4.07c-1.72,1.33 -3.12,3.07 -3.12,3.85c0,0.79 -0.75,1.41 -1.61,1.41c-0.86,0 -1.61,1 -1.61,2.25c0,1.19 -0.65,2.2 -1.51,2.2c-0.86,0 -1.61,1 -1.61,2.2c0,1.28 -0.58,2.25 -1.34,2.25c-1.51,0 -6.52,7.19 -6.52,9.44c0,0.87 -0.75,1.6 -1.61,1.6c-0.86,0 -1.61,0.87 -1.61,1.87c0,1 -1.24,2.61 -2.85,3.61c-1.61,1 -3.88,3.39 -5.11,5.4c-1.24,2.01 -2.85,3.61 -3.4,3.61c-0.65,0 -1.24,0.87 -1.24,2.01c0,1.06 -1.41,2.66 -3.12,3.53c-1.78,0.92 -3.23,2.52 -3.23,3.61c0,1.06 -0.65,2.01 -1.51,2.01c-0.96,0 -1.61,1 -1.61,2.2c0,1.19 -0.65,2.2 -1.61,2.2c-0.86,0 -1.51,0.92 -1.51,2.01c0,1.06 -1.41,2.66 -3.23,3.61c-1.72,0.87 -3.12,2.47 -3.12,3.53c0,1.14 -0.65,2.01 -1.61,2.01c-0.86,0 -1.51,1 -1.51,2.2c0,1.28 -0.75,2.25 -1.61,2.25c-0.86,0 -1.61,0.87 -1.61,1.93c0,1.14 -1.41,2.74 -3.12,3.61c-1.72,0.87 -3.12,2.47 -3.12,3.61c0,1.06 -0.75,1.93 -1.61,1.93c-0.86,0 -1.61,1 -1.61,2.25c0,1.19 -0.65,2.2 -1.51,2.2c-0.96,0 -1.61,0.87 -1.61,2.01c0,1.06 -1.41,2.66 -3.12,3.53c-1.78,0.92 -3.23,2.52 -3.23,3.61c0,1.06 -0.65,2.01 -1.51,2.01c-0.96,0 -1.61,1 -1.61,2.2c0,1.19 -0.65,2.2 -1.61,2.2c-0.86,0 -1.51,0.87 -1.51,1.79c0,1 -1.34,2.66 -2.92,3.66c-1.61,1 -3.88,3.39 -5.11,5.4c-1.24,2.01 -2.75,3.61 -3.4,3.61c-0.65,0 -1.24,1 -1.24,2.2c0,1.28 -0.58,2.25 -1.34,2.25c-0.65,0 -3.02,2.33 -5.11,5.26c-2.09,2.88 -4.36,5.4 -4.91,5.67c-0.65,0.19 -1.24,1.28 -1.24,2.47c0,1.19 -0.58,2.14 -1.34,2.14c-0.75,0 -3.02,2.39 -5.11,5.26c-2.09,2.93 -4.36,5.45 -5.01,5.67c-0.65,0.19 -1.13,1.33 -1.13,2.47c0,1.19 -0.58,2.14 -1.34,2.14c-1.34,0 -6.62,7.79 -6.62,9.85c0,0.68 -0.65,1.28 -1.51,1.28c-0.96,0 -1.61,0.87 -1.61,2.01c0,1.06 -1.41,2.66 -3.12,3.53c-1.78,0.92 -3.23,2.52 -3.23,3.61c0,1.06 -0.65,2.01 -1.51,2.01c-0.96,0 -1.61,1 -1.61,2.2c0,1.19 -0.65,2.2 -1.61,2.2c-0.86,0 -1.51,0.68 -1.51,1.47c0,0.79 -1.41,2.52 -3.23,3.85c-1.72,1.33 -3.12,2.88 -3.12,3.53c0,0.6 -0.75,1.14 -1.61,1.14c-0.86,0 -1.51,1 -1.51,2.25c0,1.19 -0.75,2.2 -1.61,2.2c-0.86,0 -1.61,0.87 -1.61,2.01c0,1.06 -1.41,2.66 -3.12,3.53c-1.72,0.92 -3.12,2.52 -3.12,3.61c0,1.06 -0.75,2.01 -1.61,2.01c-0.86,0 -1.61,1 -1.61,2.2c0,1.19 -0.65,2.2 -1.51,2.2c-0.86,0 -1.61,0.92 -1.61,2.01c0,1.06 -1.41,2.66 -3.12,3.61c-1.78,0.87 -3.23,2.47 -3.23,3.53c0,1.14 -0.65,2.01 -1.51,2.01c-0.96,0 -1.61,0.92 -1.61,2.14c0,1.14 -0.65,2.25 -1.41,2.47c-2.92,0.79 -3.67,8.25 -1.03,10.12c1.34,1 2.47,2.52 2.47,3.53c0,0.92 0.65,1.74 1.61,1.74c0.86,0 1.51,0.87 1.51,2.01c0,1.06 1.41,2.66 3.23,3.53c1.72,0.92 3.12,2.52 3.12,3.61c0,1.06 0.58,2.01 1.24,2.01c0.65,0 2.16,1.6 3.4,3.61c1.24,2.01 3.5,4.4 5.11,5.4c1.61,1 2.85,2.61 2.85,3.61c0,1 0.75,1.79 1.61,1.79c0.86,0 1.61,1 1.61,2.25c0,1.19 0.65,2.2 1.51,2.2c0.86,0 1.61,0.87 1.61,2.01c0,1.06 1.41,2.66 3.12,3.53c1.78,0.92 3.23,2.52 3.23,3.61c0,1.06 0.65,2.01 1.51,2.01c0.96,0 1.61,0.87 1.61,1.93c0,1.14 1.41,2.74 3.12,3.61c1.78,0.87 3.23,2.47 3.23,3.61c0,1.06 0.65,1.93 1.51,1.93c0.96,0 1.61,1 1.61,2.25c0,1.19 0.65,2.2 1.61,2.2c0.86,0 1.51,0.92 1.51,2.14c0,1.14 0.58,2.25 1.34,2.47c0.65,0.19 3.23,3.12 5.66,6.54c2.47,3.34 4.91,6.32 5.49,6.65c0.58,0.27 2.75,3.07 4.91,6.05c2.16,3.07 5.11,6.54 6.73,7.73c1.41,1.19 2.75,2.8 2.75,3.61c0,0.79 0.65,1.47 1.51,1.47c0.96,0 1.61,0.87 1.61,2.01c0,1.06 1.41,2.66 3.12,3.53c1.78,0.92 3.23,2.52 3.23,3.61c0,1.06 0.65,2.01 1.51,2.01c0.96,0 1.61,1 1.61,2.2c0,1.19 0.65,2.2 1.61,2.2c0.86,0 1.51,0.92 1.51,2.01c0,1.06 1.41,2.66 3.23,3.61c1.72,0.87 3.12,2.47 3.12,3.53c0,1.14 0.65,2.01 1.61,2.01c0.86,0 1.51,0.87 1.51,2.01c0,1.06 1.41,2.66 3.23,3.53c1.72,0.92 3.12,2.52 3.12,3.61c0,1.06 0.65,2.01 1.61,2.01c0.86,0 1.51,1 1.51,2.2c0,1.19 0.75,2.2 1.61,2.2c0.86,0 1.61,0.92 1.61,2.01c0,1.06 1.41,2.66 3.12,3.61c1.72,0.87 3.12,2.47 3.12,3.53c0,1.14 0.75,2.01 1.61,2.01c0.86,0 1.61,0.87 1.61,2.01c0,1.06 1.41,2.66 3.12,3.53c1.72,0.92 3.12,2.52 3.12,3.61c0,1.06 0.58,2.01 1.24,2.01c0.65,0 2.16,1.6 3.4,3.61c1.24,2.01 3.5,4.4 5.11,5.4c1.61,1 2.92,2.61 2.92,3.61c0,1 0.65,1.79 1.51,1.79c0.96,0 1.61,0.92 1.61,2.01c0,1.06 1.41,2.66 3.12,3.61c1.78,0.87 3.23,2.47 3.23,3.53c0,1.14 0.65,2.01 1.51,2.01c0.86,0 1.61,1 1.61,2.2c0,1.28 0.75,2.25 1.61,2.25c0.86,0 1.51,1 1.51,2.2c0,1.19 0.58,2.2 1.24,2.2c0.65,0 3.23,2.98 5.66,6.65c2.47,3.66 5.11,6.65 5.87,6.65c0.75,0 1.41,1 1.41,2.14c0,1.19 0.58,2.33 1.24,2.52c0.65,0.19 2.85,2.74 5.01,5.67c1.99,2.88 4.36,5.26 5.11,5.26c0.65,0 1.34,1 1.34,2.2c0,2.2 1.03,2.2 99.21,2.2l99.21,0l0,-51.61l0,-51.61l55.08,0l55.18,0l0.96,-3.34c0.58,-1.79 1.61,-3.34 2.37,-3.34c0.75,0 1.34,-0.87 1.34,-1.93c0,-1.14 1.41,-2.74 3.23,-3.61c1.72,-0.87 3.12,-2.47 3.12,-3.61c0,-1.06 0.75,-1.93 1.61,-1.93c0.86,0 1.51,-1 1.51,-2.25c0,-1.19 0.75,-2.2 1.61,-2.2c0.86,0 1.61,-0.79 1.61,-1.79c0,-1 1.24,-2.66 2.85,-3.61c1.61,-1 3.88,-3.47 5.11,-5.4c1.24,-2.01 2.85,-3.66 3.4,-3.66c0.65,0 1.24,-0.73 1.24,-1.66c0,-0.92 1.41,-2.8 3.12,-4.12c1.78,-1.33 3.23,-2.99 3.23,-3.85c0,-0.79 0.65,-1.41 1.51,-1.41c0.86,0 1.61,-1 1.61,-2.25c0,-1.19 0.75,-2.2 1.61,-2.2c0.86,0 1.51,-0.87 1.51,-2.01c0,-1.06 1.41,-2.66 3.23,-3.53c1.72,-0.92 3.12,-2.52 3.12,-3.61c0,-1.06 0.75,-2.01 1.61,-2.01c0.86,0 1.51,-1 1.51,-2.2c0,-1.19 0.75,-2.2 1.61,-2.2c0.86,0 1.61,-0.92 1.61,-2.01c0,-1.06 1.41,-2.66 3.12,-3.61c1.72,-0.87 3.12,-2.47 3.12,-3.53c0,-1.14 0.75,-2.01 1.61,-2.01c0.86,0 1.61,-1 1.61,-2.2c0,-1.28 0.65,-2.25 1.51,-2.25c0.86,0 1.61,-0.87 1.61,-1.93c0,-1.14 1.41,-2.74 3.12,-3.61c1.78,-0.87 3.23,-2.47 3.23,-3.61c0,-1.06 0.65,-1.93 1.51,-1.93c0.86,0 1.61,-1 1.61,-2.25c0,-1.19 0.75,-2.2 1.61,-2.2c0.86,0 1.51,-0.79 1.51,-1.79c0,-1 1.34,-2.66 2.85,-3.61c1.51,-1 3.77,-3.34 5.01,-5.13c1.24,-1.87 3.29,-4.21 4.43,-5.26c7.17,-6.05 15.2,-20.84 11.32,-20.84c-0.86,0 -1.51,-1 -1.51,-2.2c0,-1.28 -0.76,-2.25 -1.61,-2.25c-0.86,0 -1.61,-0.6 -1.61,-1.41c0,-0.87 -1.41,-2.52 -3.12,-3.85c-1.72,-1.33 -3.12,-3.12 -3.12,-3.99c0,-0.92 -0.58,-1.79 -1.24,-2.01c-0.65,-0.19 -2.85,-2.74 -5.01,-5.67c-2.09,-2.88 -4.36,-5.26 -5.11,-5.26c-0.65,0 -1.34,-1 -1.34,-2.2c0,-1.28 -0.65,-2.25 -1.51,-2.25c-0.86,0 -1.61,-0.6 -1.61,-1.47c0,-0.73 -1.24,-2.39 -2.75,-3.61c-1.51,-1.14 -3.77,-3.66 -5.11,-5.45c-1.34,-1.79 -3.6,-4.12 -5.11,-5.13c-1.51,-1 -2.85,-2.61 -2.85,-3.61c0,-1 -0.65,-1.79 -1.51,-1.79c-0.86,0 -1.61,-0.92 -1.61,-2.01c0,-1.06 -1.41,-2.66 -3.12,-3.61c-1.78,-0.87 -3.23,-2.47 -3.23,-3.53c0,-1.14 -0.65,-2.01 -1.51,-2.01c-0.86,0 -1.61,-1 -1.61,-2.2c0,-1.28 -0.75,-2.25 -1.61,-2.25c-0.86,0 -1.51,-0.87 -1.51,-1.93c0,-1.14 -1.41,-2.74 -3.23,-3.61c-1.72,-0.87 -3.12,-2.47 -3.12,-3.61c0,-1.06 -0.75,-1.93 -1.61,-1.93c-0.86,0 -1.51,-0.92 -1.51,-2.01c0,-1.06 -1.41,-2.66 -3.23,-3.61c-1.72,-0.87 -3.12,-2.47 -3.12,-3.53c0,-1.14 -0.75,-2.01 -1.61,-2.01c-0.86,0 -1.51,-0.87 -1.51,-2.01c0,-1.06 -1.41,-2.66 -3.23,-3.53c-1.72,-0.92 -3.12,-2.52 -3.12,-3.61c0,-1.06 -0.75,-2.01 -1.61,-2.01c-0.86,0 -1.51,-0.87 -1.51,-1.93c0,-1.14 -1.41,-2.74 -3.23,-3.61c-1.72,-0.87 -3.12,-2.47 -3.12,-3.61c0,-1.06 -0.75,-1.93 -1.61,-1.93c-0.86,0 -1.51,-0.68 -1.51,-1.47c0,-0.79 -1.34,-2.47 -2.92,-3.66c-1.61,-1.19 -3.6,-3.66 -4.43,-5.45l-1.61,-3.34l-54.63,-0.27l-54.53,-0.27l0,-53.27l0,-53.27l-50.82,0.27c-27.97,0.14 -73.33,0.41 -100.72,0.6m146.84,236.68l0,126.54l-51.3,0c-53.57,0 -55.83,-0.19 -55.83,-4.8c0,-0.87 -1.61,-3.26 -3.6,-5.32c-1.99,-2.14 -4.74,-5.45 -5.94,-7.38c-1.24,-2.01 -2.75,-3.61 -3.4,-3.61c-0.65,0 -1.24,-0.68 -1.24,-1.47c0,-0.79 -1.41,-2.52 -3.12,-3.8c-1.72,-1.33 -3.12,-3.2 -3.12,-4.12c0,-0.92 -0.75,-1.74 -1.61,-1.74c-0.86,0 -1.61,-1 -1.61,-2.2c0,-1.19 -0.65,-2.2 -1.51,-2.2c-0.86,0 -1.61,-0.92 -1.61,-2.01c0,-1.06 -1.41,-2.66 -3.12,-3.61c-1.78,-0.87 -3.23,-2.47 -3.23,-3.53c0,-1.14 -0.65,-2.01 -1.51,-2.01c-0.86,0 -1.61,-0.87 -1.61,-2.01c0,-1.06 -1.41,-2.66 -3.12,-3.53c-1.78,-0.92 -3.23,-2.52 -3.23,-3.61c0,-1.06 -0.65,-2.01 -1.51,-2.01c-0.86,0 -1.61,-1 -1.61,-2.2c0,-1.19 -0.75,-2.2 -1.61,-2.2c-0.86,0 -1.51,-0.92 -1.51,-2.01c0,-1.06 -1.41,-2.66 -3.23,-3.61c-1.72,-0.87 -3.12,-2.47 -3.12,-3.53c0,-1.14 -0.75,-2.01 -1.61,-2.01c-0.86,0 -1.51,-0.87 -1.51,-2.01c0,-1.06 -1.41,-2.66 -3.23,-3.53c-1.72,-0.92 -3.12,-2.52 -3.12,-3.61c0,-1.06 -0.75,-2.01 -1.61,-2.01c-0.86,0 -1.51,-1 -1.51,-2.2c0,-1.19 -0.75,-2.2 -1.61,-2.2c-0.86,0 -1.61,-0.79 -1.61,-1.66c0,-0.92 -0.65,-1.66 -1.51,-1.66c-0.86,0 -1.61,-0.79 -1.61,-1.66c0,-0.92 -0.75,-1.66 -1.61,-1.66c-0.86,0 -1.51,-0.79 -1.51,-1.66c0,-0.92 -0.75,-1.66 -1.61,-1.66c-0.86,0 -1.61,-0.92 -1.61,-2.01c0,-1.06 -1.41,-2.66 -3.12,-3.61c-1.72,-0.87 -3.12,-2.47 -3.12,-3.53c0,-1.14 -0.75,-2.01 -1.61,-2.01c-0.86,0 -1.61,-1 -1.61,-2.2c0,-1.28 -0.65,-2.25 -1.51,-2.25c-0.86,0 -1.61,-0.87 -1.61,-1.93c0,-1.14 -1.41,-2.74 -3.12,-3.61c-1.78,-0.87 -3.23,-2.47 -3.23,-3.47c0,-1.06 -0.86,-2.2 -1.89,-2.52c-1.61,-0.54 -1.61,-0.79 0,-1.33c1.03,-0.33 1.89,-1.6 1.89,-2.74c0,-1.19 0.75,-2.14 1.61,-2.14c0.86,0 1.61,-0.92 1.61,-2.01c0,-1.06 1.41,-2.66 3.12,-3.61c1.72,-0.87 3.12,-2.47 3.12,-3.53c0,-1.14 0.75,-2.01 1.61,-2.01c0.86,0 1.61,-0.87 1.61,-2.01c0,-1.06 1.41,-2.66 3.12,-3.53c1.72,-0.92 3.12,-2.52 3.12,-3.61c0,-1.06 0.75,-2.01 1.61,-2.01c0.86,0 1.61,-1 1.61,-2.2c0,-1.19 0.65,-2.2 1.51,-2.2c0.86,0 1.61,-0.92 1.61,-2.01c0,-1.06 1.41,-2.66 3.12,-3.61c1.78,-0.87 3.23,-2.47 3.23,-3.53c0,-1.14 0.65,-2.01 1.51,-2.01c0.86,0 1.61,-0.79 1.61,-1.79c0,-1 1.24,-2.66 2.75,-3.61c1.51,-1 3.88,-3.34 5.11,-5.13c1.34,-1.87 3.67,-4.34 5.18,-5.54c1.41,-1.14 2.75,-2.8 2.75,-3.61c0,-0.79 0.65,-1.47 1.51,-1.47c0.86,0 1.61,-1 1.61,-2.2c0,-1.19 0.75,-2.2 1.61,-2.2c0.86,0 1.51,-0.79 1.51,-1.74c0,-0.92 1.41,-2.8 3.23,-4.07c1.72,-1.33 3.12,-3.07 3.12,-3.85c0,-0.79 0.75,-1.47 1.61,-1.47c0.86,0 1.51,-0.79 1.51,-1.74c0,-0.92 1.41,-2.74 3.23,-4.07c1.72,-1.33 3.12,-3.07 3.12,-3.85c0,-0.79 0.75,-1.47 1.61,-1.47c0.86,0 1.51,-1 1.51,-2.2c0,-1.19 0.75,-2.2 1.61,-2.2c0.86,0 1.61,-0.79 1.61,-1.74c0,-0.92 1.41,-2.8 3.12,-4.07c1.72,-1.33 3.12,-3.07 3.12,-3.85c0,-0.79 0.75,-1.47 1.61,-1.47c0.86,0 1.61,-1 1.61,-2.2c0,-1.28 0.58,-2.25 1.24,-2.25c1.41,0 9.75,-11.18 9.75,-13.11c0,-0.92 14.28,-1.28 53.57,-1.28l53.57,0l0,126.54" fill="#fccc04" fill-rule="evenodd" id="svg_1"/>
 </g>
</svg>